<?xml version="1.0" encoding="utf-8" standalone="no"?>
<!DOCTYPE svg PUBLIC "-//W3C//DTD SVG 1.1//EN"
  "http://www.w3.org/Graphics/SVG/1.1/DTD/svg11.dtd">
<svg xmlns:xlink="http://www.w3.org/1999/xlink" width="250.016006pt" height="186.684427pt" viewBox="0 0 250.016006 186.684427" xmlns="http://www.w3.org/2000/svg" version="1.1">
 <metadata>
  <rdf:RDF xmlns:dc="http://purl.org/dc/elements/1.1/" xmlns:cc="http://creativecommons.org/ns#" xmlns:rdf="http://www.w3.org/1999/02/22-rdf-syntax-ns#">
   <cc:Work>
    <dc:type rdf:resource="http://purl.org/dc/dcmitype/StillImage"/>
    <dc:date>2026-05-15T16:39:51.491000</dc:date>
    <dc:format>image/svg+xml</dc:format>
    <dc:creator>
     <cc:Agent>
      <dc:title>Matplotlib v3.9.2, https://matplotlib.org/</dc:title>
     </cc:Agent>
    </dc:creator>
   </cc:Work>
  </rdf:RDF>
 </metadata>
 <defs>
  <style type="text/css">*{stroke-linejoin: round; stroke-linecap: butt}</style>
 </defs>
 <g id="figure_1">
  <g id="patch_1">
   <path d="M 0 186.684427 
L 250.016006 186.684427 
L 250.016006 0 
L 0 0 
z
" style="fill: #ffffff"/>
  </g>
  <g id="axes_1">
   <g id="patch_2">
    <path d="M 35.507188 157.366614 
L 242.816006 157.366614 
L 242.816006 7.2 
L 35.507188 7.2 
z
" style="fill: #ffffff"/>
   </g>
   <g id="PathCollection_1">
    <defs>
     <path id="m2a5549ad54" d="M 0 1.581139 
C 0.419323 1.581139 0.821528 1.41454 1.118034 1.118034 
C 1.41454 0.821528 1.581139 0.419323 1.581139 0 
C 1.581139 -0.419323 1.41454 -0.821528 1.118034 -1.118034 
C 0.821528 -1.41454 0.419323 -1.581139 0 -1.581139 
C -0.419323 -1.581139 -0.821528 -1.41454 -1.118034 -1.118034 
C -1.41454 -0.821528 -1.581139 -0.419323 -1.581139 0 
C -1.581139 0.419323 -1.41454 0.821528 -1.118034 1.118034 
C -0.821528 1.41454 -0.419323 1.581139 0 1.581139 
z
" style="stroke: #000000; stroke-opacity: 0.6"/>
    </defs>
    <g clip-path="url(#pfbb6a522d3)">
     <use xlink:href="#m2a5549ad54" x="233.392878" y="21.660672" style="fill-opacity: 0.6; stroke: #000000; stroke-opacity: 0.6"/>
     <use xlink:href="#m2a5549ad54" x="205.026436" y="30.469826" style="fill-opacity: 0.6; stroke: #000000; stroke-opacity: 0.6"/>
     <use xlink:href="#m2a5549ad54" x="167.528039" y="47.606408" style="fill-opacity: 0.6; stroke: #000000; stroke-opacity: 0.6"/>
     <use xlink:href="#m2a5549ad54" x="139.161597" y="61.967048" style="fill-opacity: 0.6; stroke: #000000; stroke-opacity: 0.6"/>
     <use xlink:href="#m2a5549ad54" x="73.296758" y="98.378354" style="fill-opacity: 0.6; stroke: #000000; stroke-opacity: 0.6"/>
    </g>
   </g>
   <g id="PathCollection_2">
    <defs>
     <path id="ma4f06dfcc1" d="M 0 1.581139 
C 0.419323 1.581139 0.821528 1.41454 1.118034 1.118034 
C 1.41454 0.821528 1.581139 0.419323 1.581139 0 
C 1.581139 -0.419323 1.41454 -0.821528 1.118034 -1.118034 
C 0.821528 -1.41454 0.419323 -1.581139 0 -1.581139 
C -0.419323 -1.581139 -0.821528 -1.41454 -1.118034 -1.118034 
C -1.41454 -0.821528 -1.581139 -0.419323 -1.581139 0 
C -1.581139 0.419323 -1.41454 0.821528 -1.118034 1.118034 
C -0.821528 1.41454 -0.419323 1.581139 0 1.581139 
z
" style="stroke: #cc79a7; stroke-opacity: 0.6"/>
    </defs>
    <g clip-path="url(#pfbb6a522d3)">
     <use xlink:href="#ma4f06dfcc1" x="233.392878" y="71.885415" style="fill: #cc79a7; fill-opacity: 0.6; stroke: #cc79a7; stroke-opacity: 0.6"/>
     <use xlink:href="#ma4f06dfcc1" x="205.026436" y="88.884306" style="fill: #cc79a7; fill-opacity: 0.6; stroke: #cc79a7; stroke-opacity: 0.6"/>
     <use xlink:href="#ma4f06dfcc1" x="167.528039" y="107.529712" style="fill: #cc79a7; fill-opacity: 0.6; stroke: #cc79a7; stroke-opacity: 0.6"/>
     <use xlink:href="#ma4f06dfcc1" x="139.161597" y="120.794031" style="fill: #cc79a7; fill-opacity: 0.6; stroke: #cc79a7; stroke-opacity: 0.6"/>
     <use xlink:href="#ma4f06dfcc1" x="73.296758" y="140.349541" style="fill: #cc79a7; fill-opacity: 0.6; stroke: #cc79a7; stroke-opacity: 0.6"/>
    </g>
   </g>
   <g id="PathCollection_3">
    <defs>
     <path id="maad7f8a0a6" d="M 0 1.581139 
C 0.419323 1.581139 0.821528 1.41454 1.118034 1.118034 
C 1.41454 0.821528 1.581139 0.419323 1.581139 0 
C 1.581139 -0.419323 1.41454 -0.821528 1.118034 -1.118034 
C 0.821528 -1.41454 0.419323 -1.581139 0 -1.581139 
C -0.419323 -1.581139 -0.821528 -1.41454 -1.118034 -1.118034 
C -1.41454 -0.821528 -1.581139 -0.419323 -1.581139 0 
C -1.581139 0.419323 -1.41454 0.821528 -1.118034 1.118034 
C -0.821528 1.41454 -0.419323 1.581139 0 1.581139 
z
" style="stroke: #009e73; stroke-opacity: 0.6"/>
    </defs>
    <g clip-path="url(#pfbb6a522d3)">
     <use xlink:href="#maad7f8a0a6" x="233.392878" y="47.683824" style="fill: #009e73; fill-opacity: 0.6; stroke: #009e73; stroke-opacity: 0.6"/>
     <use xlink:href="#maad7f8a0a6" x="205.026436" y="62.871761" style="fill: #009e73; fill-opacity: 0.6; stroke: #009e73; stroke-opacity: 0.6"/>
     <use xlink:href="#maad7f8a0a6" x="167.528039" y="82.634372" style="fill: #009e73; fill-opacity: 0.6; stroke: #009e73; stroke-opacity: 0.6"/>
     <use xlink:href="#maad7f8a0a6" x="139.161597" y="96.742818" style="fill: #009e73; fill-opacity: 0.6; stroke: #009e73; stroke-opacity: 0.6"/>
     <use xlink:href="#maad7f8a0a6" x="73.296758" y="126.175118" style="fill: #009e73; fill-opacity: 0.6; stroke: #009e73; stroke-opacity: 0.6"/>
    </g>
   </g>
   <g id="PathCollection_4">
    <defs>
     <path id="m537558eb6f" d="M 0 1.581139 
C 0.419323 1.581139 0.821528 1.41454 1.118034 1.118034 
C 1.41454 0.821528 1.581139 0.419323 1.581139 0 
C 1.581139 -0.419323 1.41454 -0.821528 1.118034 -1.118034 
C 0.821528 -1.41454 0.419323 -1.581139 0 -1.581139 
C -0.419323 -1.581139 -0.821528 -1.41454 -1.118034 -1.118034 
C -1.41454 -0.821528 -1.581139 -0.419323 -1.581139 0 
C -1.581139 0.419323 -1.41454 0.821528 -1.118034 1.118034 
C -0.821528 1.41454 -0.419323 1.581139 0 1.581139 
z
" style="stroke: #e69f00; stroke-opacity: 0.6"/>
    </defs>
    <g clip-path="url(#pfbb6a522d3)">
     <use xlink:href="#m537558eb6f" x="233.392878" y="120.264012" style="fill: #e69f00; fill-opacity: 0.6; stroke: #e69f00; stroke-opacity: 0.6"/>
     <use xlink:href="#m537558eb6f" x="205.026436" y="130.571786" style="fill: #e69f00; fill-opacity: 0.6; stroke: #e69f00; stroke-opacity: 0.6"/>
     <use xlink:href="#m537558eb6f" x="167.528039" y="141.586475" style="fill: #e69f00; fill-opacity: 0.6; stroke: #e69f00; stroke-opacity: 0.6"/>
     <use xlink:href="#m537558eb6f" x="139.161597" y="147.286969" style="fill: #e69f00; fill-opacity: 0.6; stroke: #e69f00; stroke-opacity: 0.6"/>
     <use xlink:href="#m537558eb6f" x="73.296758" y="150.737833" style="fill: #e69f00; fill-opacity: 0.6; stroke: #e69f00; stroke-opacity: 0.6"/>
    </g>
   </g>
   <g id="PathCollection_5">
    <defs>
     <path id="m37f8a846aa" d="M 0 1.581139 
C 0.419323 1.581139 0.821528 1.41454 1.118034 1.118034 
C 1.41454 0.821528 1.581139 0.419323 1.581139 0 
C 1.581139 -0.419323 1.41454 -0.821528 1.118034 -1.118034 
C 0.821528 -1.41454 0.419323 -1.581139 0 -1.581139 
C -0.419323 -1.581139 -0.821528 -1.41454 -1.118034 -1.118034 
C -1.41454 -0.821528 -1.581139 -0.419323 -1.581139 0 
C -1.581139 0.419323 -1.41454 0.821528 -1.118034 1.118034 
C -0.821528 1.41454 -0.419323 1.581139 0 1.581139 
z
" style="stroke: #0072b2; stroke-opacity: 0.6"/>
    </defs>
    <g clip-path="url(#pfbb6a522d3)">
     <use xlink:href="#m37f8a846aa" x="233.392878" y="24.522706" style="fill: #0072b2; fill-opacity: 0.6; stroke: #0072b2; stroke-opacity: 0.6"/>
     <use xlink:href="#m37f8a846aa" x="205.026436" y="34.565794" style="fill: #0072b2; fill-opacity: 0.6; stroke: #0072b2; stroke-opacity: 0.6"/>
     <use xlink:href="#m37f8a846aa" x="167.528039" y="52.814723" style="fill: #0072b2; fill-opacity: 0.6; stroke: #0072b2; stroke-opacity: 0.6"/>
     <use xlink:href="#m37f8a846aa" x="139.161597" y="69.253506" style="fill: #0072b2; fill-opacity: 0.6; stroke: #0072b2; stroke-opacity: 0.6"/>
     <use xlink:href="#m37f8a846aa" x="73.296758" y="101.674656" style="fill: #0072b2; fill-opacity: 0.6; stroke: #0072b2; stroke-opacity: 0.6"/>
    </g>
   </g>
   <g id="PathCollection_6">
    <defs>
     <path id="m8f8f1cb1f0" d="M 0 1.581139 
C 0.419323 1.581139 0.821528 1.41454 1.118034 1.118034 
C 1.41454 0.821528 1.581139 0.419323 1.581139 0 
C 1.581139 -0.419323 1.41454 -0.821528 1.118034 -1.118034 
C 0.821528 -1.41454 0.419323 -1.581139 0 -1.581139 
C -0.419323 -1.581139 -0.821528 -1.41454 -1.118034 -1.118034 
C -1.41454 -0.821528 -1.581139 -0.419323 -1.581139 0 
C -1.581139 0.419323 -1.41454 0.821528 -1.118034 1.118034 
C -0.821528 1.41454 -0.419323 1.581139 0 1.581139 
z
" style="stroke: #d55e00; stroke-opacity: 0.6"/>
    </defs>
    <g clip-path="url(#pfbb6a522d3)">
     <use xlink:href="#m8f8f1cb1f0" x="233.392878" y="29.202753" style="fill: #d55e00; fill-opacity: 0.6; stroke: #d55e00; stroke-opacity: 0.6"/>
     <use xlink:href="#m8f8f1cb1f0" x="205.026436" y="42.618946" style="fill: #d55e00; fill-opacity: 0.6; stroke: #d55e00; stroke-opacity: 0.6"/>
     <use xlink:href="#m8f8f1cb1f0" x="176.659994" y="60.416075" style="fill: #d55e00; fill-opacity: 0.6; stroke: #d55e00; stroke-opacity: 0.6"/>
     <use xlink:href="#m8f8f1cb1f0" x="139.161597" y="84.738074" style="fill: #d55e00; fill-opacity: 0.6; stroke: #d55e00; stroke-opacity: 0.6"/>
     <use xlink:href="#m8f8f1cb1f0" x="110.795155" y="99.922347" style="fill: #d55e00; fill-opacity: 0.6; stroke: #d55e00; stroke-opacity: 0.6"/>
     <use xlink:href="#m8f8f1cb1f0" x="82.428713" y="110.905214" style="fill: #d55e00; fill-opacity: 0.6; stroke: #d55e00; stroke-opacity: 0.6"/>
     <use xlink:href="#m8f8f1cb1f0" x="44.930316" y="120.910763" style="fill: #d55e00; fill-opacity: 0.6; stroke: #d55e00; stroke-opacity: 0.6"/>
    </g>
   </g>
   <g id="PathCollection_7">
    <defs>
     <path id="ma53adf3d59" d="M 0 1.581139 
C 0.419323 1.581139 0.821528 1.41454 1.118034 1.118034 
C 1.41454 0.821528 1.581139 0.419323 1.581139 0 
C 1.581139 -0.419323 1.41454 -0.821528 1.118034 -1.118034 
C 0.821528 -1.41454 0.419323 -1.581139 0 -1.581139 
C -0.419323 -1.581139 -0.821528 -1.41454 -1.118034 -1.118034 
C -1.41454 -0.821528 -1.581139 -0.419323 -1.581139 0 
C -1.581139 0.419323 -1.41454 0.821528 -1.118034 1.118034 
C -0.821528 1.41454 -0.419323 1.581139 0 1.581139 
z
" style="stroke: #56b4e9; stroke-opacity: 0.6"/>
    </defs>
    <g clip-path="url(#pfbb6a522d3)">
     <use xlink:href="#ma53adf3d59" x="233.392878" y="28.725215" style="fill: #56b4e9; fill-opacity: 0.6; stroke: #56b4e9; stroke-opacity: 0.6"/>
     <use xlink:href="#ma53adf3d59" x="205.026436" y="41.933399" style="fill: #56b4e9; fill-opacity: 0.6; stroke: #56b4e9; stroke-opacity: 0.6"/>
     <use xlink:href="#ma53adf3d59" x="176.659994" y="59.204015" style="fill: #56b4e9; fill-opacity: 0.6; stroke: #56b4e9; stroke-opacity: 0.6"/>
     <use xlink:href="#ma53adf3d59" x="139.161597" y="83.632706" style="fill: #56b4e9; fill-opacity: 0.6; stroke: #56b4e9; stroke-opacity: 0.6"/>
     <use xlink:href="#ma53adf3d59" x="110.795155" y="98.627275" style="fill: #56b4e9; fill-opacity: 0.6; stroke: #56b4e9; stroke-opacity: 0.6"/>
     <use xlink:href="#ma53adf3d59" x="82.428713" y="109.891224" style="fill: #56b4e9; fill-opacity: 0.6; stroke: #56b4e9; stroke-opacity: 0.6"/>
     <use xlink:href="#ma53adf3d59" x="44.930316" y="120.054522" style="fill: #56b4e9; fill-opacity: 0.6; stroke: #56b4e9; stroke-opacity: 0.6"/>
    </g>
   </g>
   <g id="PathCollection_8">
    <defs>
     <path id="me3f7365648" d="M 0 1.581139 
C 0.419323 1.581139 0.821528 1.41454 1.118034 1.118034 
C 1.41454 0.821528 1.581139 0.419323 1.581139 0 
C 1.581139 -0.419323 1.41454 -0.821528 1.118034 -1.118034 
C 0.821528 -1.41454 0.419323 -1.581139 0 -1.581139 
C -0.419323 -1.581139 -0.821528 -1.41454 -1.118034 -1.118034 
C -1.41454 -0.821528 -1.581139 -0.419323 -1.581139 0 
C -1.581139 0.419323 -1.41454 0.821528 -1.118034 1.118034 
C -0.821528 1.41454 -0.419323 1.581139 0 1.581139 
z
" style="stroke: #f0e442; stroke-opacity: 0.6"/>
    </defs>
    <g clip-path="url(#pfbb6a522d3)">
     <use xlink:href="#me3f7365648" x="233.392878" y="22.778428" style="fill: #f0e442; fill-opacity: 0.6; stroke: #f0e442; stroke-opacity: 0.6"/>
     <use xlink:href="#me3f7365648" x="205.026436" y="30.696054" style="fill: #f0e442; fill-opacity: 0.6; stroke: #f0e442; stroke-opacity: 0.6"/>
     <use xlink:href="#me3f7365648" x="176.659994" y="44.013671" style="fill: #f0e442; fill-opacity: 0.6; stroke: #f0e442; stroke-opacity: 0.6"/>
     <use xlink:href="#me3f7365648" x="139.161597" y="66.277833" style="fill: #f0e442; fill-opacity: 0.6; stroke: #f0e442; stroke-opacity: 0.6"/>
     <use xlink:href="#me3f7365648" x="110.795155" y="80.274619" style="fill: #f0e442; fill-opacity: 0.6; stroke: #f0e442; stroke-opacity: 0.6"/>
     <use xlink:href="#me3f7365648" x="82.428713" y="92.339602" style="fill: #f0e442; fill-opacity: 0.6; stroke: #f0e442; stroke-opacity: 0.6"/>
     <use xlink:href="#me3f7365648" x="44.930316" y="104.34129" style="fill: #f0e442; fill-opacity: 0.6; stroke: #f0e442; stroke-opacity: 0.6"/>
    </g>
   </g>
   <g id="PathCollection_9">
    <g clip-path="url(#pfbb6a522d3)">
     <use xlink:href="#m537558eb6f" x="233.392878" y="27.519825" style="fill: #e69f00; fill-opacity: 0.6; stroke: #e69f00; stroke-opacity: 0.6"/>
     <use xlink:href="#m537558eb6f" x="205.026436" y="39.875393" style="fill: #e69f00; fill-opacity: 0.6; stroke: #e69f00; stroke-opacity: 0.6"/>
     <use xlink:href="#m537558eb6f" x="176.659994" y="57.328413" style="fill: #e69f00; fill-opacity: 0.6; stroke: #e69f00; stroke-opacity: 0.6"/>
     <use xlink:href="#m537558eb6f" x="139.161597" y="81.642719" style="fill: #e69f00; fill-opacity: 0.6; stroke: #e69f00; stroke-opacity: 0.6"/>
     <use xlink:href="#m537558eb6f" x="110.795155" y="96.879604" style="fill: #e69f00; fill-opacity: 0.6; stroke: #e69f00; stroke-opacity: 0.6"/>
     <use xlink:href="#m537558eb6f" x="82.428713" y="108.246389" style="fill: #e69f00; fill-opacity: 0.6; stroke: #e69f00; stroke-opacity: 0.6"/>
     <use xlink:href="#m537558eb6f" x="44.930316" y="117.909561" style="fill: #e69f00; fill-opacity: 0.6; stroke: #e69f00; stroke-opacity: 0.6"/>
    </g>
   </g>
   <g id="PathCollection_10">
    <g clip-path="url(#pfbb6a522d3)">
     <use xlink:href="#ma53adf3d59" x="233.392878" y="59.960722" style="fill: #56b4e9; fill-opacity: 0.6; stroke: #56b4e9; stroke-opacity: 0.6"/>
     <use xlink:href="#ma53adf3d59" x="205.026436" y="78.697931" style="fill: #56b4e9; fill-opacity: 0.6; stroke: #56b4e9; stroke-opacity: 0.6"/>
     <use xlink:href="#ma53adf3d59" x="176.659994" y="98.292882" style="fill: #56b4e9; fill-opacity: 0.6; stroke: #56b4e9; stroke-opacity: 0.6"/>
     <use xlink:href="#ma53adf3d59" x="139.161597" y="122.143524" style="fill: #56b4e9; fill-opacity: 0.6; stroke: #56b4e9; stroke-opacity: 0.6"/>
     <use xlink:href="#ma53adf3d59" x="110.795155" y="133.186974" style="fill: #56b4e9; fill-opacity: 0.6; stroke: #56b4e9; stroke-opacity: 0.6"/>
     <use xlink:href="#ma53adf3d59" x="82.428713" y="138.456657" style="fill: #56b4e9; fill-opacity: 0.6; stroke: #56b4e9; stroke-opacity: 0.6"/>
     <use xlink:href="#ma53adf3d59" x="44.930316" y="139.750645" style="fill: #56b4e9; fill-opacity: 0.6; stroke: #56b4e9; stroke-opacity: 0.6"/>
    </g>
   </g>
   <g id="matplotlib.axis_1">
    <g id="xtick_1">
     <g id="line2d_1">
      <path d="M 73.296758 157.366614 
L 73.296758 7.2 
" clip-path="url(#pfbb6a522d3)" style="fill: none; stroke-dasharray: 1.85,0.8; stroke-dashoffset: 0; stroke: #b0b0b0; stroke-opacity: 0.3; stroke-width: 0.5"/>
     </g>
     <g id="line2d_2">
      <defs>
       <path id="maa44f84651" d="M 0 0 
L 0 3.5 
" style="stroke: #000000; stroke-width: 0.8"/>
      </defs>
      <g>
       <use xlink:href="#maa44f84651" x="73.296758" y="157.366614" style="stroke: #000000; stroke-width: 0.8"/>
      </g>
     </g>
     <g id="text_1">
      <!-- 100 -->
      <g transform="translate(68.291914 168.661302) scale(0.06 -0.06)">
       <defs>
        <path id="ArialMT-31" d="M 2384 0 
L 1822 0 
L 1822 3584 
Q 1619 3391 1289 3197 
Q 959 3003 697 2906 
L 697 3450 
Q 1169 3672 1522 3987 
Q 1875 4303 2022 4600 
L 2384 4600 
L 2384 0 
z
" transform="scale(0.015625)"/>
        <path id="ArialMT-30" d="M 266 2259 
Q 266 3072 433 3567 
Q 600 4063 929 4331 
Q 1259 4600 1759 4600 
Q 2128 4600 2406 4451 
Q 2684 4303 2865 4023 
Q 3047 3744 3150 3342 
Q 3253 2941 3253 2259 
Q 3253 1453 3087 958 
Q 2922 463 2592 192 
Q 2263 -78 1759 -78 
Q 1097 -78 719 397 
Q 266 969 266 2259 
z
M 844 2259 
Q 844 1131 1108 757 
Q 1372 384 1759 384 
Q 2147 384 2411 759 
Q 2675 1134 2675 2259 
Q 2675 3391 2411 3762 
Q 2147 4134 1753 4134 
Q 1366 4134 1134 3806 
Q 844 3388 844 2259 
z
" transform="scale(0.015625)"/>
       </defs>
       <use xlink:href="#ArialMT-31"/>
       <use xlink:href="#ArialMT-30" x="55.615234"/>
       <use xlink:href="#ArialMT-30" x="111.230469"/>
      </g>
     </g>
    </g>
    <g id="xtick_2">
     <g id="line2d_3">
      <path d="M 167.528039 157.366614 
L 167.528039 7.2 
" clip-path="url(#pfbb6a522d3)" style="fill: none; stroke-dasharray: 1.85,0.8; stroke-dashoffset: 0; stroke: #b0b0b0; stroke-opacity: 0.3; stroke-width: 0.5"/>
     </g>
     <g id="line2d_4">
      <g>
       <use xlink:href="#maa44f84651" x="167.528039" y="157.366614" style="stroke: #000000; stroke-width: 0.8"/>
      </g>
     </g>
     <g id="text_2">
      <!-- 1000 -->
      <g transform="translate(160.854914 168.661302) scale(0.06 -0.06)">
       <use xlink:href="#ArialMT-31"/>
       <use xlink:href="#ArialMT-30" x="55.615234"/>
       <use xlink:href="#ArialMT-30" x="111.230469"/>
       <use xlink:href="#ArialMT-30" x="166.845703"/>
      </g>
     </g>
    </g>
    <g id="xtick_3">
     <g id="line2d_5">
      <path d="M 35.798361 157.366614 
L 35.798361 7.2 
" clip-path="url(#pfbb6a522d3)" style="fill: none; stroke-dasharray: 1.85,0.8; stroke-dashoffset: 0; stroke: #b0b0b0; stroke-opacity: 0.3; stroke-width: 0.5"/>
     </g>
     <g id="line2d_6">
      <defs>
       <path id="m4eddc961a1" d="M 0 0 
L 0 2 
" style="stroke: #000000; stroke-width: 0.6"/>
      </defs>
      <g>
       <use xlink:href="#m4eddc961a1" x="35.798361" y="157.366614" style="stroke: #000000; stroke-width: 0.6"/>
      </g>
     </g>
    </g>
    <g id="xtick_4">
     <g id="line2d_7">
      <path d="M 44.930316 157.366614 
L 44.930316 7.2 
" clip-path="url(#pfbb6a522d3)" style="fill: none; stroke-dasharray: 1.85,0.8; stroke-dashoffset: 0; stroke: #b0b0b0; stroke-opacity: 0.3; stroke-width: 0.5"/>
     </g>
     <g id="line2d_8">
      <g>
       <use xlink:href="#m4eddc961a1" x="44.930316" y="157.366614" style="stroke: #000000; stroke-width: 0.6"/>
      </g>
     </g>
    </g>
    <g id="xtick_5">
     <g id="line2d_9">
      <path d="M 52.391666 157.366614 
L 52.391666 7.2 
" clip-path="url(#pfbb6a522d3)" style="fill: none; stroke-dasharray: 1.85,0.8; stroke-dashoffset: 0; stroke: #b0b0b0; stroke-opacity: 0.3; stroke-width: 0.5"/>
     </g>
     <g id="line2d_10">
      <g>
       <use xlink:href="#m4eddc961a1" x="52.391666" y="157.366614" style="stroke: #000000; stroke-width: 0.6"/>
      </g>
     </g>
    </g>
    <g id="xtick_6">
     <g id="line2d_11">
      <path d="M 58.700148 157.366614 
L 58.700148 7.2 
" clip-path="url(#pfbb6a522d3)" style="fill: none; stroke-dasharray: 1.85,0.8; stroke-dashoffset: 0; stroke: #b0b0b0; stroke-opacity: 0.3; stroke-width: 0.5"/>
     </g>
     <g id="line2d_12">
      <g>
       <use xlink:href="#m4eddc961a1" x="58.700148" y="157.366614" style="stroke: #000000; stroke-width: 0.6"/>
      </g>
     </g>
    </g>
    <g id="xtick_7">
     <g id="line2d_13">
      <path d="M 64.164803 157.366614 
L 64.164803 7.2 
" clip-path="url(#pfbb6a522d3)" style="fill: none; stroke-dasharray: 1.85,0.8; stroke-dashoffset: 0; stroke: #b0b0b0; stroke-opacity: 0.3; stroke-width: 0.5"/>
     </g>
     <g id="line2d_14">
      <g>
       <use xlink:href="#m4eddc961a1" x="64.164803" y="157.366614" style="stroke: #000000; stroke-width: 0.6"/>
      </g>
     </g>
    </g>
    <g id="xtick_8">
     <g id="line2d_15">
      <path d="M 68.984971 157.366614 
L 68.984971 7.2 
" clip-path="url(#pfbb6a522d3)" style="fill: none; stroke-dasharray: 1.85,0.8; stroke-dashoffset: 0; stroke: #b0b0b0; stroke-opacity: 0.3; stroke-width: 0.5"/>
     </g>
     <g id="line2d_16">
      <g>
       <use xlink:href="#m4eddc961a1" x="68.984971" y="157.366614" style="stroke: #000000; stroke-width: 0.6"/>
      </g>
     </g>
    </g>
    <g id="xtick_9">
     <g id="line2d_17">
      <path d="M 101.6632 157.366614 
L 101.6632 7.2 
" clip-path="url(#pfbb6a522d3)" style="fill: none; stroke-dasharray: 1.85,0.8; stroke-dashoffset: 0; stroke: #b0b0b0; stroke-opacity: 0.3; stroke-width: 0.5"/>
     </g>
     <g id="line2d_18">
      <g>
       <use xlink:href="#m4eddc961a1" x="101.6632" y="157.366614" style="stroke: #000000; stroke-width: 0.6"/>
      </g>
     </g>
    </g>
    <g id="xtick_10">
     <g id="line2d_19">
      <path d="M 118.256505 157.366614 
L 118.256505 7.2 
" clip-path="url(#pfbb6a522d3)" style="fill: none; stroke-dasharray: 1.85,0.8; stroke-dashoffset: 0; stroke: #b0b0b0; stroke-opacity: 0.3; stroke-width: 0.5"/>
     </g>
     <g id="line2d_20">
      <g>
       <use xlink:href="#m4eddc961a1" x="118.256505" y="157.366614" style="stroke: #000000; stroke-width: 0.6"/>
      </g>
     </g>
    </g>
    <g id="xtick_11">
     <g id="line2d_21">
      <path d="M 130.029642 157.366614 
L 130.029642 7.2 
" clip-path="url(#pfbb6a522d3)" style="fill: none; stroke-dasharray: 1.85,0.8; stroke-dashoffset: 0; stroke: #b0b0b0; stroke-opacity: 0.3; stroke-width: 0.5"/>
     </g>
     <g id="line2d_22">
      <g>
       <use xlink:href="#m4eddc961a1" x="130.029642" y="157.366614" style="stroke: #000000; stroke-width: 0.6"/>
      </g>
     </g>
    </g>
    <g id="xtick_12">
     <g id="line2d_23">
      <path d="M 139.161597 157.366614 
L 139.161597 7.2 
" clip-path="url(#pfbb6a522d3)" style="fill: none; stroke-dasharray: 1.85,0.8; stroke-dashoffset: 0; stroke: #b0b0b0; stroke-opacity: 0.3; stroke-width: 0.5"/>
     </g>
     <g id="line2d_24">
      <g>
       <use xlink:href="#m4eddc961a1" x="139.161597" y="157.366614" style="stroke: #000000; stroke-width: 0.6"/>
      </g>
     </g>
    </g>
    <g id="xtick_13">
     <g id="line2d_25">
      <path d="M 146.622947 157.366614 
L 146.622947 7.2 
" clip-path="url(#pfbb6a522d3)" style="fill: none; stroke-dasharray: 1.85,0.8; stroke-dashoffset: 0; stroke: #b0b0b0; stroke-opacity: 0.3; stroke-width: 0.5"/>
     </g>
     <g id="line2d_26">
      <g>
       <use xlink:href="#m4eddc961a1" x="146.622947" y="157.366614" style="stroke: #000000; stroke-width: 0.6"/>
      </g>
     </g>
    </g>
    <g id="xtick_14">
     <g id="line2d_27">
      <path d="M 152.931429 157.366614 
L 152.931429 7.2 
" clip-path="url(#pfbb6a522d3)" style="fill: none; stroke-dasharray: 1.85,0.8; stroke-dashoffset: 0; stroke: #b0b0b0; stroke-opacity: 0.3; stroke-width: 0.5"/>
     </g>
     <g id="line2d_28">
      <g>
       <use xlink:href="#m4eddc961a1" x="152.931429" y="157.366614" style="stroke: #000000; stroke-width: 0.6"/>
      </g>
     </g>
    </g>
    <g id="xtick_15">
     <g id="line2d_29">
      <path d="M 158.396084 157.366614 
L 158.396084 7.2 
" clip-path="url(#pfbb6a522d3)" style="fill: none; stroke-dasharray: 1.85,0.8; stroke-dashoffset: 0; stroke: #b0b0b0; stroke-opacity: 0.3; stroke-width: 0.5"/>
     </g>
     <g id="line2d_30">
      <g>
       <use xlink:href="#m4eddc961a1" x="158.396084" y="157.366614" style="stroke: #000000; stroke-width: 0.6"/>
      </g>
     </g>
    </g>
    <g id="xtick_16">
     <g id="line2d_31">
      <path d="M 163.216252 157.366614 
L 163.216252 7.2 
" clip-path="url(#pfbb6a522d3)" style="fill: none; stroke-dasharray: 1.85,0.8; stroke-dashoffset: 0; stroke: #b0b0b0; stroke-opacity: 0.3; stroke-width: 0.5"/>
     </g>
     <g id="line2d_32">
      <g>
       <use xlink:href="#m4eddc961a1" x="163.216252" y="157.366614" style="stroke: #000000; stroke-width: 0.6"/>
      </g>
     </g>
    </g>
    <g id="xtick_17">
     <g id="line2d_33">
      <path d="M 195.894481 157.366614 
L 195.894481 7.2 
" clip-path="url(#pfbb6a522d3)" style="fill: none; stroke-dasharray: 1.85,0.8; stroke-dashoffset: 0; stroke: #b0b0b0; stroke-opacity: 0.3; stroke-width: 0.5"/>
     </g>
     <g id="line2d_34">
      <g>
       <use xlink:href="#m4eddc961a1" x="195.894481" y="157.366614" style="stroke: #000000; stroke-width: 0.6"/>
      </g>
     </g>
    </g>
    <g id="xtick_18">
     <g id="line2d_35">
      <path d="M 212.487786 157.366614 
L 212.487786 7.2 
" clip-path="url(#pfbb6a522d3)" style="fill: none; stroke-dasharray: 1.85,0.8; stroke-dashoffset: 0; stroke: #b0b0b0; stroke-opacity: 0.3; stroke-width: 0.5"/>
     </g>
     <g id="line2d_36">
      <g>
       <use xlink:href="#m4eddc961a1" x="212.487786" y="157.366614" style="stroke: #000000; stroke-width: 0.6"/>
      </g>
     </g>
    </g>
    <g id="xtick_19">
     <g id="line2d_37">
      <path d="M 224.260924 157.366614 
L 224.260924 7.2 
" clip-path="url(#pfbb6a522d3)" style="fill: none; stroke-dasharray: 1.85,0.8; stroke-dashoffset: 0; stroke: #b0b0b0; stroke-opacity: 0.3; stroke-width: 0.5"/>
     </g>
     <g id="line2d_38">
      <g>
       <use xlink:href="#m4eddc961a1" x="224.260924" y="157.366614" style="stroke: #000000; stroke-width: 0.6"/>
      </g>
     </g>
    </g>
    <g id="xtick_20">
     <g id="line2d_39">
      <path d="M 233.392878 157.366614 
L 233.392878 7.2 
" clip-path="url(#pfbb6a522d3)" style="fill: none; stroke-dasharray: 1.85,0.8; stroke-dashoffset: 0; stroke: #b0b0b0; stroke-opacity: 0.3; stroke-width: 0.5"/>
     </g>
     <g id="line2d_40">
      <g>
       <use xlink:href="#m4eddc961a1" x="233.392878" y="157.366614" style="stroke: #000000; stroke-width: 0.6"/>
      </g>
     </g>
    </g>
    <g id="xtick_21">
     <g id="line2d_41">
      <path d="M 240.854229 157.366614 
L 240.854229 7.2 
" clip-path="url(#pfbb6a522d3)" style="fill: none; stroke-dasharray: 1.85,0.8; stroke-dashoffset: 0; stroke: #b0b0b0; stroke-opacity: 0.3; stroke-width: 0.5"/>
     </g>
     <g id="line2d_42">
      <g>
       <use xlink:href="#m4eddc961a1" x="240.854229" y="157.366614" style="stroke: #000000; stroke-width: 0.6"/>
      </g>
     </g>
    </g>
    <g id="text_3">
     <!-- Concentration (pg/ml) -->
     <g transform="translate(110.318003 178.221614) scale(0.06 -0.06)">
      <defs>
       <path id="ArialMT-43" d="M 3763 1606 
L 4369 1453 
Q 4178 706 3683 314 
Q 3188 -78 2472 -78 
Q 1731 -78 1267 223 
Q 803 525 561 1097 
Q 319 1669 319 2325 
Q 319 3041 592 3573 
Q 866 4106 1370 4382 
Q 1875 4659 2481 4659 
Q 3169 4659 3637 4309 
Q 4106 3959 4291 3325 
L 3694 3184 
Q 3534 3684 3231 3912 
Q 2928 4141 2469 4141 
Q 1941 4141 1586 3887 
Q 1231 3634 1087 3207 
Q 944 2781 944 2328 
Q 944 1744 1114 1308 
Q 1284 872 1643 656 
Q 2003 441 2422 441 
Q 2931 441 3284 734 
Q 3638 1028 3763 1606 
z
" transform="scale(0.015625)"/>
       <path id="ArialMT-6f" d="M 213 1659 
Q 213 2581 725 3025 
Q 1153 3394 1769 3394 
Q 2453 3394 2887 2945 
Q 3322 2497 3322 1706 
Q 3322 1066 3130 698 
Q 2938 331 2570 128 
Q 2203 -75 1769 -75 
Q 1072 -75 642 372 
Q 213 819 213 1659 
z
M 791 1659 
Q 791 1022 1069 705 
Q 1347 388 1769 388 
Q 2188 388 2466 706 
Q 2744 1025 2744 1678 
Q 2744 2294 2464 2611 
Q 2184 2928 1769 2928 
Q 1347 2928 1069 2612 
Q 791 2297 791 1659 
z
" transform="scale(0.015625)"/>
       <path id="ArialMT-6e" d="M 422 0 
L 422 3319 
L 928 3319 
L 928 2847 
Q 1294 3394 1984 3394 
Q 2284 3394 2536 3286 
Q 2788 3178 2913 3003 
Q 3038 2828 3088 2588 
Q 3119 2431 3119 2041 
L 3119 0 
L 2556 0 
L 2556 2019 
Q 2556 2363 2490 2533 
Q 2425 2703 2258 2804 
Q 2091 2906 1866 2906 
Q 1506 2906 1245 2678 
Q 984 2450 984 1813 
L 984 0 
L 422 0 
z
" transform="scale(0.015625)"/>
       <path id="ArialMT-63" d="M 2588 1216 
L 3141 1144 
Q 3050 572 2676 248 
Q 2303 -75 1759 -75 
Q 1078 -75 664 370 
Q 250 816 250 1647 
Q 250 2184 428 2587 
Q 606 2991 970 3192 
Q 1334 3394 1763 3394 
Q 2303 3394 2647 3120 
Q 2991 2847 3088 2344 
L 2541 2259 
Q 2463 2594 2264 2762 
Q 2066 2931 1784 2931 
Q 1359 2931 1093 2626 
Q 828 2322 828 1663 
Q 828 994 1084 691 
Q 1341 388 1753 388 
Q 2084 388 2306 591 
Q 2528 794 2588 1216 
z
" transform="scale(0.015625)"/>
       <path id="ArialMT-65" d="M 2694 1069 
L 3275 997 
Q 3138 488 2766 206 
Q 2394 -75 1816 -75 
Q 1088 -75 661 373 
Q 234 822 234 1631 
Q 234 2469 665 2931 
Q 1097 3394 1784 3394 
Q 2450 3394 2872 2941 
Q 3294 2488 3294 1666 
Q 3294 1616 3291 1516 
L 816 1516 
Q 847 969 1125 678 
Q 1403 388 1819 388 
Q 2128 388 2347 550 
Q 2566 713 2694 1069 
z
M 847 1978 
L 2700 1978 
Q 2663 2397 2488 2606 
Q 2219 2931 1791 2931 
Q 1403 2931 1139 2672 
Q 875 2413 847 1978 
z
" transform="scale(0.015625)"/>
       <path id="ArialMT-74" d="M 1650 503 
L 1731 6 
Q 1494 -44 1306 -44 
Q 1000 -44 831 53 
Q 663 150 594 308 
Q 525 466 525 972 
L 525 2881 
L 113 2881 
L 113 3319 
L 525 3319 
L 525 4141 
L 1084 4478 
L 1084 3319 
L 1650 3319 
L 1650 2881 
L 1084 2881 
L 1084 941 
Q 1084 700 1114 631 
Q 1144 563 1211 522 
Q 1278 481 1403 481 
Q 1497 481 1650 503 
z
" transform="scale(0.015625)"/>
       <path id="ArialMT-72" d="M 416 0 
L 416 3319 
L 922 3319 
L 922 2816 
Q 1116 3169 1280 3281 
Q 1444 3394 1641 3394 
Q 1925 3394 2219 3213 
L 2025 2691 
Q 1819 2813 1613 2813 
Q 1428 2813 1281 2702 
Q 1134 2591 1072 2394 
Q 978 2094 978 1738 
L 978 0 
L 416 0 
z
" transform="scale(0.015625)"/>
       <path id="ArialMT-61" d="M 2588 409 
Q 2275 144 1986 34 
Q 1697 -75 1366 -75 
Q 819 -75 525 192 
Q 231 459 231 875 
Q 231 1119 342 1320 
Q 453 1522 633 1644 
Q 813 1766 1038 1828 
Q 1203 1872 1538 1913 
Q 2219 1994 2541 2106 
Q 2544 2222 2544 2253 
Q 2544 2597 2384 2738 
Q 2169 2928 1744 2928 
Q 1347 2928 1158 2789 
Q 969 2650 878 2297 
L 328 2372 
Q 403 2725 575 2942 
Q 747 3159 1072 3276 
Q 1397 3394 1825 3394 
Q 2250 3394 2515 3294 
Q 2781 3194 2906 3042 
Q 3031 2891 3081 2659 
Q 3109 2516 3109 2141 
L 3109 1391 
Q 3109 606 3145 398 
Q 3181 191 3288 0 
L 2700 0 
Q 2613 175 2588 409 
z
M 2541 1666 
Q 2234 1541 1622 1453 
Q 1275 1403 1131 1340 
Q 988 1278 909 1158 
Q 831 1038 831 891 
Q 831 666 1001 516 
Q 1172 366 1500 366 
Q 1825 366 2078 508 
Q 2331 650 2450 897 
Q 2541 1088 2541 1459 
L 2541 1666 
z
" transform="scale(0.015625)"/>
       <path id="ArialMT-69" d="M 425 3934 
L 425 4581 
L 988 4581 
L 988 3934 
L 425 3934 
z
M 425 0 
L 425 3319 
L 988 3319 
L 988 0 
L 425 0 
z
" transform="scale(0.015625)"/>
       <path id="ArialMT-20" transform="scale(0.015625)"/>
       <path id="ArialMT-28" d="M 1497 -1347 
Q 1031 -759 709 28 
Q 388 816 388 1659 
Q 388 2403 628 3084 
Q 909 3875 1497 4659 
L 1900 4659 
Q 1522 4009 1400 3731 
Q 1209 3300 1100 2831 
Q 966 2247 966 1656 
Q 966 153 1900 -1347 
L 1497 -1347 
z
" transform="scale(0.015625)"/>
       <path id="ArialMT-70" d="M 422 -1272 
L 422 3319 
L 934 3319 
L 934 2888 
Q 1116 3141 1344 3267 
Q 1572 3394 1897 3394 
Q 2322 3394 2647 3175 
Q 2972 2956 3137 2557 
Q 3303 2159 3303 1684 
Q 3303 1175 3120 767 
Q 2938 359 2589 142 
Q 2241 -75 1856 -75 
Q 1575 -75 1351 44 
Q 1128 163 984 344 
L 984 -1272 
L 422 -1272 
z
M 931 1641 
Q 931 1000 1190 694 
Q 1450 388 1819 388 
Q 2194 388 2461 705 
Q 2728 1022 2728 1688 
Q 2728 2322 2467 2637 
Q 2206 2953 1844 2953 
Q 1484 2953 1207 2617 
Q 931 2281 931 1641 
z
" transform="scale(0.015625)"/>
       <path id="ArialMT-67" d="M 319 -275 
L 866 -356 
Q 900 -609 1056 -725 
Q 1266 -881 1628 -881 
Q 2019 -881 2231 -725 
Q 2444 -569 2519 -288 
Q 2563 -116 2559 434 
Q 2191 0 1641 0 
Q 956 0 581 494 
Q 206 988 206 1678 
Q 206 2153 378 2554 
Q 550 2956 876 3175 
Q 1203 3394 1644 3394 
Q 2231 3394 2613 2919 
L 2613 3319 
L 3131 3319 
L 3131 450 
Q 3131 -325 2973 -648 
Q 2816 -972 2473 -1159 
Q 2131 -1347 1631 -1347 
Q 1038 -1347 672 -1080 
Q 306 -813 319 -275 
z
M 784 1719 
Q 784 1066 1043 766 
Q 1303 466 1694 466 
Q 2081 466 2343 764 
Q 2606 1063 2606 1700 
Q 2606 2309 2336 2618 
Q 2066 2928 1684 2928 
Q 1309 2928 1046 2623 
Q 784 2319 784 1719 
z
" transform="scale(0.015625)"/>
       <path id="ArialMT-2f" d="M 0 -78 
L 1328 4659 
L 1778 4659 
L 453 -78 
L 0 -78 
z
" transform="scale(0.015625)"/>
       <path id="ArialMT-6d" d="M 422 0 
L 422 3319 
L 925 3319 
L 925 2853 
Q 1081 3097 1340 3245 
Q 1600 3394 1931 3394 
Q 2300 3394 2536 3241 
Q 2772 3088 2869 2813 
Q 3263 3394 3894 3394 
Q 4388 3394 4653 3120 
Q 4919 2847 4919 2278 
L 4919 0 
L 4359 0 
L 4359 2091 
Q 4359 2428 4304 2576 
Q 4250 2725 4106 2815 
Q 3963 2906 3769 2906 
Q 3419 2906 3187 2673 
Q 2956 2441 2956 1928 
L 2956 0 
L 2394 0 
L 2394 2156 
Q 2394 2531 2256 2718 
Q 2119 2906 1806 2906 
Q 1569 2906 1367 2781 
Q 1166 2656 1075 2415 
Q 984 2175 984 1722 
L 984 0 
L 422 0 
z
" transform="scale(0.015625)"/>
       <path id="ArialMT-6c" d="M 409 0 
L 409 4581 
L 972 4581 
L 972 0 
L 409 0 
z
" transform="scale(0.015625)"/>
       <path id="ArialMT-29" d="M 791 -1347 
L 388 -1347 
Q 1322 153 1322 1656 
Q 1322 2244 1188 2822 
Q 1081 3291 891 3722 
Q 769 4003 388 4659 
L 791 4659 
Q 1378 3875 1659 3084 
Q 1900 2403 1900 1659 
Q 1900 816 1576 28 
Q 1253 -759 791 -1347 
z
" transform="scale(0.015625)"/>
      </defs>
      <use xlink:href="#ArialMT-43"/>
      <use xlink:href="#ArialMT-6f" x="72.216797"/>
      <use xlink:href="#ArialMT-6e" x="127.832031"/>
      <use xlink:href="#ArialMT-63" x="183.447266"/>
      <use xlink:href="#ArialMT-65" x="233.447266"/>
      <use xlink:href="#ArialMT-6e" x="289.0625"/>
      <use xlink:href="#ArialMT-74" x="344.677734"/>
      <use xlink:href="#ArialMT-72" x="372.460938"/>
      <use xlink:href="#ArialMT-61" x="405.761719"/>
      <use xlink:href="#ArialMT-74" x="461.376953"/>
      <use xlink:href="#ArialMT-69" x="489.160156"/>
      <use xlink:href="#ArialMT-6f" x="511.376953"/>
      <use xlink:href="#ArialMT-6e" x="566.992188"/>
      <use xlink:href="#ArialMT-20" x="622.607422"/>
      <use xlink:href="#ArialMT-28" x="650.390625"/>
      <use xlink:href="#ArialMT-70" x="683.691406"/>
      <use xlink:href="#ArialMT-67" x="739.306641"/>
      <use xlink:href="#ArialMT-2f" x="794.921875"/>
      <use xlink:href="#ArialMT-6d" x="822.705078"/>
      <use xlink:href="#ArialMT-6c" x="906.005859"/>
      <use xlink:href="#ArialMT-29" x="928.222656"/>
     </g>
    </g>
   </g>
   <g id="matplotlib.axis_2">
    <g id="ytick_1">
     <g id="line2d_43">
      <path d="M 35.507188 157.064724 
L 242.816006 157.064724 
" clip-path="url(#pfbb6a522d3)" style="fill: none; stroke-dasharray: 1.85,0.8; stroke-dashoffset: 0; stroke: #b0b0b0; stroke-opacity: 0.3; stroke-width: 0.5"/>
     </g>
     <g id="line2d_44">
      <defs>
       <path id="m43ee5a6cc8" d="M 0 0 
L -3.5 0 
" style="stroke: #000000; stroke-width: 0.8"/>
      </defs>
      <g>
       <use xlink:href="#m43ee5a6cc8" x="35.507188" y="157.064724" style="stroke: #000000; stroke-width: 0.8"/>
      </g>
     </g>
     <g id="text_4">
      <!-- 0.01 -->
      <g transform="translate(16.830625 159.212068) scale(0.06 -0.06)">
       <defs>
        <path id="ArialMT-2e" d="M 581 0 
L 581 641 
L 1222 641 
L 1222 0 
L 581 0 
z
" transform="scale(0.015625)"/>
       </defs>
       <use xlink:href="#ArialMT-30"/>
       <use xlink:href="#ArialMT-2e" x="55.615234"/>
       <use xlink:href="#ArialMT-30" x="83.398438"/>
       <use xlink:href="#ArialMT-31" x="139.013672"/>
      </g>
     </g>
    </g>
    <g id="ytick_2">
     <g id="line2d_45">
      <path d="M 35.507188 101.538088 
L 242.816006 101.538088 
" clip-path="url(#pfbb6a522d3)" style="fill: none; stroke-dasharray: 1.85,0.8; stroke-dashoffset: 0; stroke: #b0b0b0; stroke-opacity: 0.3; stroke-width: 0.5"/>
     </g>
     <g id="line2d_46">
      <g>
       <use xlink:href="#m43ee5a6cc8" x="35.507188" y="101.538088" style="stroke: #000000; stroke-width: 0.8"/>
      </g>
     </g>
     <g id="text_5">
      <!-- 0.10 -->
      <g transform="translate(16.830625 103.685432) scale(0.06 -0.06)">
       <use xlink:href="#ArialMT-30"/>
       <use xlink:href="#ArialMT-2e" x="55.615234"/>
       <use xlink:href="#ArialMT-31" x="83.398438"/>
       <use xlink:href="#ArialMT-30" x="139.013672"/>
      </g>
     </g>
    </g>
    <g id="ytick_3">
     <g id="line2d_47">
      <path d="M 35.507188 46.011453 
L 242.816006 46.011453 
" clip-path="url(#pfbb6a522d3)" style="fill: none; stroke-dasharray: 1.85,0.8; stroke-dashoffset: 0; stroke: #b0b0b0; stroke-opacity: 0.3; stroke-width: 0.5"/>
     </g>
     <g id="line2d_48">
      <g>
       <use xlink:href="#m43ee5a6cc8" x="35.507188" y="46.011453" style="stroke: #000000; stroke-width: 0.8"/>
      </g>
     </g>
     <g id="text_6">
      <!-- 1.00 -->
      <g transform="translate(16.830625 48.158797) scale(0.06 -0.06)">
       <use xlink:href="#ArialMT-31"/>
       <use xlink:href="#ArialMT-2e" x="55.615234"/>
       <use xlink:href="#ArialMT-30" x="83.398438"/>
       <use xlink:href="#ArialMT-30" x="139.013672"/>
      </g>
     </g>
    </g>
    <g id="ytick_4">
     <g id="line2d_49">
      <path d="M 35.507188 140.349541 
L 242.816006 140.349541 
" clip-path="url(#pfbb6a522d3)" style="fill: none; stroke-dasharray: 1.85,0.8; stroke-dashoffset: 0; stroke: #b0b0b0; stroke-opacity: 0.3; stroke-width: 0.5"/>
     </g>
     <g id="line2d_50">
      <defs>
       <path id="m4bbe961529" d="M 0 0 
L -2 0 
" style="stroke: #000000; stroke-width: 0.6"/>
      </defs>
      <g>
       <use xlink:href="#m4bbe961529" x="35.507188" y="140.349541" style="stroke: #000000; stroke-width: 0.6"/>
      </g>
     </g>
    </g>
    <g id="ytick_5">
     <g id="line2d_51">
      <path d="M 35.507188 130.571786 
L 242.816006 130.571786 
" clip-path="url(#pfbb6a522d3)" style="fill: none; stroke-dasharray: 1.85,0.8; stroke-dashoffset: 0; stroke: #b0b0b0; stroke-opacity: 0.3; stroke-width: 0.5"/>
     </g>
     <g id="line2d_52">
      <g>
       <use xlink:href="#m4bbe961529" x="35.507188" y="130.571786" style="stroke: #000000; stroke-width: 0.6"/>
      </g>
     </g>
    </g>
    <g id="ytick_6">
     <g id="line2d_53">
      <path d="M 35.507188 123.634358 
L 242.816006 123.634358 
" clip-path="url(#pfbb6a522d3)" style="fill: none; stroke-dasharray: 1.85,0.8; stroke-dashoffset: 0; stroke: #b0b0b0; stroke-opacity: 0.3; stroke-width: 0.5"/>
     </g>
     <g id="line2d_54">
      <g>
       <use xlink:href="#m4bbe961529" x="35.507188" y="123.634358" style="stroke: #000000; stroke-width: 0.6"/>
      </g>
     </g>
    </g>
    <g id="ytick_7">
     <g id="line2d_55">
      <path d="M 35.507188 118.253271 
L 242.816006 118.253271 
" clip-path="url(#pfbb6a522d3)" style="fill: none; stroke-dasharray: 1.85,0.8; stroke-dashoffset: 0; stroke: #b0b0b0; stroke-opacity: 0.3; stroke-width: 0.5"/>
     </g>
     <g id="line2d_56">
      <g>
       <use xlink:href="#m4bbe961529" x="35.507188" y="118.253271" style="stroke: #000000; stroke-width: 0.6"/>
      </g>
     </g>
    </g>
    <g id="ytick_8">
     <g id="line2d_57">
      <path d="M 35.507188 113.856603 
L 242.816006 113.856603 
" clip-path="url(#pfbb6a522d3)" style="fill: none; stroke-dasharray: 1.85,0.8; stroke-dashoffset: 0; stroke: #b0b0b0; stroke-opacity: 0.3; stroke-width: 0.5"/>
     </g>
     <g id="line2d_58">
      <g>
       <use xlink:href="#m4bbe961529" x="35.507188" y="113.856603" style="stroke: #000000; stroke-width: 0.6"/>
      </g>
     </g>
    </g>
    <g id="ytick_9">
     <g id="line2d_59">
      <path d="M 35.507188 110.139273 
L 242.816006 110.139273 
" clip-path="url(#pfbb6a522d3)" style="fill: none; stroke-dasharray: 1.85,0.8; stroke-dashoffset: 0; stroke: #b0b0b0; stroke-opacity: 0.3; stroke-width: 0.5"/>
     </g>
     <g id="line2d_60">
      <g>
       <use xlink:href="#m4bbe961529" x="35.507188" y="110.139273" style="stroke: #000000; stroke-width: 0.6"/>
      </g>
     </g>
    </g>
    <g id="ytick_10">
     <g id="line2d_61">
      <path d="M 35.507188 106.919175 
L 242.816006 106.919175 
" clip-path="url(#pfbb6a522d3)" style="fill: none; stroke-dasharray: 1.85,0.8; stroke-dashoffset: 0; stroke: #b0b0b0; stroke-opacity: 0.3; stroke-width: 0.5"/>
     </g>
     <g id="line2d_62">
      <g>
       <use xlink:href="#m4bbe961529" x="35.507188" y="106.919175" style="stroke: #000000; stroke-width: 0.6"/>
      </g>
     </g>
    </g>
    <g id="ytick_11">
     <g id="line2d_63">
      <path d="M 35.507188 104.078848 
L 242.816006 104.078848 
" clip-path="url(#pfbb6a522d3)" style="fill: none; stroke-dasharray: 1.85,0.8; stroke-dashoffset: 0; stroke: #b0b0b0; stroke-opacity: 0.3; stroke-width: 0.5"/>
     </g>
     <g id="line2d_64">
      <g>
       <use xlink:href="#m4bbe961529" x="35.507188" y="104.078848" style="stroke: #000000; stroke-width: 0.6"/>
      </g>
     </g>
    </g>
    <g id="ytick_12">
     <g id="line2d_65">
      <path d="M 35.507188 84.822906 
L 242.816006 84.822906 
" clip-path="url(#pfbb6a522d3)" style="fill: none; stroke-dasharray: 1.85,0.8; stroke-dashoffset: 0; stroke: #b0b0b0; stroke-opacity: 0.3; stroke-width: 0.5"/>
     </g>
     <g id="line2d_66">
      <g>
       <use xlink:href="#m4bbe961529" x="35.507188" y="84.822906" style="stroke: #000000; stroke-width: 0.6"/>
      </g>
     </g>
    </g>
    <g id="ytick_13">
     <g id="line2d_67">
      <path d="M 35.507188 75.04515 
L 242.816006 75.04515 
" clip-path="url(#pfbb6a522d3)" style="fill: none; stroke-dasharray: 1.85,0.8; stroke-dashoffset: 0; stroke: #b0b0b0; stroke-opacity: 0.3; stroke-width: 0.5"/>
     </g>
     <g id="line2d_68">
      <g>
       <use xlink:href="#m4bbe961529" x="35.507188" y="75.04515" style="stroke: #000000; stroke-width: 0.6"/>
      </g>
     </g>
    </g>
    <g id="ytick_14">
     <g id="line2d_69">
      <path d="M 35.507188 68.107723 
L 242.816006 68.107723 
" clip-path="url(#pfbb6a522d3)" style="fill: none; stroke-dasharray: 1.85,0.8; stroke-dashoffset: 0; stroke: #b0b0b0; stroke-opacity: 0.3; stroke-width: 0.5"/>
     </g>
     <g id="line2d_70">
      <g>
       <use xlink:href="#m4bbe961529" x="35.507188" y="68.107723" style="stroke: #000000; stroke-width: 0.6"/>
      </g>
     </g>
    </g>
    <g id="ytick_15">
     <g id="line2d_71">
      <path d="M 35.507188 62.726636 
L 242.816006 62.726636 
" clip-path="url(#pfbb6a522d3)" style="fill: none; stroke-dasharray: 1.85,0.8; stroke-dashoffset: 0; stroke: #b0b0b0; stroke-opacity: 0.3; stroke-width: 0.5"/>
     </g>
     <g id="line2d_72">
      <g>
       <use xlink:href="#m4bbe961529" x="35.507188" y="62.726636" style="stroke: #000000; stroke-width: 0.6"/>
      </g>
     </g>
    </g>
    <g id="ytick_16">
     <g id="line2d_73">
      <path d="M 35.507188 58.329967 
L 242.816006 58.329967 
" clip-path="url(#pfbb6a522d3)" style="fill: none; stroke-dasharray: 1.85,0.8; stroke-dashoffset: 0; stroke: #b0b0b0; stroke-opacity: 0.3; stroke-width: 0.5"/>
     </g>
     <g id="line2d_74">
      <g>
       <use xlink:href="#m4bbe961529" x="35.507188" y="58.329967" style="stroke: #000000; stroke-width: 0.6"/>
      </g>
     </g>
    </g>
    <g id="ytick_17">
     <g id="line2d_75">
      <path d="M 35.507188 54.612637 
L 242.816006 54.612637 
" clip-path="url(#pfbb6a522d3)" style="fill: none; stroke-dasharray: 1.85,0.8; stroke-dashoffset: 0; stroke: #b0b0b0; stroke-opacity: 0.3; stroke-width: 0.5"/>
     </g>
     <g id="line2d_76">
      <g>
       <use xlink:href="#m4bbe961529" x="35.507188" y="54.612637" style="stroke: #000000; stroke-width: 0.6"/>
      </g>
     </g>
    </g>
    <g id="ytick_18">
     <g id="line2d_77">
      <path d="M 35.507188 51.39254 
L 242.816006 51.39254 
" clip-path="url(#pfbb6a522d3)" style="fill: none; stroke-dasharray: 1.85,0.8; stroke-dashoffset: 0; stroke: #b0b0b0; stroke-opacity: 0.3; stroke-width: 0.5"/>
     </g>
     <g id="line2d_78">
      <g>
       <use xlink:href="#m4bbe961529" x="35.507188" y="51.39254" style="stroke: #000000; stroke-width: 0.6"/>
      </g>
     </g>
    </g>
    <g id="ytick_19">
     <g id="line2d_79">
      <path d="M 35.507188 48.552212 
L 242.816006 48.552212 
" clip-path="url(#pfbb6a522d3)" style="fill: none; stroke-dasharray: 1.85,0.8; stroke-dashoffset: 0; stroke: #b0b0b0; stroke-opacity: 0.3; stroke-width: 0.5"/>
     </g>
     <g id="line2d_80">
      <g>
       <use xlink:href="#m4bbe961529" x="35.507188" y="48.552212" style="stroke: #000000; stroke-width: 0.6"/>
      </g>
     </g>
    </g>
    <g id="ytick_20">
     <g id="line2d_81">
      <path d="M 35.507188 29.29627 
L 242.816006 29.29627 
" clip-path="url(#pfbb6a522d3)" style="fill: none; stroke-dasharray: 1.85,0.8; stroke-dashoffset: 0; stroke: #b0b0b0; stroke-opacity: 0.3; stroke-width: 0.5"/>
     </g>
     <g id="line2d_82">
      <g>
       <use xlink:href="#m4bbe961529" x="35.507188" y="29.29627" style="stroke: #000000; stroke-width: 0.6"/>
      </g>
     </g>
    </g>
    <g id="ytick_21">
     <g id="line2d_83">
      <path d="M 35.507188 19.518515 
L 242.816006 19.518515 
" clip-path="url(#pfbb6a522d3)" style="fill: none; stroke-dasharray: 1.85,0.8; stroke-dashoffset: 0; stroke: #b0b0b0; stroke-opacity: 0.3; stroke-width: 0.5"/>
     </g>
     <g id="line2d_84">
      <g>
       <use xlink:href="#m4bbe961529" x="35.507188" y="19.518515" style="stroke: #000000; stroke-width: 0.6"/>
      </g>
     </g>
    </g>
    <g id="ytick_22">
     <g id="line2d_85">
      <path d="M 35.507188 12.581087 
L 242.816006 12.581087 
" clip-path="url(#pfbb6a522d3)" style="fill: none; stroke-dasharray: 1.85,0.8; stroke-dashoffset: 0; stroke: #b0b0b0; stroke-opacity: 0.3; stroke-width: 0.5"/>
     </g>
     <g id="line2d_86">
      <g>
       <use xlink:href="#m4bbe961529" x="35.507188" y="12.581087" style="stroke: #000000; stroke-width: 0.6"/>
      </g>
     </g>
    </g>
    <g id="ytick_23">
     <g id="line2d_87">
      <path d="M 35.507188 7.2 
L 242.816006 7.2 
" clip-path="url(#pfbb6a522d3)" style="fill: none; stroke-dasharray: 1.85,0.8; stroke-dashoffset: 0; stroke: #b0b0b0; stroke-opacity: 0.3; stroke-width: 0.5"/>
     </g>
     <g id="line2d_88">
      <g>
       <use xlink:href="#m4bbe961529" x="35.507188" y="7.2" style="stroke: #000000; stroke-width: 0.6"/>
      </g>
     </g>
    </g>
    <g id="text_7">
     <!-- Absorbance (normalised) -->
     <g transform="translate(11.567812 115.796588) rotate(-90) scale(0.06 -0.06)">
      <defs>
       <path id="ArialMT-41" d="M -9 0 
L 1750 4581 
L 2403 4581 
L 4278 0 
L 3588 0 
L 3053 1388 
L 1138 1388 
L 634 0 
L -9 0 
z
M 1313 1881 
L 2866 1881 
L 2388 3150 
Q 2169 3728 2063 4100 
Q 1975 3659 1816 3225 
L 1313 1881 
z
" transform="scale(0.015625)"/>
       <path id="ArialMT-62" d="M 941 0 
L 419 0 
L 419 4581 
L 981 4581 
L 981 2947 
Q 1338 3394 1891 3394 
Q 2197 3394 2470 3270 
Q 2744 3147 2920 2923 
Q 3097 2700 3197 2384 
Q 3297 2069 3297 1709 
Q 3297 856 2875 390 
Q 2453 -75 1863 -75 
Q 1275 -75 941 416 
L 941 0 
z
M 934 1684 
Q 934 1088 1097 822 
Q 1363 388 1816 388 
Q 2184 388 2453 708 
Q 2722 1028 2722 1663 
Q 2722 2313 2464 2622 
Q 2206 2931 1841 2931 
Q 1472 2931 1203 2611 
Q 934 2291 934 1684 
z
" transform="scale(0.015625)"/>
       <path id="ArialMT-73" d="M 197 991 
L 753 1078 
Q 800 744 1014 566 
Q 1228 388 1613 388 
Q 2000 388 2187 545 
Q 2375 703 2375 916 
Q 2375 1106 2209 1216 
Q 2094 1291 1634 1406 
Q 1016 1563 777 1677 
Q 538 1791 414 1992 
Q 291 2194 291 2438 
Q 291 2659 392 2848 
Q 494 3038 669 3163 
Q 800 3259 1026 3326 
Q 1253 3394 1513 3394 
Q 1903 3394 2198 3281 
Q 2494 3169 2634 2976 
Q 2775 2784 2828 2463 
L 2278 2388 
Q 2241 2644 2061 2787 
Q 1881 2931 1553 2931 
Q 1166 2931 1000 2803 
Q 834 2675 834 2503 
Q 834 2394 903 2306 
Q 972 2216 1119 2156 
Q 1203 2125 1616 2013 
Q 2213 1853 2448 1751 
Q 2684 1650 2818 1456 
Q 2953 1263 2953 975 
Q 2953 694 2789 445 
Q 2625 197 2315 61 
Q 2006 -75 1616 -75 
Q 969 -75 630 194 
Q 291 463 197 991 
z
" transform="scale(0.015625)"/>
       <path id="ArialMT-64" d="M 2575 0 
L 2575 419 
Q 2259 -75 1647 -75 
Q 1250 -75 917 144 
Q 584 363 401 755 
Q 219 1147 219 1656 
Q 219 2153 384 2558 
Q 550 2963 881 3178 
Q 1213 3394 1622 3394 
Q 1922 3394 2156 3267 
Q 2391 3141 2538 2938 
L 2538 4581 
L 3097 4581 
L 3097 0 
L 2575 0 
z
M 797 1656 
Q 797 1019 1065 703 
Q 1334 388 1700 388 
Q 2069 388 2326 689 
Q 2584 991 2584 1609 
Q 2584 2291 2321 2609 
Q 2059 2928 1675 2928 
Q 1300 2928 1048 2622 
Q 797 2316 797 1656 
z
" transform="scale(0.015625)"/>
      </defs>
      <use xlink:href="#ArialMT-41"/>
      <use xlink:href="#ArialMT-62" x="66.699219"/>
      <use xlink:href="#ArialMT-73" x="122.314453"/>
      <use xlink:href="#ArialMT-6f" x="172.314453"/>
      <use xlink:href="#ArialMT-72" x="227.929688"/>
      <use xlink:href="#ArialMT-62" x="261.230469"/>
      <use xlink:href="#ArialMT-61" x="316.845703"/>
      <use xlink:href="#ArialMT-6e" x="372.460938"/>
      <use xlink:href="#ArialMT-63" x="428.076172"/>
      <use xlink:href="#ArialMT-65" x="478.076172"/>
      <use xlink:href="#ArialMT-20" x="533.691406"/>
      <use xlink:href="#ArialMT-28" x="561.474609"/>
      <use xlink:href="#ArialMT-6e" x="594.775391"/>
      <use xlink:href="#ArialMT-6f" x="650.390625"/>
      <use xlink:href="#ArialMT-72" x="706.005859"/>
      <use xlink:href="#ArialMT-6d" x="739.306641"/>
      <use xlink:href="#ArialMT-61" x="822.607422"/>
      <use xlink:href="#ArialMT-6c" x="878.222656"/>
      <use xlink:href="#ArialMT-69" x="900.439453"/>
      <use xlink:href="#ArialMT-73" x="922.65625"/>
      <use xlink:href="#ArialMT-65" x="972.65625"/>
      <use xlink:href="#ArialMT-64" x="1028.271484"/>
      <use xlink:href="#ArialMT-29" x="1083.886719"/>
     </g>
    </g>
   </g>
   <g id="line2d_89">
    <path d="M 73.296758 97.717492 
L 82.399213 93.307385 
L 92.037106 88.390155 
L 103.281316 82.403076 
L 118.273594 74.147917 
L 153.077099 54.878801 
L 164.856746 48.672927 
L 174.49464 43.834752 
L 183.597095 39.51539 
L 191.628673 35.939908 
L 199.660251 32.611335 
L 207.15639 29.744782 
L 214.65253 27.121328 
L 222.148669 24.746426 
L 229.644809 22.619821 
L 233.392878 21.648031 
L 233.392878 21.648031 
" clip-path="url(#pfbb6a522d3)" style="fill: none; stroke: #000000; stroke-width: 0.75; stroke-linecap: square"/>
   </g>
   <g id="line2d_90">
    <path d="M 73.296758 138.495914 
L 81.863774 137.135364 
L 89.895352 135.643303 
L 97.92693 133.922572 
L 105.42307 132.09638 
L 112.919209 130.04782 
L 120.415348 127.7712 
L 127.911488 125.265045 
L 135.407627 122.532206 
L 143.439205 119.36061 
L 151.470783 115.94999 
L 160.0378 112.067629 
L 169.140255 107.692253 
L 178.778148 102.811541 
L 189.486919 97.132716 
L 201.266566 90.629265 
L 214.65253 82.981018 
L 230.715686 73.532744 
L 233.392878 71.935634 
L 233.392878 71.935634 
" clip-path="url(#pfbb6a522d3)" style="fill: none; stroke: #cc79a7; stroke-width: 0.75; stroke-linecap: square"/>
   </g>
   <g id="line2d_91">
    <path d="M 73.296758 125.954971 
L 82.934651 122.260479 
L 93.107983 118.114071 
L 103.816754 113.505182 
L 115.596402 108.184456 
L 128.446926 102.128251 
L 142.903767 95.061526 
L 159.502361 86.693052 
L 179.313587 76.447004 
L 203.943759 63.449134 
L 233.392878 47.684426 
L 233.392878 47.684426 
" clip-path="url(#pfbb6a522d3)" style="fill: none; stroke: #009e73; stroke-width: 0.75; stroke-linecap: square"/>
   </g>
   <g id="line2d_92">
    <path d="M 73.296758 150.903824 
L 90.430791 150.44477 
L 104.352193 149.858694 
L 116.13184 149.145532 
L 126.305172 148.315091 
L 135.407627 147.360315 
L 143.974644 146.243154 
L 152.006222 144.974793 
L 159.502361 143.577568 
L 166.998501 141.960552 
L 174.49464 140.117696 
L 181.990779 138.052405 
L 190.022357 135.609428 
L 199.124812 132.594203 
L 210.369021 128.61091 
L 233.392878 120.268638 
L 233.392878 120.268638 
" clip-path="url(#pfbb6a522d3)" style="fill: none; stroke: #e69f00; stroke-width: 0.75; stroke-linecap: square"/>
   </g>
   <g id="line2d_93">
    <path d="M 73.296758 102.037347 
L 80.257459 99.253529 
L 87.753598 96.010544 
L 95.785176 92.276127 
L 104.352193 88.030786 
L 113.454648 83.27189 
L 124.163418 77.422511 
L 139.155697 68.957535 
L 164.856746 54.429357 
L 176.100956 48.360173 
L 185.203411 43.688551 
L 193.770427 39.543495 
L 201.266566 36.150399 
L 208.762706 33.00001 
L 215.723407 30.307416 
L 222.684108 27.84825 
L 229.644809 25.626114 
L 233.392878 24.527346 
L 233.392878 24.527346 
" clip-path="url(#pfbb6a522d3)" style="fill: none; stroke: #0072b2; stroke-width: 0.75; stroke-linecap: square"/>
   </g>
   <g id="line2d_94">
    <path d="M 44.930316 118.41924 
L 53.12434 117.448099 
L 60.688055 116.323255 
L 67.62146 115.065056 
L 73.924556 113.706246 
L 80.227652 112.120239 
L 86.530748 110.288046 
L 92.203534 108.41626 
L 97.87632 106.326088 
L 103.549106 104.014919 
L 109.852202 101.190459 
L 116.155297 98.10559 
L 122.458393 94.776843 
L 129.391799 90.860441 
L 136.955513 86.325288 
L 145.779847 80.757805 
L 157.12542 73.304264 
L 186.74997 53.68192 
L 195.574304 48.185574 
L 203.138019 43.729975 
L 210.071424 39.89999 
L 216.37452 36.659222 
L 222.677616 33.669196 
L 228.980711 30.944011 
L 233.392878 29.198046 
L 233.392878 29.198046 
" clip-path="url(#pfbb6a522d3)" style="fill: none; stroke: #d55e00; stroke-width: 0.75; stroke-linecap: square"/>
   </g>
   <g id="line2d_95">
    <path d="M 44.930316 118.150549 
L 52.494031 117.154635 
L 60.057745 115.928323 
L 66.991151 114.570012 
L 73.294246 113.116509 
L 79.597342 111.434987 
L 85.900438 109.509613 
L 92.203534 107.329098 
L 98.506629 104.887812 
L 104.809725 102.186507 
L 111.112821 99.232558 
L 117.415917 96.039678 
L 124.349322 92.274762 
L 131.913037 87.902482 
L 140.107061 82.908333 
L 150.192014 76.491037 
L 166.580063 65.746669 
L 182.337803 55.508816 
L 191.792446 49.623653 
L 199.986471 44.78059 
L 207.550186 40.580614 
L 214.483591 36.997783 
L 220.786687 33.986615 
L 227.089783 31.225437 
L 233.392878 28.723148 
L 233.392878 28.723148 
" clip-path="url(#pfbb6a522d3)" style="fill: none; stroke: #56b4e9; stroke-width: 0.75; stroke-linecap: square"/>
   </g>
   <g id="line2d_96">
    <path d="M 44.930316 101.002796 
L 52.494031 99.991707 
L 59.427436 98.854962 
L 66.360841 97.486423 
L 72.663937 96.016728 
L 78.967033 94.312143 
L 85.270128 92.357305 
L 90.942915 90.375744 
L 97.24601 87.924088 
L 103.549106 85.213444 
L 109.852202 82.25587 
L 116.785607 78.741195 
L 124.349322 74.636302 
L 133.173656 69.566249 
L 145.149538 62.385716 
L 165.319444 50.265444 
L 174.143778 45.249406 
L 181.707493 41.206699 
L 188.640899 37.759708 
L 194.943994 34.870415 
L 201.24709 32.232277 
L 207.550186 29.855082 
L 213.853281 27.740623 
L 220.156377 25.883212 
L 226.459473 24.27074 
L 232.762569 22.886121 
L 233.392878 22.759425 
L 233.392878 22.759425 
" clip-path="url(#pfbb6a522d3)" style="fill: none; stroke: #f0e442; stroke-width: 0.75; stroke-linecap: square"/>
   </g>
   <g id="line2d_97">
    <path d="M 44.930316 115.180166 
L 53.12434 114.272865 
L 60.688055 113.211431 
L 67.62146 112.013119 
L 73.924556 110.708052 
L 80.227652 109.172712 
L 85.900438 107.576083 
L 91.573224 105.762435 
L 97.24601 103.722563 
L 102.918796 101.451845 
L 108.591583 98.950819 
L 114.264369 96.225426 
L 120.567465 92.947853 
L 126.87056 89.429471 
L 133.803966 85.315062 
L 141.99799 80.181832 
L 152.082943 73.575956 
L 186.11966 51.006658 
L 194.313685 45.988478 
L 201.24709 41.996153 
L 207.550186 38.60574 
L 213.853281 35.469086 
L 219.526068 32.878431 
L 225.198854 30.516382 
L 230.87164 28.385605 
L 233.392878 27.512322 
L 233.392878 27.512322 
" clip-path="url(#pfbb6a522d3)" style="fill: none; stroke-dasharray: 2.775,1.2; stroke-dashoffset: 0; stroke: #e69f00; stroke-width: 0.75"/>
   </g>
   <g id="line2d_98">
    <path d="M 44.930316 141.376934 
L 56.906198 140.779529 
L 66.991151 140.055728 
L 75.815485 139.198332 
L 83.3792 138.251555 
L 90.312605 137.175 
L 97.24601 135.86416 
L 103.549106 134.44063 
L 109.852202 132.771414 
L 115.524988 131.041724 
L 121.197774 129.084223 
L 126.87056 126.891266 
L 132.543346 124.460126 
L 138.216133 121.793396 
L 143.888919 118.898997 
L 150.192014 115.431806 
L 157.12542 111.340372 
L 164.689135 106.589944 
L 172.883159 101.170299 
L 182.968112 94.222111 
L 220.156377 68.315831 
L 228.350402 63.047269 
L 233.392878 59.963397 
L 233.392878 59.963397 
" clip-path="url(#pfbb6a522d3)" style="fill: none; stroke-dasharray: 2.775,1.2; stroke-dashoffset: 0; stroke: #56b4e9; stroke-width: 0.75"/>
   </g>
   <g id="patch_3">
    <path d="M 35.507188 157.366614 
L 35.507188 7.2 
" style="fill: none; stroke: #000000; stroke-width: 0.8; stroke-linejoin: miter; stroke-linecap: square"/>
   </g>
   <g id="patch_4">
    <path d="M 242.816006 157.366614 
L 242.816006 7.2 
" style="fill: none; stroke: #000000; stroke-width: 0.8; stroke-linejoin: miter; stroke-linecap: square"/>
   </g>
   <g id="patch_5">
    <path d="M 35.507188 157.366614 
L 242.816006 157.366614 
" style="fill: none; stroke: #000000; stroke-width: 0.8; stroke-linejoin: miter; stroke-linecap: square"/>
   </g>
   <g id="patch_6">
    <path d="M 35.507188 7.2 
L 242.816006 7.2 
" style="fill: none; stroke: #000000; stroke-width: 0.8; stroke-linejoin: miter; stroke-linecap: square"/>
   </g>
   <g id="legend_1">
    <g id="line2d_99">
     <path d="M 40.907187 14.794687 
L 46.907187 14.794687 
L 52.907187 14.794687 
" style="fill: none; stroke: #000000; stroke-width: 0.75; stroke-linecap: square"/>
    </g>
    <g id="text_8">
     <!-- Uman -->
     <g transform="translate(57.707188 16.894687) scale(0.06 -0.06)">
      <defs>
       <path id="ArialMT-55" d="M 3500 4581 
L 4106 4581 
L 4106 1934 
Q 4106 1244 3950 837 
Q 3794 431 3386 176 
Q 2978 -78 2316 -78 
Q 1672 -78 1262 144 
Q 853 366 678 786 
Q 503 1206 503 1934 
L 503 4581 
L 1109 4581 
L 1109 1938 
Q 1109 1341 1220 1058 
Q 1331 775 1601 622 
Q 1872 469 2263 469 
Q 2931 469 3215 772 
Q 3500 1075 3500 1938 
L 3500 4581 
z
" transform="scale(0.015625)"/>
      </defs>
      <use xlink:href="#ArialMT-55"/>
      <use xlink:href="#ArialMT-6d" x="72.216797"/>
      <use xlink:href="#ArialMT-61" x="155.517578"/>
      <use xlink:href="#ArialMT-6e" x="211.132812"/>
     </g>
    </g>
    <g id="line2d_100">
     <path d="M 40.907187 23.281875 
L 46.907187 23.281875 
L 52.907187 23.281875 
" style="fill: none; stroke: #cc79a7; stroke-width: 0.75; stroke-linecap: square"/>
    </g>
    <g id="text_9">
     <!-- R&amp;D -->
     <g transform="translate(57.707188 25.381875) scale(0.06 -0.06)">
      <defs>
       <path id="ArialMT-52" d="M 503 0 
L 503 4581 
L 2534 4581 
Q 3147 4581 3465 4457 
Q 3784 4334 3975 4021 
Q 4166 3709 4166 3331 
Q 4166 2844 3850 2509 
Q 3534 2175 2875 2084 
Q 3116 1969 3241 1856 
Q 3506 1613 3744 1247 
L 4541 0 
L 3778 0 
L 3172 953 
Q 2906 1366 2734 1584 
Q 2563 1803 2427 1890 
Q 2291 1978 2150 2013 
Q 2047 2034 1813 2034 
L 1109 2034 
L 1109 0 
L 503 0 
z
M 1109 2559 
L 2413 2559 
Q 2828 2559 3062 2645 
Q 3297 2731 3419 2920 
Q 3541 3109 3541 3331 
Q 3541 3656 3305 3865 
Q 3069 4075 2559 4075 
L 1109 4075 
L 1109 2559 
z
" transform="scale(0.015625)"/>
       <path id="ArialMT-26" d="M 3041 541 
Q 2763 231 2434 76 
Q 2106 -78 1725 -78 
Q 1022 -78 609 397 
Q 275 784 275 1263 
Q 275 1688 548 2030 
Q 822 2372 1366 2631 
Q 1056 2988 953 3209 
Q 850 3431 850 3638 
Q 850 4050 1173 4354 
Q 1497 4659 1988 4659 
Q 2456 4659 2754 4371 
Q 3053 4084 3053 3681 
Q 3053 3028 2188 2566 
L 3009 1519 
Q 3150 1794 3228 2156 
L 3813 2031 
Q 3663 1431 3406 1044 
Q 3722 625 4122 341 
L 3744 -106 
Q 3403 113 3041 541 
z
M 1897 2928 
Q 2263 3144 2370 3306 
Q 2478 3469 2478 3666 
Q 2478 3900 2329 4048 
Q 2181 4197 1959 4197 
Q 1731 4197 1579 4050 
Q 1428 3903 1428 3691 
Q 1428 3584 1483 3467 
Q 1538 3350 1647 3219 
L 1897 2928 
z
M 2688 984 
L 1656 2263 
Q 1200 1991 1040 1758 
Q 881 1525 881 1297 
Q 881 1019 1103 719 
Q 1325 419 1731 419 
Q 1984 419 2254 576 
Q 2525 734 2688 984 
z
" transform="scale(0.015625)"/>
       <path id="ArialMT-44" d="M 494 0 
L 494 4581 
L 2072 4581 
Q 2606 4581 2888 4516 
Q 3281 4425 3559 4188 
Q 3922 3881 4101 3404 
Q 4281 2928 4281 2316 
Q 4281 1794 4159 1391 
Q 4038 988 3847 723 
Q 3656 459 3429 307 
Q 3203 156 2883 78 
Q 2563 0 2147 0 
L 494 0 
z
M 1100 541 
L 2078 541 
Q 2531 541 2789 625 
Q 3047 709 3200 863 
Q 3416 1078 3536 1442 
Q 3656 1806 3656 2325 
Q 3656 3044 3420 3430 
Q 3184 3816 2847 3947 
Q 2603 4041 2063 4041 
L 1100 4041 
L 1100 541 
z
" transform="scale(0.015625)"/>
      </defs>
      <use xlink:href="#ArialMT-52"/>
      <use xlink:href="#ArialMT-26" x="72.216797"/>
      <use xlink:href="#ArialMT-44" x="138.916016"/>
     </g>
    </g>
    <g id="line2d_101">
     <path d="M 40.907187 31.769062 
L 46.907187 31.769062 
L 52.907187 31.769062 
" style="fill: none; stroke: #009e73; stroke-width: 0.75; stroke-linecap: square"/>
    </g>
    <g id="text_10">
     <!-- PerkinElmer -->
     <g transform="translate(57.707188 33.869062) scale(0.06 -0.06)">
      <defs>
       <path id="ArialMT-50" d="M 494 0 
L 494 4581 
L 2222 4581 
Q 2678 4581 2919 4538 
Q 3256 4481 3484 4323 
Q 3713 4166 3852 3881 
Q 3991 3597 3991 3256 
Q 3991 2672 3619 2267 
Q 3247 1863 2275 1863 
L 1100 1863 
L 1100 0 
L 494 0 
z
M 1100 2403 
L 2284 2403 
Q 2872 2403 3119 2622 
Q 3366 2841 3366 3238 
Q 3366 3525 3220 3729 
Q 3075 3934 2838 4000 
Q 2684 4041 2272 4041 
L 1100 4041 
L 1100 2403 
z
" transform="scale(0.015625)"/>
       <path id="ArialMT-6b" d="M 425 0 
L 425 4581 
L 988 4581 
L 988 1969 
L 2319 3319 
L 3047 3319 
L 1778 2088 
L 3175 0 
L 2481 0 
L 1384 1697 
L 988 1316 
L 988 0 
L 425 0 
z
" transform="scale(0.015625)"/>
       <path id="ArialMT-45" d="M 506 0 
L 506 4581 
L 3819 4581 
L 3819 4041 
L 1113 4041 
L 1113 2638 
L 3647 2638 
L 3647 2100 
L 1113 2100 
L 1113 541 
L 3925 541 
L 3925 0 
L 506 0 
z
" transform="scale(0.015625)"/>
      </defs>
      <use xlink:href="#ArialMT-50"/>
      <use xlink:href="#ArialMT-65" x="66.699219"/>
      <use xlink:href="#ArialMT-72" x="122.314453"/>
      <use xlink:href="#ArialMT-6b" x="155.615234"/>
      <use xlink:href="#ArialMT-69" x="205.615234"/>
      <use xlink:href="#ArialMT-6e" x="227.832031"/>
      <use xlink:href="#ArialMT-45" x="283.447266"/>
      <use xlink:href="#ArialMT-6c" x="350.146484"/>
      <use xlink:href="#ArialMT-6d" x="372.363281"/>
      <use xlink:href="#ArialMT-65" x="455.664062"/>
      <use xlink:href="#ArialMT-72" x="511.279297"/>
     </g>
    </g>
    <g id="line2d_102">
     <path d="M 40.907187 40.333125 
L 46.907187 40.333125 
L 52.907187 40.333125 
" style="fill: none; stroke: #e69f00; stroke-width: 0.75; stroke-linecap: square"/>
    </g>
    <g id="text_11">
     <!-- Origene -->
     <g transform="translate(57.707188 42.433125) scale(0.06 -0.06)">
      <defs>
       <path id="ArialMT-4f" d="M 309 2231 
Q 309 3372 921 4017 
Q 1534 4663 2503 4663 
Q 3138 4663 3647 4359 
Q 4156 4056 4423 3514 
Q 4691 2972 4691 2284 
Q 4691 1588 4409 1038 
Q 4128 488 3612 205 
Q 3097 -78 2500 -78 
Q 1853 -78 1343 234 
Q 834 547 571 1087 
Q 309 1628 309 2231 
z
M 934 2222 
Q 934 1394 1379 917 
Q 1825 441 2497 441 
Q 3181 441 3623 922 
Q 4066 1403 4066 2288 
Q 4066 2847 3877 3264 
Q 3688 3681 3323 3911 
Q 2959 4141 2506 4141 
Q 1863 4141 1398 3698 
Q 934 3256 934 2222 
z
" transform="scale(0.015625)"/>
      </defs>
      <use xlink:href="#ArialMT-4f"/>
      <use xlink:href="#ArialMT-72" x="77.783203"/>
      <use xlink:href="#ArialMT-69" x="111.083984"/>
      <use xlink:href="#ArialMT-67" x="133.300781"/>
      <use xlink:href="#ArialMT-65" x="188.916016"/>
      <use xlink:href="#ArialMT-6e" x="244.53125"/>
      <use xlink:href="#ArialMT-65" x="300.146484"/>
     </g>
    </g>
    <g id="line2d_103">
     <path d="M 40.907187 48.890625 
L 46.907187 48.890625 
L 52.907187 48.890625 
" style="fill: none; stroke: #0072b2; stroke-width: 0.75; stroke-linecap: square"/>
    </g>
    <g id="text_12">
     <!-- Abcam -->
     <g transform="translate(57.707188 50.990625) scale(0.06 -0.06)">
      <use xlink:href="#ArialMT-41"/>
      <use xlink:href="#ArialMT-62" x="66.699219"/>
      <use xlink:href="#ArialMT-63" x="122.314453"/>
      <use xlink:href="#ArialMT-61" x="172.314453"/>
      <use xlink:href="#ArialMT-6d" x="227.929688"/>
     </g>
    </g>
    <g id="line2d_104">
     <path d="M 102.380937 14.794687 
L 108.380937 14.794687 
L 114.380937 14.794687 
" style="fill: none; stroke: #d55e00; stroke-width: 0.75; stroke-linecap: square"/>
    </g>
    <g id="text_13">
     <!-- Progen -->
     <g transform="translate(119.180937 16.894687) scale(0.06 -0.06)">
      <use xlink:href="#ArialMT-50"/>
      <use xlink:href="#ArialMT-72" x="66.699219"/>
      <use xlink:href="#ArialMT-6f" x="100"/>
      <use xlink:href="#ArialMT-67" x="155.615234"/>
      <use xlink:href="#ArialMT-65" x="211.230469"/>
      <use xlink:href="#ArialMT-6e" x="266.845703"/>
     </g>
    </g>
    <g id="line2d_105">
     <path d="M 102.380937 23.352187 
L 108.380937 23.352187 
L 114.380937 23.352187 
" style="fill: none; stroke: #56b4e9; stroke-width: 0.75; stroke-linecap: square"/>
    </g>
    <g id="text_14">
     <!-- MyBio -->
     <g transform="translate(119.180937 25.452187) scale(0.06 -0.06)">
      <defs>
       <path id="ArialMT-4d" d="M 475 0 
L 475 4581 
L 1388 4581 
L 2472 1338 
Q 2622 884 2691 659 
Q 2769 909 2934 1394 
L 4031 4581 
L 4847 4581 
L 4847 0 
L 4263 0 
L 4263 3834 
L 2931 0 
L 2384 0 
L 1059 3900 
L 1059 0 
L 475 0 
z
" transform="scale(0.015625)"/>
       <path id="ArialMT-79" d="M 397 -1278 
L 334 -750 
Q 519 -800 656 -800 
Q 844 -800 956 -737 
Q 1069 -675 1141 -563 
Q 1194 -478 1313 -144 
Q 1328 -97 1363 -6 
L 103 3319 
L 709 3319 
L 1400 1397 
Q 1534 1031 1641 628 
Q 1738 1016 1872 1384 
L 2581 3319 
L 3144 3319 
L 1881 -56 
Q 1678 -603 1566 -809 
Q 1416 -1088 1222 -1217 
Q 1028 -1347 759 -1347 
Q 597 -1347 397 -1278 
z
" transform="scale(0.015625)"/>
       <path id="ArialMT-42" d="M 469 0 
L 469 4581 
L 2188 4581 
Q 2713 4581 3030 4442 
Q 3347 4303 3526 4014 
Q 3706 3725 3706 3409 
Q 3706 3116 3547 2856 
Q 3388 2597 3066 2438 
Q 3481 2316 3704 2022 
Q 3928 1728 3928 1328 
Q 3928 1006 3792 729 
Q 3656 453 3456 303 
Q 3256 153 2954 76 
Q 2653 0 2216 0 
L 469 0 
z
M 1075 2656 
L 2066 2656 
Q 2469 2656 2644 2709 
Q 2875 2778 2992 2937 
Q 3109 3097 3109 3338 
Q 3109 3566 3000 3739 
Q 2891 3913 2687 3977 
Q 2484 4041 1991 4041 
L 1075 4041 
L 1075 2656 
z
M 1075 541 
L 2216 541 
Q 2509 541 2628 563 
Q 2838 600 2978 687 
Q 3119 775 3209 942 
Q 3300 1109 3300 1328 
Q 3300 1584 3169 1773 
Q 3038 1963 2805 2039 
Q 2572 2116 2134 2116 
L 1075 2116 
L 1075 541 
z
" transform="scale(0.015625)"/>
      </defs>
      <use xlink:href="#ArialMT-4d"/>
      <use xlink:href="#ArialMT-79" x="83.300781"/>
      <use xlink:href="#ArialMT-42" x="133.300781"/>
      <use xlink:href="#ArialMT-69" x="200"/>
      <use xlink:href="#ArialMT-6f" x="222.216797"/>
     </g>
    </g>
    <g id="line2d_106">
     <path d="M 102.380937 31.909687 
L 108.380937 31.909687 
L 114.380937 31.909687 
" style="fill: none; stroke: #f0e442; stroke-width: 0.75; stroke-linecap: square"/>
    </g>
    <g id="text_15">
     <!-- Ella -->
     <g transform="translate(119.180937 34.009687) scale(0.06 -0.06)">
      <use xlink:href="#ArialMT-45"/>
      <use xlink:href="#ArialMT-6c" x="66.699219"/>
      <use xlink:href="#ArialMT-6c" x="88.916016"/>
      <use xlink:href="#ArialMT-61" x="111.132812"/>
     </g>
    </g>
    <g id="line2d_107">
     <path d="M 102.380937 40.396875 
L 108.380937 40.396875 
L 114.380937 40.396875 
" style="fill: none; stroke-dasharray: 2.775,1.2; stroke-dashoffset: 0; stroke: #e69f00; stroke-width: 0.75"/>
    </g>
    <g id="text_16">
     <!-- Encor -->
     <g transform="translate(119.180937 42.496875) scale(0.06 -0.06)">
      <use xlink:href="#ArialMT-45"/>
      <use xlink:href="#ArialMT-6e" x="66.699219"/>
      <use xlink:href="#ArialMT-63" x="122.314453"/>
      <use xlink:href="#ArialMT-6f" x="172.314453"/>
      <use xlink:href="#ArialMT-72" x="227.929688"/>
     </g>
    </g>
    <g id="line2d_108">
     <path d="M 102.380937 48.884062 
L 108.380937 48.884062 
L 114.380937 48.884062 
" style="fill: none; stroke-dasharray: 2.775,1.2; stroke-dashoffset: 0; stroke: #56b4e9; stroke-width: 0.75"/>
    </g>
    <g id="text_17">
     <!-- Abnova -->
     <g transform="translate(119.180937 50.984062) scale(0.06 -0.06)">
      <defs>
       <path id="ArialMT-76" d="M 1344 0 
L 81 3319 
L 675 3319 
L 1388 1331 
Q 1503 1009 1600 663 
Q 1675 925 1809 1294 
L 2547 3319 
L 3125 3319 
L 1869 0 
L 1344 0 
z
" transform="scale(0.015625)"/>
      </defs>
      <use xlink:href="#ArialMT-41"/>
      <use xlink:href="#ArialMT-62" x="66.699219"/>
      <use xlink:href="#ArialMT-6e" x="122.314453"/>
      <use xlink:href="#ArialMT-6f" x="177.929688"/>
      <use xlink:href="#ArialMT-76" x="233.544922"/>
      <use xlink:href="#ArialMT-61" x="283.544922"/>
     </g>
    </g>
   </g>
  </g>
 </g>
 <defs>
  <clipPath id="pfbb6a522d3">
   <rect x="35.507188" y="7.2" width="207.308819" height="150.166614"/>
  </clipPath>
 </defs>
</svg>
