<?xml version="1.0" encoding="utf-8" standalone="no"?>
<!DOCTYPE svg PUBLIC "-//W3C//DTD SVG 1.1//EN"
  "http://www.w3.org/Graphics/SVG/1.1/DTD/svg11.dtd">
<svg xmlns:xlink="http://www.w3.org/1999/xlink" width="250.009444pt" height="186.684427pt" viewBox="0 0 250.009444 186.684427" xmlns="http://www.w3.org/2000/svg" version="1.1">
 <metadata>
  <rdf:RDF xmlns:dc="http://purl.org/dc/elements/1.1/" xmlns:cc="http://creativecommons.org/ns#" xmlns:rdf="http://www.w3.org/1999/02/22-rdf-syntax-ns#">
   <cc:Work>
    <dc:type rdf:resource="http://purl.org/dc/dcmitype/StillImage"/>
    <dc:date>2026-05-15T16:32:59.845926</dc:date>
    <dc:format>image/svg+xml</dc:format>
    <dc:creator>
     <cc:Agent>
      <dc:title>Matplotlib v3.9.2, https://matplotlib.org/</dc:title>
     </cc:Agent>
    </dc:creator>
   </cc:Work>
  </rdf:RDF>
 </metadata>
 <defs>
  <style type="text/css">*{stroke-linejoin: round; stroke-linecap: butt}</style>
 </defs>
 <g id="figure_1">
  <g id="patch_1">
   <path d="M 0 186.684427 
L 250.009444 186.684427 
L 250.009444 0 
L 0 0 
z
" style="fill: #ffffff"/>
  </g>
  <g id="axes_1">
   <g id="patch_2">
    <path d="M 32.170625 157.366614 
L 242.809444 157.366614 
L 242.809444 7.2 
L 32.170625 7.2 
z
" style="fill: #ffffff"/>
   </g>
   <g id="PathCollection_1">
    <defs>
     <path id="m440679a835" d="M 0 1.581139 
C 0.419323 1.581139 0.821528 1.41454 1.118034 1.118034 
C 1.41454 0.821528 1.581139 0.419323 1.581139 0 
C 1.581139 -0.419323 1.41454 -0.821528 1.118034 -1.118034 
C 0.821528 -1.41454 0.419323 -1.581139 0 -1.581139 
C -0.419323 -1.581139 -0.821528 -1.41454 -1.118034 -1.118034 
C -1.41454 -0.821528 -1.581139 -0.419323 -1.581139 0 
C -1.581139 0.419323 -1.41454 0.821528 -1.118034 1.118034 
C -0.821528 1.41454 -0.419323 1.581139 0 1.581139 
z
" style="stroke: #000000; stroke-opacity: 0.6"/>
    </defs>
    <g clip-path="url(#p06da06d333)">
     <use xlink:href="#m440679a835" x="233.234952" y="14.097634" style="fill-opacity: 0.6; stroke: #000000; stroke-opacity: 0.6"/>
     <use xlink:href="#m440679a835" x="204.41286" y="56.048062" style="fill-opacity: 0.6; stroke: #000000; stroke-opacity: 0.6"/>
     <use xlink:href="#m440679a835" x="166.312127" y="104.440876" style="fill-opacity: 0.6; stroke: #000000; stroke-opacity: 0.6"/>
     <use xlink:href="#m440679a835" x="137.490034" y="125.41609" style="fill-opacity: 0.6; stroke: #000000; stroke-opacity: 0.6"/>
     <use xlink:href="#m440679a835" x="70.567209" y="145.492366" style="fill-opacity: 0.6; stroke: #000000; stroke-opacity: 0.6"/>
    </g>
   </g>
   <g id="PathCollection_2">
    <defs>
     <path id="mb80d929b62" d="M 0 1.581139 
C 0.419323 1.581139 0.821528 1.41454 1.118034 1.118034 
C 1.41454 0.821528 1.581139 0.419323 1.581139 0 
C 1.581139 -0.419323 1.41454 -0.821528 1.118034 -1.118034 
C 0.821528 -1.41454 0.419323 -1.581139 0 -1.581139 
C -0.419323 -1.581139 -0.821528 -1.41454 -1.118034 -1.118034 
C -1.41454 -0.821528 -1.581139 -0.419323 -1.581139 0 
C -1.581139 0.419323 -1.41454 0.821528 -1.118034 1.118034 
C -0.821528 1.41454 -0.419323 1.581139 0 1.581139 
z
" style="stroke: #cc79a7; stroke-opacity: 0.6"/>
    </defs>
    <g clip-path="url(#p06da06d333)">
     <use xlink:href="#mb80d929b62" x="233.234952" y="134.105821" style="fill: #cc79a7; fill-opacity: 0.6; stroke: #cc79a7; stroke-opacity: 0.6"/>
     <use xlink:href="#mb80d929b62" x="204.41286" y="142.745612" style="fill: #cc79a7; fill-opacity: 0.6; stroke: #cc79a7; stroke-opacity: 0.6"/>
     <use xlink:href="#mb80d929b62" x="166.312127" y="147.290241" style="fill: #cc79a7; fill-opacity: 0.6; stroke: #cc79a7; stroke-opacity: 0.6"/>
     <use xlink:href="#mb80d929b62" x="137.490034" y="148.938294" style="fill: #cc79a7; fill-opacity: 0.6; stroke: #cc79a7; stroke-opacity: 0.6"/>
     <use xlink:href="#mb80d929b62" x="70.567209" y="150.186819" style="fill: #cc79a7; fill-opacity: 0.6; stroke: #cc79a7; stroke-opacity: 0.6"/>
    </g>
   </g>
   <g id="PathCollection_3">
    <defs>
     <path id="mcc1d22ea91" d="M 0 1.581139 
C 0.419323 1.581139 0.821528 1.41454 1.118034 1.118034 
C 1.41454 0.821528 1.581139 0.419323 1.581139 0 
C 1.581139 -0.419323 1.41454 -0.821528 1.118034 -1.118034 
C 0.821528 -1.41454 0.419323 -1.581139 0 -1.581139 
C -0.419323 -1.581139 -0.821528 -1.41454 -1.118034 -1.118034 
C -1.41454 -0.821528 -1.581139 -0.419323 -1.581139 0 
C -1.581139 0.419323 -1.41454 0.821528 -1.118034 1.118034 
C -0.821528 1.41454 -0.419323 1.581139 0 1.581139 
z
" style="stroke: #009e73; stroke-opacity: 0.6"/>
    </defs>
    <g clip-path="url(#p06da06d333)">
     <use xlink:href="#mcc1d22ea91" x="233.234952" y="104.590699" style="fill: #009e73; fill-opacity: 0.6; stroke: #009e73; stroke-opacity: 0.6"/>
     <use xlink:href="#mcc1d22ea91" x="204.41286" y="126.364969" style="fill: #009e73; fill-opacity: 0.6; stroke: #009e73; stroke-opacity: 0.6"/>
     <use xlink:href="#mcc1d22ea91" x="166.312127" y="140.248563" style="fill: #009e73; fill-opacity: 0.6; stroke: #009e73; stroke-opacity: 0.6"/>
     <use xlink:href="#mcc1d22ea91" x="137.490034" y="145.092838" style="fill: #009e73; fill-opacity: 0.6; stroke: #009e73; stroke-opacity: 0.6"/>
     <use xlink:href="#mcc1d22ea91" x="70.567209" y="149.387763" style="fill: #009e73; fill-opacity: 0.6; stroke: #009e73; stroke-opacity: 0.6"/>
    </g>
   </g>
   <g id="PathCollection_4">
    <defs>
     <path id="m08054c24c7" d="M 0 1.581139 
C 0.419323 1.581139 0.821528 1.41454 1.118034 1.118034 
C 1.41454 0.821528 1.581139 0.419323 1.581139 0 
C 1.581139 -0.419323 1.41454 -0.821528 1.118034 -1.118034 
C 0.821528 -1.41454 0.419323 -1.581139 0 -1.581139 
C -0.419323 -1.581139 -0.821528 -1.41454 -1.118034 -1.118034 
C -1.41454 -0.821528 -1.581139 -0.419323 -1.581139 0 
C -1.581139 0.419323 -1.41454 0.821528 -1.118034 1.118034 
C -0.821528 1.41454 -0.419323 1.581139 0 1.581139 
z
" style="stroke: #e69f00; stroke-opacity: 0.6"/>
    </defs>
    <g clip-path="url(#p06da06d333)">
     <use xlink:href="#m08054c24c7" x="233.234952" y="148.888353" style="fill: #e69f00; fill-opacity: 0.6; stroke: #e69f00; stroke-opacity: 0.6"/>
     <use xlink:href="#m08054c24c7" x="204.41286" y="149.687409" style="fill: #e69f00; fill-opacity: 0.6; stroke: #e69f00; stroke-opacity: 0.6"/>
     <use xlink:href="#m08054c24c7" x="166.312127" y="150.23676" style="fill: #e69f00; fill-opacity: 0.6; stroke: #e69f00; stroke-opacity: 0.6"/>
     <use xlink:href="#m08054c24c7" x="137.490034" y="150.436523" style="fill: #e69f00; fill-opacity: 0.6; stroke: #e69f00; stroke-opacity: 0.6"/>
     <use xlink:href="#m08054c24c7" x="70.567209" y="150.536405" style="fill: #e69f00; fill-opacity: 0.6; stroke: #e69f00; stroke-opacity: 0.6"/>
    </g>
   </g>
   <g id="PathCollection_5">
    <defs>
     <path id="m0a8dc55607" d="M 0 1.581139 
C 0.419323 1.581139 0.821528 1.41454 1.118034 1.118034 
C 1.41454 0.821528 1.581139 0.419323 1.581139 0 
C 1.581139 -0.419323 1.41454 -0.821528 1.118034 -1.118034 
C 0.821528 -1.41454 0.419323 -1.581139 0 -1.581139 
C -0.419323 -1.581139 -0.821528 -1.41454 -1.118034 -1.118034 
C -1.41454 -0.821528 -1.581139 -0.419323 -1.581139 0 
C -1.581139 0.419323 -1.41454 0.821528 -1.118034 1.118034 
C -0.821528 1.41454 -0.419323 1.581139 0 1.581139 
z
" style="stroke: #0072b2; stroke-opacity: 0.6"/>
    </defs>
    <g clip-path="url(#p06da06d333)">
     <use xlink:href="#m0a8dc55607" x="233.234952" y="29.439273" style="fill: #0072b2; fill-opacity: 0.6; stroke: #0072b2; stroke-opacity: 0.6"/>
     <use xlink:href="#m0a8dc55607" x="204.41286" y="70.909537" style="fill: #0072b2; fill-opacity: 0.6; stroke: #0072b2; stroke-opacity: 0.6"/>
     <use xlink:href="#m0a8dc55607" x="166.312127" y="113.520943" style="fill: #0072b2; fill-opacity: 0.6; stroke: #0072b2; stroke-opacity: 0.6"/>
     <use xlink:href="#m0a8dc55607" x="137.490034" y="132.136196" style="fill: #0072b2; fill-opacity: 0.6; stroke: #0072b2; stroke-opacity: 0.6"/>
     <use xlink:href="#m0a8dc55607" x="70.567209" y="146.219742" style="fill: #0072b2; fill-opacity: 0.6; stroke: #0072b2; stroke-opacity: 0.6"/>
    </g>
   </g>
   <g id="PathCollection_6">
    <defs>
     <path id="made45e44f7" d="M 0 1.581139 
C 0.419323 1.581139 0.821528 1.41454 1.118034 1.118034 
C 1.41454 0.821528 1.581139 0.419323 1.581139 0 
C 1.581139 -0.419323 1.41454 -0.821528 1.118034 -1.118034 
C 0.821528 -1.41454 0.419323 -1.581139 0 -1.581139 
C -0.419323 -1.581139 -0.821528 -1.41454 -1.118034 -1.118034 
C -1.41454 -0.821528 -1.581139 -0.419323 -1.581139 0 
C -1.581139 0.419323 -1.41454 0.821528 -1.118034 1.118034 
C -0.821528 1.41454 -0.419323 1.581139 0 1.581139 
z
" style="stroke: #d55e00; stroke-opacity: 0.6"/>
    </defs>
    <g clip-path="url(#p06da06d333)">
     <use xlink:href="#made45e44f7" x="233.234952" y="50.915577" style="fill: #d55e00; fill-opacity: 0.6; stroke: #d55e00; stroke-opacity: 0.6"/>
     <use xlink:href="#made45e44f7" x="204.41286" y="93.700704" style="fill: #d55e00; fill-opacity: 0.6; stroke: #d55e00; stroke-opacity: 0.6"/>
     <use xlink:href="#made45e44f7" x="175.590768" y="123.704238" style="fill: #d55e00; fill-opacity: 0.6; stroke: #d55e00; stroke-opacity: 0.6"/>
     <use xlink:href="#made45e44f7" x="137.490034" y="141.162243" style="fill: #d55e00; fill-opacity: 0.6; stroke: #d55e00; stroke-opacity: 0.6"/>
     <use xlink:href="#made45e44f7" x="108.667942" y="145.845462" style="fill: #d55e00; fill-opacity: 0.6; stroke: #d55e00; stroke-opacity: 0.6"/>
     <use xlink:href="#made45e44f7" x="79.84585" y="147.799061" style="fill: #d55e00; fill-opacity: 0.6; stroke: #d55e00; stroke-opacity: 0.6"/>
     <use xlink:href="#made45e44f7" x="41.745117" y="148.949146" style="fill: #d55e00; fill-opacity: 0.6; stroke: #d55e00; stroke-opacity: 0.6"/>
    </g>
   </g>
   <g id="PathCollection_7">
    <defs>
     <path id="ma6a0368159" d="M 0 1.581139 
C 0.419323 1.581139 0.821528 1.41454 1.118034 1.118034 
C 1.41454 0.821528 1.581139 0.419323 1.581139 0 
C 1.581139 -0.419323 1.41454 -0.821528 1.118034 -1.118034 
C 0.821528 -1.41454 0.419323 -1.581139 0 -1.581139 
C -0.419323 -1.581139 -0.821528 -1.41454 -1.118034 -1.118034 
C -1.41454 -0.821528 -1.581139 -0.419323 -1.581139 0 
C -1.581139 0.419323 -1.41454 0.821528 -1.118034 1.118034 
C -0.821528 1.41454 -0.419323 1.581139 0 1.581139 
z
" style="stroke: #56b4e9; stroke-opacity: 0.6"/>
    </defs>
    <g clip-path="url(#p06da06d333)">
     <use xlink:href="#ma6a0368159" x="233.234952" y="48.910176" style="fill: #56b4e9; fill-opacity: 0.6; stroke: #56b4e9; stroke-opacity: 0.6"/>
     <use xlink:href="#ma6a0368159" x="204.41286" y="92.043054" style="fill: #56b4e9; fill-opacity: 0.6; stroke: #56b4e9; stroke-opacity: 0.6"/>
     <use xlink:href="#ma6a0368159" x="175.590768" y="122.28767" style="fill: #56b4e9; fill-opacity: 0.6; stroke: #56b4e9; stroke-opacity: 0.6"/>
     <use xlink:href="#ma6a0368159" x="137.490034" y="140.692102" style="fill: #56b4e9; fill-opacity: 0.6; stroke: #56b4e9; stroke-opacity: 0.6"/>
     <use xlink:href="#ma6a0368159" x="108.667942" y="145.550831" style="fill: #56b4e9; fill-opacity: 0.6; stroke: #56b4e9; stroke-opacity: 0.6"/>
     <use xlink:href="#ma6a0368159" x="79.84585" y="147.653625" style="fill: #56b4e9; fill-opacity: 0.6; stroke: #56b4e9; stroke-opacity: 0.6"/>
     <use xlink:href="#ma6a0368159" x="41.745117" y="148.868309" style="fill: #56b4e9; fill-opacity: 0.6; stroke: #56b4e9; stroke-opacity: 0.6"/>
    </g>
   </g>
   <g id="PathCollection_8">
    <defs>
     <path id="mde873f3742" d="M 0 1.581139 
C 0.419323 1.581139 0.821528 1.41454 1.118034 1.118034 
C 1.41454 0.821528 1.581139 0.419323 1.581139 0 
C 1.581139 -0.419323 1.41454 -0.821528 1.118034 -1.118034 
C 0.821528 -1.41454 0.419323 -1.581139 0 -1.581139 
C -0.419323 -1.581139 -0.821528 -1.41454 -1.118034 -1.118034 
C -1.41454 -0.821528 -1.581139 -0.419323 -1.581139 0 
C -1.581139 0.419323 -1.41454 0.821528 -1.118034 1.118034 
C -0.821528 1.41454 -0.419323 1.581139 0 1.581139 
z
" style="stroke: #f0e442; stroke-opacity: 0.6"/>
    </defs>
    <g clip-path="url(#p06da06d333)">
     <use xlink:href="#mde873f3742" x="233.234952" y="20.306822" style="fill: #f0e442; fill-opacity: 0.6; stroke: #f0e442; stroke-opacity: 0.6"/>
     <use xlink:href="#mde873f3742" x="204.41286" y="56.936395" style="fill: #f0e442; fill-opacity: 0.6; stroke: #f0e442; stroke-opacity: 0.6"/>
     <use xlink:href="#mde873f3742" x="175.590768" y="96.93112" style="fill: #f0e442; fill-opacity: 0.6; stroke: #f0e442; stroke-opacity: 0.6"/>
     <use xlink:href="#mde873f3742" x="137.490034" y="129.634398" style="fill: #f0e442; fill-opacity: 0.6; stroke: #f0e442; stroke-opacity: 0.6"/>
     <use xlink:href="#mde873f3742" x="108.667942" y="139.124205" style="fill: #f0e442; fill-opacity: 0.6; stroke: #f0e442; stroke-opacity: 0.6"/>
     <use xlink:href="#mde873f3742" x="79.84585" y="143.872293" style="fill: #f0e442; fill-opacity: 0.6; stroke: #f0e442; stroke-opacity: 0.6"/>
     <use xlink:href="#mde873f3742" x="41.745117" y="146.7396" style="fill: #f0e442; fill-opacity: 0.6; stroke: #f0e442; stroke-opacity: 0.6"/>
    </g>
   </g>
   <g id="PathCollection_9">
    <g clip-path="url(#p06da06d333)">
     <use xlink:href="#m08054c24c7" x="233.234952" y="43.667987" style="fill: #e69f00; fill-opacity: 0.6; stroke: #e69f00; stroke-opacity: 0.6"/>
     <use xlink:href="#m08054c24c7" x="204.41286" y="86.774095" style="fill: #e69f00; fill-opacity: 0.6; stroke: #e69f00; stroke-opacity: 0.6"/>
     <use xlink:href="#m08054c24c7" x="175.590768" y="119.950335" style="fill: #e69f00; fill-opacity: 0.6; stroke: #e69f00; stroke-opacity: 0.6"/>
     <use xlink:href="#m08054c24c7" x="137.490034" y="139.789433" style="fill: #e69f00; fill-opacity: 0.6; stroke: #e69f00; stroke-opacity: 0.6"/>
     <use xlink:href="#m08054c24c7" x="108.667942" y="145.1273" style="fill: #e69f00; fill-opacity: 0.6; stroke: #e69f00; stroke-opacity: 0.6"/>
     <use xlink:href="#m08054c24c7" x="79.84585" y="147.404306" style="fill: #e69f00; fill-opacity: 0.6; stroke: #e69f00; stroke-opacity: 0.6"/>
     <use xlink:href="#m08054c24c7" x="41.745117" y="148.652744" style="fill: #e69f00; fill-opacity: 0.6; stroke: #e69f00; stroke-opacity: 0.6"/>
    </g>
   </g>
   <g id="PathCollection_10">
    <g clip-path="url(#p06da06d333)">
     <use xlink:href="#ma6a0368159" x="233.234952" y="123.180386" style="fill: #56b4e9; fill-opacity: 0.6; stroke: #56b4e9; stroke-opacity: 0.6"/>
     <use xlink:href="#ma6a0368159" x="204.41286" y="138.30925" style="fill: #56b4e9; fill-opacity: 0.6; stroke: #56b4e9; stroke-opacity: 0.6"/>
     <use xlink:href="#ma6a0368159" x="175.590768" y="145.472151" style="fill: #56b4e9; fill-opacity: 0.6; stroke: #56b4e9; stroke-opacity: 0.6"/>
     <use xlink:href="#ma6a0368159" x="137.490034" y="149.060603" style="fill: #56b4e9; fill-opacity: 0.6; stroke: #56b4e9; stroke-opacity: 0.6"/>
     <use xlink:href="#ma6a0368159" x="108.667942" y="149.841387" style="fill: #56b4e9; fill-opacity: 0.6; stroke: #56b4e9; stroke-opacity: 0.6"/>
     <use xlink:href="#ma6a0368159" x="79.84585" y="150.105258" style="fill: #56b4e9; fill-opacity: 0.6; stroke: #56b4e9; stroke-opacity: 0.6"/>
     <use xlink:href="#ma6a0368159" x="41.745117" y="150.161702" style="fill: #56b4e9; fill-opacity: 0.6; stroke: #56b4e9; stroke-opacity: 0.6"/>
    </g>
   </g>
   <g id="matplotlib.axis_1">
    <g id="xtick_1">
     <g id="line2d_1">
      <path d="M 70.567209 157.366614 
L 70.567209 7.2 
" clip-path="url(#p06da06d333)" style="fill: none; stroke-dasharray: 1.85,0.8; stroke-dashoffset: 0; stroke: #b0b0b0; stroke-opacity: 0.3; stroke-width: 0.5"/>
     </g>
     <g id="line2d_2">
      <defs>
       <path id="m59788c8dd3" d="M 0 0 
L 0 3.5 
" style="stroke: #000000; stroke-width: 0.8"/>
      </defs>
      <g>
       <use xlink:href="#m59788c8dd3" x="70.567209" y="157.366614" style="stroke: #000000; stroke-width: 0.8"/>
      </g>
     </g>
     <g id="text_1">
      <!-- 100 -->
      <g transform="translate(65.562365 168.661302) scale(0.06 -0.06)">
       <defs>
        <path id="ArialMT-31" d="M 2384 0 
L 1822 0 
L 1822 3584 
Q 1619 3391 1289 3197 
Q 959 3003 697 2906 
L 697 3450 
Q 1169 3672 1522 3987 
Q 1875 4303 2022 4600 
L 2384 4600 
L 2384 0 
z
" transform="scale(0.015625)"/>
        <path id="ArialMT-30" d="M 266 2259 
Q 266 3072 433 3567 
Q 600 4063 929 4331 
Q 1259 4600 1759 4600 
Q 2128 4600 2406 4451 
Q 2684 4303 2865 4023 
Q 3047 3744 3150 3342 
Q 3253 2941 3253 2259 
Q 3253 1453 3087 958 
Q 2922 463 2592 192 
Q 2263 -78 1759 -78 
Q 1097 -78 719 397 
Q 266 969 266 2259 
z
M 844 2259 
Q 844 1131 1108 757 
Q 1372 384 1759 384 
Q 2147 384 2411 759 
Q 2675 1134 2675 2259 
Q 2675 3391 2411 3762 
Q 2147 4134 1753 4134 
Q 1366 4134 1134 3806 
Q 844 3388 844 2259 
z
" transform="scale(0.015625)"/>
       </defs>
       <use xlink:href="#ArialMT-31"/>
       <use xlink:href="#ArialMT-30" x="55.615234"/>
       <use xlink:href="#ArialMT-30" x="111.230469"/>
      </g>
     </g>
    </g>
    <g id="xtick_2">
     <g id="line2d_3">
      <path d="M 166.312127 157.366614 
L 166.312127 7.2 
" clip-path="url(#p06da06d333)" style="fill: none; stroke-dasharray: 1.85,0.8; stroke-dashoffset: 0; stroke: #b0b0b0; stroke-opacity: 0.3; stroke-width: 0.5"/>
     </g>
     <g id="line2d_4">
      <g>
       <use xlink:href="#m59788c8dd3" x="166.312127" y="157.366614" style="stroke: #000000; stroke-width: 0.8"/>
      </g>
     </g>
     <g id="text_2">
      <!-- 1000 -->
      <g transform="translate(159.639002 168.661302) scale(0.06 -0.06)">
       <use xlink:href="#ArialMT-31"/>
       <use xlink:href="#ArialMT-30" x="55.615234"/>
       <use xlink:href="#ArialMT-30" x="111.230469"/>
       <use xlink:href="#ArialMT-30" x="166.845703"/>
      </g>
     </g>
    </g>
    <g id="xtick_3">
     <g id="line2d_5">
      <path d="M 32.466476 157.366614 
L 32.466476 7.2 
" clip-path="url(#p06da06d333)" style="fill: none; stroke-dasharray: 1.85,0.8; stroke-dashoffset: 0; stroke: #b0b0b0; stroke-opacity: 0.3; stroke-width: 0.5"/>
     </g>
     <g id="line2d_6">
      <defs>
       <path id="m4982fc0568" d="M 0 0 
L 0 2 
" style="stroke: #000000; stroke-width: 0.6"/>
      </defs>
      <g>
       <use xlink:href="#m4982fc0568" x="32.466476" y="157.366614" style="stroke: #000000; stroke-width: 0.6"/>
      </g>
     </g>
    </g>
    <g id="xtick_4">
     <g id="line2d_7">
      <path d="M 41.745117 157.366614 
L 41.745117 7.2 
" clip-path="url(#p06da06d333)" style="fill: none; stroke-dasharray: 1.85,0.8; stroke-dashoffset: 0; stroke: #b0b0b0; stroke-opacity: 0.3; stroke-width: 0.5"/>
     </g>
     <g id="line2d_8">
      <g>
       <use xlink:href="#m4982fc0568" x="41.745117" y="157.366614" style="stroke: #000000; stroke-width: 0.6"/>
      </g>
     </g>
    </g>
    <g id="xtick_5">
     <g id="line2d_9">
      <path d="M 49.326319 157.366614 
L 49.326319 7.2 
" clip-path="url(#p06da06d333)" style="fill: none; stroke-dasharray: 1.85,0.8; stroke-dashoffset: 0; stroke: #b0b0b0; stroke-opacity: 0.3; stroke-width: 0.5"/>
     </g>
     <g id="line2d_10">
      <g>
       <use xlink:href="#m4982fc0568" x="49.326319" y="157.366614" style="stroke: #000000; stroke-width: 0.6"/>
      </g>
     </g>
    </g>
    <g id="xtick_6">
     <g id="line2d_11">
      <path d="M 55.736134 157.366614 
L 55.736134 7.2 
" clip-path="url(#p06da06d333)" style="fill: none; stroke-dasharray: 1.85,0.8; stroke-dashoffset: 0; stroke: #b0b0b0; stroke-opacity: 0.3; stroke-width: 0.5"/>
     </g>
     <g id="line2d_12">
      <g>
       <use xlink:href="#m4982fc0568" x="55.736134" y="157.366614" style="stroke: #000000; stroke-width: 0.6"/>
      </g>
     </g>
    </g>
    <g id="xtick_7">
     <g id="line2d_13">
      <path d="M 61.288568 157.366614 
L 61.288568 7.2 
" clip-path="url(#p06da06d333)" style="fill: none; stroke-dasharray: 1.85,0.8; stroke-dashoffset: 0; stroke: #b0b0b0; stroke-opacity: 0.3; stroke-width: 0.5"/>
     </g>
     <g id="line2d_14">
      <g>
       <use xlink:href="#m4982fc0568" x="61.288568" y="157.366614" style="stroke: #000000; stroke-width: 0.6"/>
      </g>
     </g>
    </g>
    <g id="xtick_8">
     <g id="line2d_15">
      <path d="M 66.186162 157.366614 
L 66.186162 7.2 
" clip-path="url(#p06da06d333)" style="fill: none; stroke-dasharray: 1.85,0.8; stroke-dashoffset: 0; stroke: #b0b0b0; stroke-opacity: 0.3; stroke-width: 0.5"/>
     </g>
     <g id="line2d_16">
      <g>
       <use xlink:href="#m4982fc0568" x="66.186162" y="157.366614" style="stroke: #000000; stroke-width: 0.6"/>
      </g>
     </g>
    </g>
    <g id="xtick_9">
     <g id="line2d_17">
      <path d="M 99.389301 157.366614 
L 99.389301 7.2 
" clip-path="url(#p06da06d333)" style="fill: none; stroke-dasharray: 1.85,0.8; stroke-dashoffset: 0; stroke: #b0b0b0; stroke-opacity: 0.3; stroke-width: 0.5"/>
     </g>
     <g id="line2d_18">
      <g>
       <use xlink:href="#m4982fc0568" x="99.389301" y="157.366614" style="stroke: #000000; stroke-width: 0.6"/>
      </g>
     </g>
    </g>
    <g id="xtick_10">
     <g id="line2d_19">
      <path d="M 116.249144 157.366614 
L 116.249144 7.2 
" clip-path="url(#p06da06d333)" style="fill: none; stroke-dasharray: 1.85,0.8; stroke-dashoffset: 0; stroke: #b0b0b0; stroke-opacity: 0.3; stroke-width: 0.5"/>
     </g>
     <g id="line2d_20">
      <g>
       <use xlink:href="#m4982fc0568" x="116.249144" y="157.366614" style="stroke: #000000; stroke-width: 0.6"/>
      </g>
     </g>
    </g>
    <g id="xtick_11">
     <g id="line2d_21">
      <path d="M 128.211393 157.366614 
L 128.211393 7.2 
" clip-path="url(#p06da06d333)" style="fill: none; stroke-dasharray: 1.85,0.8; stroke-dashoffset: 0; stroke: #b0b0b0; stroke-opacity: 0.3; stroke-width: 0.5"/>
     </g>
     <g id="line2d_22">
      <g>
       <use xlink:href="#m4982fc0568" x="128.211393" y="157.366614" style="stroke: #000000; stroke-width: 0.6"/>
      </g>
     </g>
    </g>
    <g id="xtick_12">
     <g id="line2d_23">
      <path d="M 137.490034 157.366614 
L 137.490034 7.2 
" clip-path="url(#p06da06d333)" style="fill: none; stroke-dasharray: 1.85,0.8; stroke-dashoffset: 0; stroke: #b0b0b0; stroke-opacity: 0.3; stroke-width: 0.5"/>
     </g>
     <g id="line2d_24">
      <g>
       <use xlink:href="#m4982fc0568" x="137.490034" y="157.366614" style="stroke: #000000; stroke-width: 0.6"/>
      </g>
     </g>
    </g>
    <g id="xtick_13">
     <g id="line2d_25">
      <path d="M 145.071236 157.366614 
L 145.071236 7.2 
" clip-path="url(#p06da06d333)" style="fill: none; stroke-dasharray: 1.85,0.8; stroke-dashoffset: 0; stroke: #b0b0b0; stroke-opacity: 0.3; stroke-width: 0.5"/>
     </g>
     <g id="line2d_26">
      <g>
       <use xlink:href="#m4982fc0568" x="145.071236" y="157.366614" style="stroke: #000000; stroke-width: 0.6"/>
      </g>
     </g>
    </g>
    <g id="xtick_14">
     <g id="line2d_27">
      <path d="M 151.481051 157.366614 
L 151.481051 7.2 
" clip-path="url(#p06da06d333)" style="fill: none; stroke-dasharray: 1.85,0.8; stroke-dashoffset: 0; stroke: #b0b0b0; stroke-opacity: 0.3; stroke-width: 0.5"/>
     </g>
     <g id="line2d_28">
      <g>
       <use xlink:href="#m4982fc0568" x="151.481051" y="157.366614" style="stroke: #000000; stroke-width: 0.6"/>
      </g>
     </g>
    </g>
    <g id="xtick_15">
     <g id="line2d_29">
      <path d="M 157.033485 157.366614 
L 157.033485 7.2 
" clip-path="url(#p06da06d333)" style="fill: none; stroke-dasharray: 1.85,0.8; stroke-dashoffset: 0; stroke: #b0b0b0; stroke-opacity: 0.3; stroke-width: 0.5"/>
     </g>
     <g id="line2d_30">
      <g>
       <use xlink:href="#m4982fc0568" x="157.033485" y="157.366614" style="stroke: #000000; stroke-width: 0.6"/>
      </g>
     </g>
    </g>
    <g id="xtick_16">
     <g id="line2d_31">
      <path d="M 161.931079 157.366614 
L 161.931079 7.2 
" clip-path="url(#p06da06d333)" style="fill: none; stroke-dasharray: 1.85,0.8; stroke-dashoffset: 0; stroke: #b0b0b0; stroke-opacity: 0.3; stroke-width: 0.5"/>
     </g>
     <g id="line2d_32">
      <g>
       <use xlink:href="#m4982fc0568" x="161.931079" y="157.366614" style="stroke: #000000; stroke-width: 0.6"/>
      </g>
     </g>
    </g>
    <g id="xtick_17">
     <g id="line2d_33">
      <path d="M 195.134219 157.366614 
L 195.134219 7.2 
" clip-path="url(#p06da06d333)" style="fill: none; stroke-dasharray: 1.85,0.8; stroke-dashoffset: 0; stroke: #b0b0b0; stroke-opacity: 0.3; stroke-width: 0.5"/>
     </g>
     <g id="line2d_34">
      <g>
       <use xlink:href="#m4982fc0568" x="195.134219" y="157.366614" style="stroke: #000000; stroke-width: 0.6"/>
      </g>
     </g>
    </g>
    <g id="xtick_18">
     <g id="line2d_35">
      <path d="M 211.994062 157.366614 
L 211.994062 7.2 
" clip-path="url(#p06da06d333)" style="fill: none; stroke-dasharray: 1.85,0.8; stroke-dashoffset: 0; stroke: #b0b0b0; stroke-opacity: 0.3; stroke-width: 0.5"/>
     </g>
     <g id="line2d_36">
      <g>
       <use xlink:href="#m4982fc0568" x="211.994062" y="157.366614" style="stroke: #000000; stroke-width: 0.6"/>
      </g>
     </g>
    </g>
    <g id="xtick_19">
     <g id="line2d_37">
      <path d="M 223.956311 157.366614 
L 223.956311 7.2 
" clip-path="url(#p06da06d333)" style="fill: none; stroke-dasharray: 1.85,0.8; stroke-dashoffset: 0; stroke: #b0b0b0; stroke-opacity: 0.3; stroke-width: 0.5"/>
     </g>
     <g id="line2d_38">
      <g>
       <use xlink:href="#m4982fc0568" x="223.956311" y="157.366614" style="stroke: #000000; stroke-width: 0.6"/>
      </g>
     </g>
    </g>
    <g id="xtick_20">
     <g id="line2d_39">
      <path d="M 233.234952 157.366614 
L 233.234952 7.2 
" clip-path="url(#p06da06d333)" style="fill: none; stroke-dasharray: 1.85,0.8; stroke-dashoffset: 0; stroke: #b0b0b0; stroke-opacity: 0.3; stroke-width: 0.5"/>
     </g>
     <g id="line2d_40">
      <g>
       <use xlink:href="#m4982fc0568" x="233.234952" y="157.366614" style="stroke: #000000; stroke-width: 0.6"/>
      </g>
     </g>
    </g>
    <g id="xtick_21">
     <g id="line2d_41">
      <path d="M 240.816154 157.366614 
L 240.816154 7.2 
" clip-path="url(#p06da06d333)" style="fill: none; stroke-dasharray: 1.85,0.8; stroke-dashoffset: 0; stroke: #b0b0b0; stroke-opacity: 0.3; stroke-width: 0.5"/>
     </g>
     <g id="line2d_42">
      <g>
       <use xlink:href="#m4982fc0568" x="240.816154" y="157.366614" style="stroke: #000000; stroke-width: 0.6"/>
      </g>
     </g>
    </g>
    <g id="text_3">
     <!-- Concentration (pg/ml) -->
     <g transform="translate(108.646441 178.221614) scale(0.06 -0.06)">
      <defs>
       <path id="ArialMT-43" d="M 3763 1606 
L 4369 1453 
Q 4178 706 3683 314 
Q 3188 -78 2472 -78 
Q 1731 -78 1267 223 
Q 803 525 561 1097 
Q 319 1669 319 2325 
Q 319 3041 592 3573 
Q 866 4106 1370 4382 
Q 1875 4659 2481 4659 
Q 3169 4659 3637 4309 
Q 4106 3959 4291 3325 
L 3694 3184 
Q 3534 3684 3231 3912 
Q 2928 4141 2469 4141 
Q 1941 4141 1586 3887 
Q 1231 3634 1087 3207 
Q 944 2781 944 2328 
Q 944 1744 1114 1308 
Q 1284 872 1643 656 
Q 2003 441 2422 441 
Q 2931 441 3284 734 
Q 3638 1028 3763 1606 
z
" transform="scale(0.015625)"/>
       <path id="ArialMT-6f" d="M 213 1659 
Q 213 2581 725 3025 
Q 1153 3394 1769 3394 
Q 2453 3394 2887 2945 
Q 3322 2497 3322 1706 
Q 3322 1066 3130 698 
Q 2938 331 2570 128 
Q 2203 -75 1769 -75 
Q 1072 -75 642 372 
Q 213 819 213 1659 
z
M 791 1659 
Q 791 1022 1069 705 
Q 1347 388 1769 388 
Q 2188 388 2466 706 
Q 2744 1025 2744 1678 
Q 2744 2294 2464 2611 
Q 2184 2928 1769 2928 
Q 1347 2928 1069 2612 
Q 791 2297 791 1659 
z
" transform="scale(0.015625)"/>
       <path id="ArialMT-6e" d="M 422 0 
L 422 3319 
L 928 3319 
L 928 2847 
Q 1294 3394 1984 3394 
Q 2284 3394 2536 3286 
Q 2788 3178 2913 3003 
Q 3038 2828 3088 2588 
Q 3119 2431 3119 2041 
L 3119 0 
L 2556 0 
L 2556 2019 
Q 2556 2363 2490 2533 
Q 2425 2703 2258 2804 
Q 2091 2906 1866 2906 
Q 1506 2906 1245 2678 
Q 984 2450 984 1813 
L 984 0 
L 422 0 
z
" transform="scale(0.015625)"/>
       <path id="ArialMT-63" d="M 2588 1216 
L 3141 1144 
Q 3050 572 2676 248 
Q 2303 -75 1759 -75 
Q 1078 -75 664 370 
Q 250 816 250 1647 
Q 250 2184 428 2587 
Q 606 2991 970 3192 
Q 1334 3394 1763 3394 
Q 2303 3394 2647 3120 
Q 2991 2847 3088 2344 
L 2541 2259 
Q 2463 2594 2264 2762 
Q 2066 2931 1784 2931 
Q 1359 2931 1093 2626 
Q 828 2322 828 1663 
Q 828 994 1084 691 
Q 1341 388 1753 388 
Q 2084 388 2306 591 
Q 2528 794 2588 1216 
z
" transform="scale(0.015625)"/>
       <path id="ArialMT-65" d="M 2694 1069 
L 3275 997 
Q 3138 488 2766 206 
Q 2394 -75 1816 -75 
Q 1088 -75 661 373 
Q 234 822 234 1631 
Q 234 2469 665 2931 
Q 1097 3394 1784 3394 
Q 2450 3394 2872 2941 
Q 3294 2488 3294 1666 
Q 3294 1616 3291 1516 
L 816 1516 
Q 847 969 1125 678 
Q 1403 388 1819 388 
Q 2128 388 2347 550 
Q 2566 713 2694 1069 
z
M 847 1978 
L 2700 1978 
Q 2663 2397 2488 2606 
Q 2219 2931 1791 2931 
Q 1403 2931 1139 2672 
Q 875 2413 847 1978 
z
" transform="scale(0.015625)"/>
       <path id="ArialMT-74" d="M 1650 503 
L 1731 6 
Q 1494 -44 1306 -44 
Q 1000 -44 831 53 
Q 663 150 594 308 
Q 525 466 525 972 
L 525 2881 
L 113 2881 
L 113 3319 
L 525 3319 
L 525 4141 
L 1084 4478 
L 1084 3319 
L 1650 3319 
L 1650 2881 
L 1084 2881 
L 1084 941 
Q 1084 700 1114 631 
Q 1144 563 1211 522 
Q 1278 481 1403 481 
Q 1497 481 1650 503 
z
" transform="scale(0.015625)"/>
       <path id="ArialMT-72" d="M 416 0 
L 416 3319 
L 922 3319 
L 922 2816 
Q 1116 3169 1280 3281 
Q 1444 3394 1641 3394 
Q 1925 3394 2219 3213 
L 2025 2691 
Q 1819 2813 1613 2813 
Q 1428 2813 1281 2702 
Q 1134 2591 1072 2394 
Q 978 2094 978 1738 
L 978 0 
L 416 0 
z
" transform="scale(0.015625)"/>
       <path id="ArialMT-61" d="M 2588 409 
Q 2275 144 1986 34 
Q 1697 -75 1366 -75 
Q 819 -75 525 192 
Q 231 459 231 875 
Q 231 1119 342 1320 
Q 453 1522 633 1644 
Q 813 1766 1038 1828 
Q 1203 1872 1538 1913 
Q 2219 1994 2541 2106 
Q 2544 2222 2544 2253 
Q 2544 2597 2384 2738 
Q 2169 2928 1744 2928 
Q 1347 2928 1158 2789 
Q 969 2650 878 2297 
L 328 2372 
Q 403 2725 575 2942 
Q 747 3159 1072 3276 
Q 1397 3394 1825 3394 
Q 2250 3394 2515 3294 
Q 2781 3194 2906 3042 
Q 3031 2891 3081 2659 
Q 3109 2516 3109 2141 
L 3109 1391 
Q 3109 606 3145 398 
Q 3181 191 3288 0 
L 2700 0 
Q 2613 175 2588 409 
z
M 2541 1666 
Q 2234 1541 1622 1453 
Q 1275 1403 1131 1340 
Q 988 1278 909 1158 
Q 831 1038 831 891 
Q 831 666 1001 516 
Q 1172 366 1500 366 
Q 1825 366 2078 508 
Q 2331 650 2450 897 
Q 2541 1088 2541 1459 
L 2541 1666 
z
" transform="scale(0.015625)"/>
       <path id="ArialMT-69" d="M 425 3934 
L 425 4581 
L 988 4581 
L 988 3934 
L 425 3934 
z
M 425 0 
L 425 3319 
L 988 3319 
L 988 0 
L 425 0 
z
" transform="scale(0.015625)"/>
       <path id="ArialMT-20" transform="scale(0.015625)"/>
       <path id="ArialMT-28" d="M 1497 -1347 
Q 1031 -759 709 28 
Q 388 816 388 1659 
Q 388 2403 628 3084 
Q 909 3875 1497 4659 
L 1900 4659 
Q 1522 4009 1400 3731 
Q 1209 3300 1100 2831 
Q 966 2247 966 1656 
Q 966 153 1900 -1347 
L 1497 -1347 
z
" transform="scale(0.015625)"/>
       <path id="ArialMT-70" d="M 422 -1272 
L 422 3319 
L 934 3319 
L 934 2888 
Q 1116 3141 1344 3267 
Q 1572 3394 1897 3394 
Q 2322 3394 2647 3175 
Q 2972 2956 3137 2557 
Q 3303 2159 3303 1684 
Q 3303 1175 3120 767 
Q 2938 359 2589 142 
Q 2241 -75 1856 -75 
Q 1575 -75 1351 44 
Q 1128 163 984 344 
L 984 -1272 
L 422 -1272 
z
M 931 1641 
Q 931 1000 1190 694 
Q 1450 388 1819 388 
Q 2194 388 2461 705 
Q 2728 1022 2728 1688 
Q 2728 2322 2467 2637 
Q 2206 2953 1844 2953 
Q 1484 2953 1207 2617 
Q 931 2281 931 1641 
z
" transform="scale(0.015625)"/>
       <path id="ArialMT-67" d="M 319 -275 
L 866 -356 
Q 900 -609 1056 -725 
Q 1266 -881 1628 -881 
Q 2019 -881 2231 -725 
Q 2444 -569 2519 -288 
Q 2563 -116 2559 434 
Q 2191 0 1641 0 
Q 956 0 581 494 
Q 206 988 206 1678 
Q 206 2153 378 2554 
Q 550 2956 876 3175 
Q 1203 3394 1644 3394 
Q 2231 3394 2613 2919 
L 2613 3319 
L 3131 3319 
L 3131 450 
Q 3131 -325 2973 -648 
Q 2816 -972 2473 -1159 
Q 2131 -1347 1631 -1347 
Q 1038 -1347 672 -1080 
Q 306 -813 319 -275 
z
M 784 1719 
Q 784 1066 1043 766 
Q 1303 466 1694 466 
Q 2081 466 2343 764 
Q 2606 1063 2606 1700 
Q 2606 2309 2336 2618 
Q 2066 2928 1684 2928 
Q 1309 2928 1046 2623 
Q 784 2319 784 1719 
z
" transform="scale(0.015625)"/>
       <path id="ArialMT-2f" d="M 0 -78 
L 1328 4659 
L 1778 4659 
L 453 -78 
L 0 -78 
z
" transform="scale(0.015625)"/>
       <path id="ArialMT-6d" d="M 422 0 
L 422 3319 
L 925 3319 
L 925 2853 
Q 1081 3097 1340 3245 
Q 1600 3394 1931 3394 
Q 2300 3394 2536 3241 
Q 2772 3088 2869 2813 
Q 3263 3394 3894 3394 
Q 4388 3394 4653 3120 
Q 4919 2847 4919 2278 
L 4919 0 
L 4359 0 
L 4359 2091 
Q 4359 2428 4304 2576 
Q 4250 2725 4106 2815 
Q 3963 2906 3769 2906 
Q 3419 2906 3187 2673 
Q 2956 2441 2956 1928 
L 2956 0 
L 2394 0 
L 2394 2156 
Q 2394 2531 2256 2718 
Q 2119 2906 1806 2906 
Q 1569 2906 1367 2781 
Q 1166 2656 1075 2415 
Q 984 2175 984 1722 
L 984 0 
L 422 0 
z
" transform="scale(0.015625)"/>
       <path id="ArialMT-6c" d="M 409 0 
L 409 4581 
L 972 4581 
L 972 0 
L 409 0 
z
" transform="scale(0.015625)"/>
       <path id="ArialMT-29" d="M 791 -1347 
L 388 -1347 
Q 1322 153 1322 1656 
Q 1322 2244 1188 2822 
Q 1081 3291 891 3722 
Q 769 4003 388 4659 
L 791 4659 
Q 1378 3875 1659 3084 
Q 1900 2403 1900 1659 
Q 1900 816 1576 28 
Q 1253 -759 791 -1347 
z
" transform="scale(0.015625)"/>
      </defs>
      <use xlink:href="#ArialMT-43"/>
      <use xlink:href="#ArialMT-6f" x="72.216797"/>
      <use xlink:href="#ArialMT-6e" x="127.832031"/>
      <use xlink:href="#ArialMT-63" x="183.447266"/>
      <use xlink:href="#ArialMT-65" x="233.447266"/>
      <use xlink:href="#ArialMT-6e" x="289.0625"/>
      <use xlink:href="#ArialMT-74" x="344.677734"/>
      <use xlink:href="#ArialMT-72" x="372.460938"/>
      <use xlink:href="#ArialMT-61" x="405.761719"/>
      <use xlink:href="#ArialMT-74" x="461.376953"/>
      <use xlink:href="#ArialMT-69" x="489.160156"/>
      <use xlink:href="#ArialMT-6f" x="511.376953"/>
      <use xlink:href="#ArialMT-6e" x="566.992188"/>
      <use xlink:href="#ArialMT-20" x="622.607422"/>
      <use xlink:href="#ArialMT-28" x="650.390625"/>
      <use xlink:href="#ArialMT-70" x="683.691406"/>
      <use xlink:href="#ArialMT-67" x="739.306641"/>
      <use xlink:href="#ArialMT-2f" x="794.921875"/>
      <use xlink:href="#ArialMT-6d" x="822.705078"/>
      <use xlink:href="#ArialMT-6c" x="906.005859"/>
      <use xlink:href="#ArialMT-29" x="928.222656"/>
     </g>
    </g>
   </g>
   <g id="matplotlib.axis_2">
    <g id="ytick_1">
     <g id="line2d_43">
      <path d="M 32.170625 151.185638 
L 242.809444 151.185638 
" clip-path="url(#p06da06d333)" style="fill: none; stroke-dasharray: 1.85,0.8; stroke-dashoffset: 0; stroke: #b0b0b0; stroke-opacity: 0.3; stroke-width: 0.5"/>
     </g>
     <g id="line2d_44">
      <defs>
       <path id="m5d3a4a1c82" d="M 0 0 
L -3.5 0 
" style="stroke: #000000; stroke-width: 0.8"/>
      </defs>
      <g>
       <use xlink:href="#m5d3a4a1c82" x="32.170625" y="151.185638" style="stroke: #000000; stroke-width: 0.8"/>
      </g>
     </g>
     <g id="text_4">
      <!-- 0.0 -->
      <g transform="translate(16.830625 153.332982) scale(0.06 -0.06)">
       <defs>
        <path id="ArialMT-2e" d="M 581 0 
L 581 641 
L 1222 641 
L 1222 0 
L 581 0 
z
" transform="scale(0.015625)"/>
       </defs>
       <use xlink:href="#ArialMT-30"/>
       <use xlink:href="#ArialMT-2e" x="55.615234"/>
       <use xlink:href="#ArialMT-30" x="83.398438"/>
      </g>
     </g>
    </g>
    <g id="ytick_2">
     <g id="line2d_45">
      <path d="M 32.170625 126.215146 
L 242.809444 126.215146 
" clip-path="url(#p06da06d333)" style="fill: none; stroke-dasharray: 1.85,0.8; stroke-dashoffset: 0; stroke: #b0b0b0; stroke-opacity: 0.3; stroke-width: 0.5"/>
     </g>
     <g id="line2d_46">
      <g>
       <use xlink:href="#m5d3a4a1c82" x="32.170625" y="126.215146" style="stroke: #000000; stroke-width: 0.8"/>
      </g>
     </g>
     <g id="text_5">
      <!-- 0.5 -->
      <g transform="translate(16.830625 128.362489) scale(0.06 -0.06)">
       <defs>
        <path id="ArialMT-35" d="M 266 1200 
L 856 1250 
Q 922 819 1161 601 
Q 1400 384 1738 384 
Q 2144 384 2425 690 
Q 2706 997 2706 1503 
Q 2706 1984 2436 2262 
Q 2166 2541 1728 2541 
Q 1456 2541 1237 2417 
Q 1019 2294 894 2097 
L 366 2166 
L 809 4519 
L 3088 4519 
L 3088 3981 
L 1259 3981 
L 1013 2750 
Q 1425 3038 1878 3038 
Q 2478 3038 2890 2622 
Q 3303 2206 3303 1553 
Q 3303 931 2941 478 
Q 2500 -78 1738 -78 
Q 1113 -78 717 272 
Q 322 622 266 1200 
z
" transform="scale(0.015625)"/>
       </defs>
       <use xlink:href="#ArialMT-30"/>
       <use xlink:href="#ArialMT-2e" x="55.615234"/>
       <use xlink:href="#ArialMT-35" x="83.398438"/>
      </g>
     </g>
    </g>
    <g id="ytick_3">
     <g id="line2d_47">
      <path d="M 32.170625 101.244653 
L 242.809444 101.244653 
" clip-path="url(#p06da06d333)" style="fill: none; stroke-dasharray: 1.85,0.8; stroke-dashoffset: 0; stroke: #b0b0b0; stroke-opacity: 0.3; stroke-width: 0.5"/>
     </g>
     <g id="line2d_48">
      <g>
       <use xlink:href="#m5d3a4a1c82" x="32.170625" y="101.244653" style="stroke: #000000; stroke-width: 0.8"/>
      </g>
     </g>
     <g id="text_6">
      <!-- 1.0 -->
      <g transform="translate(16.830625 103.391997) scale(0.06 -0.06)">
       <use xlink:href="#ArialMT-31"/>
       <use xlink:href="#ArialMT-2e" x="55.615234"/>
       <use xlink:href="#ArialMT-30" x="83.398438"/>
      </g>
     </g>
    </g>
    <g id="ytick_4">
     <g id="line2d_49">
      <path d="M 32.170625 76.274161 
L 242.809444 76.274161 
" clip-path="url(#p06da06d333)" style="fill: none; stroke-dasharray: 1.85,0.8; stroke-dashoffset: 0; stroke: #b0b0b0; stroke-opacity: 0.3; stroke-width: 0.5"/>
     </g>
     <g id="line2d_50">
      <g>
       <use xlink:href="#m5d3a4a1c82" x="32.170625" y="76.274161" style="stroke: #000000; stroke-width: 0.8"/>
      </g>
     </g>
     <g id="text_7">
      <!-- 1.5 -->
      <g transform="translate(16.830625 78.421504) scale(0.06 -0.06)">
       <use xlink:href="#ArialMT-31"/>
       <use xlink:href="#ArialMT-2e" x="55.615234"/>
       <use xlink:href="#ArialMT-35" x="83.398438"/>
      </g>
     </g>
    </g>
    <g id="ytick_5">
     <g id="line2d_51">
      <path d="M 32.170625 51.303668 
L 242.809444 51.303668 
" clip-path="url(#p06da06d333)" style="fill: none; stroke-dasharray: 1.85,0.8; stroke-dashoffset: 0; stroke: #b0b0b0; stroke-opacity: 0.3; stroke-width: 0.5"/>
     </g>
     <g id="line2d_52">
      <g>
       <use xlink:href="#m5d3a4a1c82" x="32.170625" y="51.303668" style="stroke: #000000; stroke-width: 0.8"/>
      </g>
     </g>
     <g id="text_8">
      <!-- 2.0 -->
      <g transform="translate(16.830625 53.451012) scale(0.06 -0.06)">
       <defs>
        <path id="ArialMT-32" d="M 3222 541 
L 3222 0 
L 194 0 
Q 188 203 259 391 
Q 375 700 629 1000 
Q 884 1300 1366 1694 
Q 2113 2306 2375 2664 
Q 2638 3022 2638 3341 
Q 2638 3675 2398 3904 
Q 2159 4134 1775 4134 
Q 1369 4134 1125 3890 
Q 881 3647 878 3216 
L 300 3275 
Q 359 3922 746 4261 
Q 1134 4600 1788 4600 
Q 2447 4600 2831 4234 
Q 3216 3869 3216 3328 
Q 3216 3053 3103 2787 
Q 2991 2522 2730 2228 
Q 2469 1934 1863 1422 
Q 1356 997 1212 845 
Q 1069 694 975 541 
L 3222 541 
z
" transform="scale(0.015625)"/>
       </defs>
       <use xlink:href="#ArialMT-32"/>
       <use xlink:href="#ArialMT-2e" x="55.615234"/>
       <use xlink:href="#ArialMT-30" x="83.398438"/>
      </g>
     </g>
    </g>
    <g id="ytick_6">
     <g id="line2d_53">
      <path d="M 32.170625 26.333175 
L 242.809444 26.333175 
" clip-path="url(#p06da06d333)" style="fill: none; stroke-dasharray: 1.85,0.8; stroke-dashoffset: 0; stroke: #b0b0b0; stroke-opacity: 0.3; stroke-width: 0.5"/>
     </g>
     <g id="line2d_54">
      <g>
       <use xlink:href="#m5d3a4a1c82" x="32.170625" y="26.333175" style="stroke: #000000; stroke-width: 0.8"/>
      </g>
     </g>
     <g id="text_9">
      <!-- 2.5 -->
      <g transform="translate(16.830625 28.480519) scale(0.06 -0.06)">
       <use xlink:href="#ArialMT-32"/>
       <use xlink:href="#ArialMT-2e" x="55.615234"/>
       <use xlink:href="#ArialMT-35" x="83.398438"/>
      </g>
     </g>
    </g>
    <g id="text_10">
     <!-- Absorbance (normalised) -->
     <g transform="translate(11.567812 115.796588) rotate(-90) scale(0.06 -0.06)">
      <defs>
       <path id="ArialMT-41" d="M -9 0 
L 1750 4581 
L 2403 4581 
L 4278 0 
L 3588 0 
L 3053 1388 
L 1138 1388 
L 634 0 
L -9 0 
z
M 1313 1881 
L 2866 1881 
L 2388 3150 
Q 2169 3728 2063 4100 
Q 1975 3659 1816 3225 
L 1313 1881 
z
" transform="scale(0.015625)"/>
       <path id="ArialMT-62" d="M 941 0 
L 419 0 
L 419 4581 
L 981 4581 
L 981 2947 
Q 1338 3394 1891 3394 
Q 2197 3394 2470 3270 
Q 2744 3147 2920 2923 
Q 3097 2700 3197 2384 
Q 3297 2069 3297 1709 
Q 3297 856 2875 390 
Q 2453 -75 1863 -75 
Q 1275 -75 941 416 
L 941 0 
z
M 934 1684 
Q 934 1088 1097 822 
Q 1363 388 1816 388 
Q 2184 388 2453 708 
Q 2722 1028 2722 1663 
Q 2722 2313 2464 2622 
Q 2206 2931 1841 2931 
Q 1472 2931 1203 2611 
Q 934 2291 934 1684 
z
" transform="scale(0.015625)"/>
       <path id="ArialMT-73" d="M 197 991 
L 753 1078 
Q 800 744 1014 566 
Q 1228 388 1613 388 
Q 2000 388 2187 545 
Q 2375 703 2375 916 
Q 2375 1106 2209 1216 
Q 2094 1291 1634 1406 
Q 1016 1563 777 1677 
Q 538 1791 414 1992 
Q 291 2194 291 2438 
Q 291 2659 392 2848 
Q 494 3038 669 3163 
Q 800 3259 1026 3326 
Q 1253 3394 1513 3394 
Q 1903 3394 2198 3281 
Q 2494 3169 2634 2976 
Q 2775 2784 2828 2463 
L 2278 2388 
Q 2241 2644 2061 2787 
Q 1881 2931 1553 2931 
Q 1166 2931 1000 2803 
Q 834 2675 834 2503 
Q 834 2394 903 2306 
Q 972 2216 1119 2156 
Q 1203 2125 1616 2013 
Q 2213 1853 2448 1751 
Q 2684 1650 2818 1456 
Q 2953 1263 2953 975 
Q 2953 694 2789 445 
Q 2625 197 2315 61 
Q 2006 -75 1616 -75 
Q 969 -75 630 194 
Q 291 463 197 991 
z
" transform="scale(0.015625)"/>
       <path id="ArialMT-64" d="M 2575 0 
L 2575 419 
Q 2259 -75 1647 -75 
Q 1250 -75 917 144 
Q 584 363 401 755 
Q 219 1147 219 1656 
Q 219 2153 384 2558 
Q 550 2963 881 3178 
Q 1213 3394 1622 3394 
Q 1922 3394 2156 3267 
Q 2391 3141 2538 2938 
L 2538 4581 
L 3097 4581 
L 3097 0 
L 2575 0 
z
M 797 1656 
Q 797 1019 1065 703 
Q 1334 388 1700 388 
Q 2069 388 2326 689 
Q 2584 991 2584 1609 
Q 2584 2291 2321 2609 
Q 2059 2928 1675 2928 
Q 1300 2928 1048 2622 
Q 797 2316 797 1656 
z
" transform="scale(0.015625)"/>
      </defs>
      <use xlink:href="#ArialMT-41"/>
      <use xlink:href="#ArialMT-62" x="66.699219"/>
      <use xlink:href="#ArialMT-73" x="122.314453"/>
      <use xlink:href="#ArialMT-6f" x="172.314453"/>
      <use xlink:href="#ArialMT-72" x="227.929688"/>
      <use xlink:href="#ArialMT-62" x="261.230469"/>
      <use xlink:href="#ArialMT-61" x="316.845703"/>
      <use xlink:href="#ArialMT-6e" x="372.460938"/>
      <use xlink:href="#ArialMT-63" x="428.076172"/>
      <use xlink:href="#ArialMT-65" x="478.076172"/>
      <use xlink:href="#ArialMT-20" x="533.691406"/>
      <use xlink:href="#ArialMT-28" x="561.474609"/>
      <use xlink:href="#ArialMT-6e" x="594.775391"/>
      <use xlink:href="#ArialMT-6f" x="650.390625"/>
      <use xlink:href="#ArialMT-72" x="706.005859"/>
      <use xlink:href="#ArialMT-6d" x="739.306641"/>
      <use xlink:href="#ArialMT-61" x="822.607422"/>
      <use xlink:href="#ArialMT-6c" x="878.222656"/>
      <use xlink:href="#ArialMT-69" x="900.439453"/>
      <use xlink:href="#ArialMT-73" x="922.65625"/>
      <use xlink:href="#ArialMT-65" x="972.65625"/>
      <use xlink:href="#ArialMT-64" x="1028.271484"/>
      <use xlink:href="#ArialMT-29" x="1083.886719"/>
     </g>
    </g>
   </g>
   <g id="line2d_55">
    <path d="M 70.567209 145.334186 
L 78.727798 144.313148 
L 86.344348 143.145333 
L 93.416858 141.837713 
L 99.94533 140.405382 
L 105.929762 138.871899 
L 111.914194 137.096759 
L 117.354587 135.245839 
L 122.25094 133.364402 
L 127.147294 131.257717 
L 132.043647 128.904824 
L 136.94 126.284421 
L 141.292315 123.713463 
L 145.644629 120.899973 
L 149.996943 117.830367 
L 154.349257 114.492362 
L 158.701571 110.875485 
L 163.053886 106.971636 
L 167.4062 102.775681 
L 171.758514 98.28604 
L 176.654868 92.887499 
L 181.551221 87.131302 
L 186.447574 81.036269 
L 191.887967 73.90019 
L 197.872399 65.666606 
L 204.94491 55.530011 
L 215.281656 40.257539 
L 228.338599 21.0113 
L 233.234952 14.025755 
L 233.234952 14.025755 
" clip-path="url(#p06da06d333)" style="fill: none; stroke: #000000; stroke-width: 0.75; stroke-linecap: square"/>
   </g>
   <g id="line2d_56">
    <path d="M 70.567209 150.107015 
L 102.121487 149.795106 
L 124.427097 149.361191 
L 141.292315 148.822224 
L 155.437336 148.151049 
L 167.4062 147.358535 
L 177.742946 146.448424 
L 186.447574 145.470954 
L 194.608164 144.333699 
L 201.680674 143.136089 
L 208.209145 141.820324 
L 214.193578 140.404656 
L 220.17801 138.754283 
L 225.618402 137.017667 
L 230.514756 135.233612 
L 233.234952 134.141353 
L 233.234952 134.141353 
" clip-path="url(#p06da06d333)" style="fill: none; stroke: #cc79a7; stroke-width: 0.75; stroke-linecap: square"/>
   </g>
   <g id="line2d_57">
    <path d="M 70.567209 149.371275 
L 88.520505 148.765405 
L 103.209565 148.054219 
L 115.722469 147.235307 
L 126.603254 146.312277 
L 136.395961 145.267242 
L 145.10059 144.126584 
L 153.261179 142.836805 
L 160.877729 141.402353 
L 167.950239 139.834222 
L 174.47871 138.150591 
L 180.463142 136.377086 
L 185.903535 134.546624 
L 191.343928 132.480737 
L 196.240281 130.395215 
L 201.136635 128.069801 
L 206.032988 125.476922 
L 210.385303 122.922828 
L 214.737617 120.109251 
L 219.089931 117.009855 
L 222.898206 114.040691 
L 226.706481 110.80927 
L 230.514756 107.292458 
L 233.234952 104.591863 
L 233.234952 104.591863 
" clip-path="url(#p06da06d333)" style="fill: none; stroke: #009e73; stroke-width: 0.75; stroke-linecap: square"/>
   </g>
   <g id="line2d_58">
    <path d="M 70.567209 150.540859 
L 145.10059 150.390377 
L 179.375064 150.107785 
L 204.400871 149.685092 
L 227.794559 149.062991 
L 233.234952 148.888794 
L 233.234952 148.888794 
" clip-path="url(#p06da06d333)" style="fill: none; stroke: #e69f00; stroke-width: 0.75; stroke-linecap: square"/>
   </g>
   <g id="line2d_59">
    <path d="M 70.567209 146.293871 
L 80.359916 145.431909 
L 89.064544 144.443186 
L 96.681094 143.362194 
L 103.753605 142.138066 
L 110.282076 140.783321 
L 116.266508 139.319362 
L 121.706901 137.776356 
L 127.147294 136.003993 
L 132.043647 134.189204 
L 136.94 132.143498 
L 141.836354 129.844001 
L 146.188668 127.568122 
L 150.540982 125.057042 
L 154.893297 122.294982 
L 159.245611 119.267136 
L 163.597925 115.96024 
L 167.950239 112.363198 
L 172.302553 108.467779 
L 176.654868 104.269338 
L 181.007182 99.767538 
L 185.359496 94.96703 
L 190.255849 89.222353 
L 195.152203 83.136344 
L 200.592596 76.014952 
L 206.577028 67.815071 
L 214.193578 56.977728 
L 233.234952 29.462695 
L 233.234952 29.462695 
" clip-path="url(#p06da06d333)" style="fill: none; stroke: #0072b2; stroke-width: 0.75; stroke-linecap: square"/>
   </g>
   <g id="line2d_60">
    <path d="M 41.745117 148.705716 
L 63.519881 148.364608 
L 78.890302 147.918902 
L 91.058553 147.360847 
L 101.3055 146.679018 
L 110.27158 145.859755 
L 117.95679 144.937651 
L 125.001567 143.864346 
L 131.405909 142.654041 
L 137.169817 141.333895 
L 142.293291 139.943858 
L 147.416765 138.317617 
L 151.899805 136.674027 
L 156.382844 134.798684 
L 160.865884 132.665561 
L 164.708489 130.611647 
L 168.551095 128.331574 
L 172.3937 125.80863 
L 176.236305 123.026934 
L 180.078911 119.972046 
L 183.921516 116.631663 
L 187.764122 112.99639 
L 191.606727 109.060565 
L 195.449332 104.823079 
L 199.291938 100.288169 
L 203.774977 94.63557 
L 208.258017 88.619909 
L 213.381491 81.352278 
L 219.145399 72.771863 
L 226.83061 60.90397 
L 233.234952 50.896002 
L 233.234952 50.896002 
" clip-path="url(#p06da06d333)" style="fill: none; stroke: #d55e00; stroke-width: 0.75; stroke-linecap: square"/>
   </g>
   <g id="line2d_61">
    <path d="M 41.745117 148.67793 
L 62.239012 148.323716 
L 77.609434 147.847641 
L 89.777684 147.2577 
L 100.024632 146.54301 
L 108.990711 145.690505 
L 116.675922 144.737005 
L 123.720698 143.633287 
L 130.125041 142.39489 
L 135.888949 141.050092 
L 141.012423 139.639594 
L 146.135897 137.995302 
L 150.618936 136.338826 
L 155.101976 134.454253 
L 159.585015 132.316535 
L 164.068055 129.899821 
L 167.91066 127.586549 
L 171.753266 125.033106 
L 175.595871 122.224249 
L 179.438477 119.146114 
L 183.281082 115.786859 
L 187.123687 112.137378 
L 190.966293 108.192055 
L 194.808898 103.949527 
L 198.651504 99.413413 
L 203.134543 93.762873 
L 207.617583 87.75074 
L 212.741057 80.484946 
L 218.504965 71.897074 
L 226.190176 59.988885 
L 233.234952 48.901409 
L 233.234952 48.901409 
" clip-path="url(#p06da06d333)" style="fill: none; stroke: #56b4e9; stroke-width: 0.75; stroke-linecap: square"/>
   </g>
   <g id="line2d_62">
    <path d="M 41.745117 146.079443 
L 56.475104 145.603783 
L 68.00292 145.026451 
L 77.609434 144.342345 
L 85.935079 143.544644 
L 93.62029 142.58702 
L 100.665066 141.472329 
L 107.069408 140.215795 
L 112.833317 138.846197 
L 117.95679 137.405548 
L 123.080264 135.722368 
L 127.563304 134.024034 
L 132.046343 132.089988 
L 136.529383 129.895301 
L 140.371988 127.787625 
L 144.214594 125.454469 
L 148.057199 122.881141 
L 151.899805 120.054343 
L 155.74241 116.962835 
L 159.585015 113.598166 
L 163.427621 109.955449 
L 167.270226 106.034143 
L 171.753266 101.113537 
L 176.236305 95.837209 
L 180.719345 90.233673 
L 185.842819 83.481132 
L 192.247161 74.634253 
L 202.494109 59.9945 
L 212.100622 46.409414 
L 217.864531 38.623073 
L 222.988004 32.059275 
L 227.471044 26.648706 
L 231.954084 21.583919 
L 233.234952 20.203645 
L 233.234952 20.203645 
" clip-path="url(#p06da06d333)" style="fill: none; stroke: #f0e442; stroke-width: 0.75; stroke-linecap: square"/>
   </g>
   <g id="line2d_63">
    <path d="M 41.745117 148.34921 
L 62.879446 147.997758 
L 77.609434 147.546804 
L 89.777684 146.956444 
L 99.384198 146.281503 
L 107.709843 145.489036 
L 115.395053 144.531706 
L 121.799396 143.52383 
L 127.563304 142.416146 
L 133.327212 141.08072 
L 138.450686 139.668742 
L 143.57416 138.010754 
L 148.057199 136.329753 
L 152.540239 134.406554 
L 157.023279 132.213793 
L 160.865884 130.098488 
L 164.708489 127.74694 
L 168.551095 125.142131 
L 172.3937 122.268231 
L 176.236305 119.111312 
L 180.078911 115.660161 
L 183.921516 111.907157 
L 187.764122 107.849183 
L 191.606727 103.488514 
L 196.089767 98.030148 
L 200.572806 92.196759 
L 205.69628 85.120821 
L 211.460188 76.734054 
L 219.145399 65.091295 
L 233.234952 43.634532 
L 233.234952 43.634532 
" clip-path="url(#p06da06d333)" style="fill: none; stroke-dasharray: 2.775,1.2; stroke-dashoffset: 0; stroke: #e69f00; stroke-width: 0.75"/>
   </g>
   <g id="line2d_64">
    <path d="M 41.745117 150.228479 
L 87.856381 150.046284 
L 112.192882 149.740716 
L 128.844172 149.321082 
L 141.652857 148.787853 
L 152.540239 148.110803 
L 161.506318 147.334096 
L 169.191529 146.458672 
L 176.236305 145.440722 
L 182.640648 144.296548 
L 188.404556 143.055105 
L 194.168464 141.580698 
L 199.291938 140.048018 
L 204.415412 138.282204 
L 209.538886 136.26125 
L 214.021925 134.268294 
L 218.504965 132.054843 
L 222.988004 129.614302 
L 227.471044 126.944843 
L 232.594518 123.619145 
L 233.234952 123.183493 
L 233.234952 123.183493 
" clip-path="url(#p06da06d333)" style="fill: none; stroke-dasharray: 2.775,1.2; stroke-dashoffset: 0; stroke: #56b4e9; stroke-width: 0.75"/>
   </g>
   <g id="patch_3">
    <path d="M 32.170625 157.366614 
L 32.170625 7.2 
" style="fill: none; stroke: #000000; stroke-width: 0.8; stroke-linejoin: miter; stroke-linecap: square"/>
   </g>
   <g id="patch_4">
    <path d="M 242.809444 157.366614 
L 242.809444 7.2 
" style="fill: none; stroke: #000000; stroke-width: 0.8; stroke-linejoin: miter; stroke-linecap: square"/>
   </g>
   <g id="patch_5">
    <path d="M 32.170625 157.366614 
L 242.809444 157.366614 
" style="fill: none; stroke: #000000; stroke-width: 0.8; stroke-linejoin: miter; stroke-linecap: square"/>
   </g>
   <g id="patch_6">
    <path d="M 32.170625 7.2 
L 242.809444 7.2 
" style="fill: none; stroke: #000000; stroke-width: 0.8; stroke-linejoin: miter; stroke-linecap: square"/>
   </g>
   <g id="legend_1">
    <g id="line2d_65">
     <path d="M 37.570625 14.794687 
L 43.570625 14.794687 
L 49.570625 14.794687 
" style="fill: none; stroke: #000000; stroke-width: 0.75; stroke-linecap: square"/>
    </g>
    <g id="text_11">
     <!-- Uman -->
     <g transform="translate(54.370625 16.894687) scale(0.06 -0.06)">
      <defs>
       <path id="ArialMT-55" d="M 3500 4581 
L 4106 4581 
L 4106 1934 
Q 4106 1244 3950 837 
Q 3794 431 3386 176 
Q 2978 -78 2316 -78 
Q 1672 -78 1262 144 
Q 853 366 678 786 
Q 503 1206 503 1934 
L 503 4581 
L 1109 4581 
L 1109 1938 
Q 1109 1341 1220 1058 
Q 1331 775 1601 622 
Q 1872 469 2263 469 
Q 2931 469 3215 772 
Q 3500 1075 3500 1938 
L 3500 4581 
z
" transform="scale(0.015625)"/>
      </defs>
      <use xlink:href="#ArialMT-55"/>
      <use xlink:href="#ArialMT-6d" x="72.216797"/>
      <use xlink:href="#ArialMT-61" x="155.517578"/>
      <use xlink:href="#ArialMT-6e" x="211.132812"/>
     </g>
    </g>
    <g id="line2d_66">
     <path d="M 37.570625 23.281875 
L 43.570625 23.281875 
L 49.570625 23.281875 
" style="fill: none; stroke: #cc79a7; stroke-width: 0.75; stroke-linecap: square"/>
    </g>
    <g id="text_12">
     <!-- R&amp;D -->
     <g transform="translate(54.370625 25.381875) scale(0.06 -0.06)">
      <defs>
       <path id="ArialMT-52" d="M 503 0 
L 503 4581 
L 2534 4581 
Q 3147 4581 3465 4457 
Q 3784 4334 3975 4021 
Q 4166 3709 4166 3331 
Q 4166 2844 3850 2509 
Q 3534 2175 2875 2084 
Q 3116 1969 3241 1856 
Q 3506 1613 3744 1247 
L 4541 0 
L 3778 0 
L 3172 953 
Q 2906 1366 2734 1584 
Q 2563 1803 2427 1890 
Q 2291 1978 2150 2013 
Q 2047 2034 1813 2034 
L 1109 2034 
L 1109 0 
L 503 0 
z
M 1109 2559 
L 2413 2559 
Q 2828 2559 3062 2645 
Q 3297 2731 3419 2920 
Q 3541 3109 3541 3331 
Q 3541 3656 3305 3865 
Q 3069 4075 2559 4075 
L 1109 4075 
L 1109 2559 
z
" transform="scale(0.015625)"/>
       <path id="ArialMT-26" d="M 3041 541 
Q 2763 231 2434 76 
Q 2106 -78 1725 -78 
Q 1022 -78 609 397 
Q 275 784 275 1263 
Q 275 1688 548 2030 
Q 822 2372 1366 2631 
Q 1056 2988 953 3209 
Q 850 3431 850 3638 
Q 850 4050 1173 4354 
Q 1497 4659 1988 4659 
Q 2456 4659 2754 4371 
Q 3053 4084 3053 3681 
Q 3053 3028 2188 2566 
L 3009 1519 
Q 3150 1794 3228 2156 
L 3813 2031 
Q 3663 1431 3406 1044 
Q 3722 625 4122 341 
L 3744 -106 
Q 3403 113 3041 541 
z
M 1897 2928 
Q 2263 3144 2370 3306 
Q 2478 3469 2478 3666 
Q 2478 3900 2329 4048 
Q 2181 4197 1959 4197 
Q 1731 4197 1579 4050 
Q 1428 3903 1428 3691 
Q 1428 3584 1483 3467 
Q 1538 3350 1647 3219 
L 1897 2928 
z
M 2688 984 
L 1656 2263 
Q 1200 1991 1040 1758 
Q 881 1525 881 1297 
Q 881 1019 1103 719 
Q 1325 419 1731 419 
Q 1984 419 2254 576 
Q 2525 734 2688 984 
z
" transform="scale(0.015625)"/>
       <path id="ArialMT-44" d="M 494 0 
L 494 4581 
L 2072 4581 
Q 2606 4581 2888 4516 
Q 3281 4425 3559 4188 
Q 3922 3881 4101 3404 
Q 4281 2928 4281 2316 
Q 4281 1794 4159 1391 
Q 4038 988 3847 723 
Q 3656 459 3429 307 
Q 3203 156 2883 78 
Q 2563 0 2147 0 
L 494 0 
z
M 1100 541 
L 2078 541 
Q 2531 541 2789 625 
Q 3047 709 3200 863 
Q 3416 1078 3536 1442 
Q 3656 1806 3656 2325 
Q 3656 3044 3420 3430 
Q 3184 3816 2847 3947 
Q 2603 4041 2063 4041 
L 1100 4041 
L 1100 541 
z
" transform="scale(0.015625)"/>
      </defs>
      <use xlink:href="#ArialMT-52"/>
      <use xlink:href="#ArialMT-26" x="72.216797"/>
      <use xlink:href="#ArialMT-44" x="138.916016"/>
     </g>
    </g>
    <g id="line2d_67">
     <path d="M 37.570625 31.769062 
L 43.570625 31.769062 
L 49.570625 31.769062 
" style="fill: none; stroke: #009e73; stroke-width: 0.75; stroke-linecap: square"/>
    </g>
    <g id="text_13">
     <!-- PerkinElmer -->
     <g transform="translate(54.370625 33.869062) scale(0.06 -0.06)">
      <defs>
       <path id="ArialMT-50" d="M 494 0 
L 494 4581 
L 2222 4581 
Q 2678 4581 2919 4538 
Q 3256 4481 3484 4323 
Q 3713 4166 3852 3881 
Q 3991 3597 3991 3256 
Q 3991 2672 3619 2267 
Q 3247 1863 2275 1863 
L 1100 1863 
L 1100 0 
L 494 0 
z
M 1100 2403 
L 2284 2403 
Q 2872 2403 3119 2622 
Q 3366 2841 3366 3238 
Q 3366 3525 3220 3729 
Q 3075 3934 2838 4000 
Q 2684 4041 2272 4041 
L 1100 4041 
L 1100 2403 
z
" transform="scale(0.015625)"/>
       <path id="ArialMT-6b" d="M 425 0 
L 425 4581 
L 988 4581 
L 988 1969 
L 2319 3319 
L 3047 3319 
L 1778 2088 
L 3175 0 
L 2481 0 
L 1384 1697 
L 988 1316 
L 988 0 
L 425 0 
z
" transform="scale(0.015625)"/>
       <path id="ArialMT-45" d="M 506 0 
L 506 4581 
L 3819 4581 
L 3819 4041 
L 1113 4041 
L 1113 2638 
L 3647 2638 
L 3647 2100 
L 1113 2100 
L 1113 541 
L 3925 541 
L 3925 0 
L 506 0 
z
" transform="scale(0.015625)"/>
      </defs>
      <use xlink:href="#ArialMT-50"/>
      <use xlink:href="#ArialMT-65" x="66.699219"/>
      <use xlink:href="#ArialMT-72" x="122.314453"/>
      <use xlink:href="#ArialMT-6b" x="155.615234"/>
      <use xlink:href="#ArialMT-69" x="205.615234"/>
      <use xlink:href="#ArialMT-6e" x="227.832031"/>
      <use xlink:href="#ArialMT-45" x="283.447266"/>
      <use xlink:href="#ArialMT-6c" x="350.146484"/>
      <use xlink:href="#ArialMT-6d" x="372.363281"/>
      <use xlink:href="#ArialMT-65" x="455.664062"/>
      <use xlink:href="#ArialMT-72" x="511.279297"/>
     </g>
    </g>
    <g id="line2d_68">
     <path d="M 37.570625 40.333125 
L 43.570625 40.333125 
L 49.570625 40.333125 
" style="fill: none; stroke: #e69f00; stroke-width: 0.75; stroke-linecap: square"/>
    </g>
    <g id="text_14">
     <!-- Origene -->
     <g transform="translate(54.370625 42.433125) scale(0.06 -0.06)">
      <defs>
       <path id="ArialMT-4f" d="M 309 2231 
Q 309 3372 921 4017 
Q 1534 4663 2503 4663 
Q 3138 4663 3647 4359 
Q 4156 4056 4423 3514 
Q 4691 2972 4691 2284 
Q 4691 1588 4409 1038 
Q 4128 488 3612 205 
Q 3097 -78 2500 -78 
Q 1853 -78 1343 234 
Q 834 547 571 1087 
Q 309 1628 309 2231 
z
M 934 2222 
Q 934 1394 1379 917 
Q 1825 441 2497 441 
Q 3181 441 3623 922 
Q 4066 1403 4066 2288 
Q 4066 2847 3877 3264 
Q 3688 3681 3323 3911 
Q 2959 4141 2506 4141 
Q 1863 4141 1398 3698 
Q 934 3256 934 2222 
z
" transform="scale(0.015625)"/>
      </defs>
      <use xlink:href="#ArialMT-4f"/>
      <use xlink:href="#ArialMT-72" x="77.783203"/>
      <use xlink:href="#ArialMT-69" x="111.083984"/>
      <use xlink:href="#ArialMT-67" x="133.300781"/>
      <use xlink:href="#ArialMT-65" x="188.916016"/>
      <use xlink:href="#ArialMT-6e" x="244.53125"/>
      <use xlink:href="#ArialMT-65" x="300.146484"/>
     </g>
    </g>
    <g id="line2d_69">
     <path d="M 37.570625 48.890625 
L 43.570625 48.890625 
L 49.570625 48.890625 
" style="fill: none; stroke: #0072b2; stroke-width: 0.75; stroke-linecap: square"/>
    </g>
    <g id="text_15">
     <!-- Abcam -->
     <g transform="translate(54.370625 50.990625) scale(0.06 -0.06)">
      <use xlink:href="#ArialMT-41"/>
      <use xlink:href="#ArialMT-62" x="66.699219"/>
      <use xlink:href="#ArialMT-63" x="122.314453"/>
      <use xlink:href="#ArialMT-61" x="172.314453"/>
      <use xlink:href="#ArialMT-6d" x="227.929688"/>
     </g>
    </g>
    <g id="line2d_70">
     <path d="M 37.570625 57.377812 
L 43.570625 57.377812 
L 49.570625 57.377812 
" style="fill: none; stroke: #d55e00; stroke-width: 0.75; stroke-linecap: square"/>
    </g>
    <g id="text_16">
     <!-- Progen -->
     <g transform="translate(54.370625 59.477812) scale(0.06 -0.06)">
      <use xlink:href="#ArialMT-50"/>
      <use xlink:href="#ArialMT-72" x="66.699219"/>
      <use xlink:href="#ArialMT-6f" x="100"/>
      <use xlink:href="#ArialMT-67" x="155.615234"/>
      <use xlink:href="#ArialMT-65" x="211.230469"/>
      <use xlink:href="#ArialMT-6e" x="266.845703"/>
     </g>
    </g>
    <g id="line2d_71">
     <path d="M 37.570625 65.935313 
L 43.570625 65.935313 
L 49.570625 65.935313 
" style="fill: none; stroke: #56b4e9; stroke-width: 0.75; stroke-linecap: square"/>
    </g>
    <g id="text_17">
     <!-- MyBio -->
     <g transform="translate(54.370625 68.035313) scale(0.06 -0.06)">
      <defs>
       <path id="ArialMT-4d" d="M 475 0 
L 475 4581 
L 1388 4581 
L 2472 1338 
Q 2622 884 2691 659 
Q 2769 909 2934 1394 
L 4031 4581 
L 4847 4581 
L 4847 0 
L 4263 0 
L 4263 3834 
L 2931 0 
L 2384 0 
L 1059 3900 
L 1059 0 
L 475 0 
z
" transform="scale(0.015625)"/>
       <path id="ArialMT-79" d="M 397 -1278 
L 334 -750 
Q 519 -800 656 -800 
Q 844 -800 956 -737 
Q 1069 -675 1141 -563 
Q 1194 -478 1313 -144 
Q 1328 -97 1363 -6 
L 103 3319 
L 709 3319 
L 1400 1397 
Q 1534 1031 1641 628 
Q 1738 1016 1872 1384 
L 2581 3319 
L 3144 3319 
L 1881 -56 
Q 1678 -603 1566 -809 
Q 1416 -1088 1222 -1217 
Q 1028 -1347 759 -1347 
Q 597 -1347 397 -1278 
z
" transform="scale(0.015625)"/>
       <path id="ArialMT-42" d="M 469 0 
L 469 4581 
L 2188 4581 
Q 2713 4581 3030 4442 
Q 3347 4303 3526 4014 
Q 3706 3725 3706 3409 
Q 3706 3116 3547 2856 
Q 3388 2597 3066 2438 
Q 3481 2316 3704 2022 
Q 3928 1728 3928 1328 
Q 3928 1006 3792 729 
Q 3656 453 3456 303 
Q 3256 153 2954 76 
Q 2653 0 2216 0 
L 469 0 
z
M 1075 2656 
L 2066 2656 
Q 2469 2656 2644 2709 
Q 2875 2778 2992 2937 
Q 3109 3097 3109 3338 
Q 3109 3566 3000 3739 
Q 2891 3913 2687 3977 
Q 2484 4041 1991 4041 
L 1075 4041 
L 1075 2656 
z
M 1075 541 
L 2216 541 
Q 2509 541 2628 563 
Q 2838 600 2978 687 
Q 3119 775 3209 942 
Q 3300 1109 3300 1328 
Q 3300 1584 3169 1773 
Q 3038 1963 2805 2039 
Q 2572 2116 2134 2116 
L 1075 2116 
L 1075 541 
z
" transform="scale(0.015625)"/>
      </defs>
      <use xlink:href="#ArialMT-4d"/>
      <use xlink:href="#ArialMT-79" x="83.300781"/>
      <use xlink:href="#ArialMT-42" x="133.300781"/>
      <use xlink:href="#ArialMT-69" x="200"/>
      <use xlink:href="#ArialMT-6f" x="222.216797"/>
     </g>
    </g>
    <g id="line2d_72">
     <path d="M 37.570625 74.492813 
L 43.570625 74.492813 
L 49.570625 74.492813 
" style="fill: none; stroke: #f0e442; stroke-width: 0.75; stroke-linecap: square"/>
    </g>
    <g id="text_18">
     <!-- Ella -->
     <g transform="translate(54.370625 76.592813) scale(0.06 -0.06)">
      <use xlink:href="#ArialMT-45"/>
      <use xlink:href="#ArialMT-6c" x="66.699219"/>
      <use xlink:href="#ArialMT-6c" x="88.916016"/>
      <use xlink:href="#ArialMT-61" x="111.132812"/>
     </g>
    </g>
    <g id="line2d_73">
     <path d="M 37.570625 82.98 
L 43.570625 82.98 
L 49.570625 82.98 
" style="fill: none; stroke-dasharray: 2.775,1.2; stroke-dashoffset: 0; stroke: #e69f00; stroke-width: 0.75"/>
    </g>
    <g id="text_19">
     <!-- Encor -->
     <g transform="translate(54.370625 85.08) scale(0.06 -0.06)">
      <use xlink:href="#ArialMT-45"/>
      <use xlink:href="#ArialMT-6e" x="66.699219"/>
      <use xlink:href="#ArialMT-63" x="122.314453"/>
      <use xlink:href="#ArialMT-6f" x="172.314453"/>
      <use xlink:href="#ArialMT-72" x="227.929688"/>
     </g>
    </g>
    <g id="line2d_74">
     <path d="M 37.570625 91.467188 
L 43.570625 91.467188 
L 49.570625 91.467188 
" style="fill: none; stroke-dasharray: 2.775,1.2; stroke-dashoffset: 0; stroke: #56b4e9; stroke-width: 0.75"/>
    </g>
    <g id="text_20">
     <!-- Abnova -->
     <g transform="translate(54.370625 93.567188) scale(0.06 -0.06)">
      <defs>
       <path id="ArialMT-76" d="M 1344 0 
L 81 3319 
L 675 3319 
L 1388 1331 
Q 1503 1009 1600 663 
Q 1675 925 1809 1294 
L 2547 3319 
L 3125 3319 
L 1869 0 
L 1344 0 
z
" transform="scale(0.015625)"/>
      </defs>
      <use xlink:href="#ArialMT-41"/>
      <use xlink:href="#ArialMT-62" x="66.699219"/>
      <use xlink:href="#ArialMT-6e" x="122.314453"/>
      <use xlink:href="#ArialMT-6f" x="177.929688"/>
      <use xlink:href="#ArialMT-76" x="233.544922"/>
      <use xlink:href="#ArialMT-61" x="283.544922"/>
     </g>
    </g>
   </g>
  </g>
 </g>
 <defs>
  <clipPath id="p06da06d333">
   <rect x="32.170625" y="7.2" width="210.638819" height="150.166614"/>
  </clipPath>
 </defs>
</svg>
