<?xml version="1.0" encoding="utf-8" standalone="no"?>
<!DOCTYPE svg PUBLIC "-//W3C//DTD SVG 1.1//EN"
  "http://www.w3.org/Graphics/SVG/1.1/DTD/svg11.dtd">
<svg xmlns:xlink="http://www.w3.org/1999/xlink" width="241.650694pt" height="218.225404pt" viewBox="0 0 241.650694 218.225404" xmlns="http://www.w3.org/2000/svg" version="1.1">
 <metadata>
  <rdf:RDF xmlns:dc="http://purl.org/dc/elements/1.1/" xmlns:cc="http://creativecommons.org/ns#" xmlns:rdf="http://www.w3.org/1999/02/22-rdf-syntax-ns#">
   <cc:Work>
    <dc:type rdf:resource="http://purl.org/dc/dcmitype/StillImage"/>
    <dc:date>2026-06-05T16:06:14.619228</dc:date>
    <dc:format>image/svg+xml</dc:format>
    <dc:creator>
     <cc:Agent>
      <dc:title>Matplotlib v3.9.2, https://matplotlib.org/</dc:title>
     </cc:Agent>
    </dc:creator>
   </cc:Work>
  </rdf:RDF>
 </metadata>
 <defs>
  <style type="text/css">*{stroke-linejoin: round; stroke-linecap: butt}</style>
 </defs>
 <g id="figure_1">
  <g id="patch_1">
   <path d="M 0 218.225404 
L 241.650694 218.225404 
L 241.650694 0 
L 0 0 
z
" style="fill: #ffffff"/>
  </g>
  <g id="axes_1">
   <g id="patch_2">
    <path d="M 31.641875 188.411654 
L 234.450694 188.411654 
L 234.450694 7.2 
L 31.641875 7.2 
z
" style="fill: #ffffff"/>
   </g>
   <g id="PolyCollection_1">
    <path d="M 75.341922 142.489816 
L 48.926298 142.489816 
L 48.176316 141.206453 
L 47.433589 139.923091 
L 46.703736 138.639728 
L 45.992543 137.356365 
L 45.305881 136.073002 
L 44.649624 134.789639 
L 44.029567 133.506276 
L 43.451331 132.222913 
L 42.920275 130.939551 
L 42.441404 129.656188 
L 42.019286 128.372825 
L 41.657971 127.089462 
L 41.360914 125.806099 
L 41.130917 124.522736 
L 40.970073 123.239373 
L 40.879728 121.956011 
L 40.860458 120.672648 
L 40.912053 119.389285 
L 41.033531 118.105922 
L 41.223148 116.822559 
L 41.478443 115.539196 
L 41.796279 114.255833 
L 42.17291 112.972471 
L 42.60405 111.689108 
L 43.084959 110.405745 
L 43.610527 109.122382 
L 44.175368 107.839019 
L 44.773917 106.555656 
L 45.400523 105.272293 
L 46.04954 103.988931 
L 46.715416 102.705568 
L 47.392773 101.422205 
L 48.076475 100.138842 
L 48.761694 98.855479 
L 49.44396 97.572116 
L 50.119201 96.288753 
L 50.783769 95.005391 
L 51.434458 93.722028 
L 52.068511 92.438665 
L 52.683616 91.155302 
L 53.277888 89.871939 
L 53.849855 88.588576 
L 54.398424 87.305213 
L 54.922852 86.021851 
L 55.422706 84.738488 
L 55.897828 83.455125 
L 56.348294 82.171762 
L 56.774375 80.888399 
L 57.176496 79.605036 
L 57.555206 78.321673 
L 57.911141 77.038311 
L 58.244996 75.754948 
L 58.557501 74.471585 
L 58.849397 73.188222 
L 59.121421 71.904859 
L 59.374289 70.621496 
L 59.608692 69.338133 
L 59.82528 68.054771 
L 60.024668 66.771408 
L 60.207428 65.488045 
L 60.37409 64.204682 
L 60.525148 62.921319 
L 60.661061 61.637956 
L 60.78226 60.354593 
L 60.889149 59.071231 
L 60.982117 57.787868 
L 61.061542 56.504505 
L 61.127796 55.221142 
L 61.181254 53.937779 
L 61.222301 52.654416 
L 61.251337 51.371053 
L 61.268785 50.087691 
L 61.275096 48.804328 
L 61.270756 47.520965 
L 61.256293 46.237602 
L 61.232277 44.954239 
L 61.199329 43.670876 
L 61.158123 42.387513 
L 61.109386 41.104151 
L 61.053903 39.820788 
L 60.992514 38.537425 
L 60.926111 37.254062 
L 60.855637 35.970699 
L 60.782079 34.687336 
L 60.706463 33.403973 
L 60.629842 32.12061 
L 60.553289 30.837248 
L 60.477881 29.553885 
L 60.40469 28.270522 
L 60.334764 26.987159 
L 60.269119 25.703796 
L 60.208715 24.420433 
L 60.154448 23.13707 
L 60.107132 21.853708 
L 60.067483 20.570345 
L 60.036115 19.286982 
L 60.01352 18.003619 
L 60.000066 16.720256 
L 59.995986 15.436893 
L 64.272234 15.436893 
L 64.272234 15.436893 
L 64.268154 16.720256 
L 64.2547 18.003619 
L 64.232105 19.286982 
L 64.200737 20.570345 
L 64.161088 21.853708 
L 64.113772 23.13707 
L 64.059505 24.420433 
L 63.999101 25.703796 
L 63.933456 26.987159 
L 63.86353 28.270522 
L 63.790339 29.553885 
L 63.714931 30.837248 
L 63.638378 32.12061 
L 63.561757 33.403973 
L 63.486141 34.687336 
L 63.412583 35.970699 
L 63.342109 37.254062 
L 63.275706 38.537425 
L 63.214317 39.820788 
L 63.158834 41.104151 
L 63.110097 42.387513 
L 63.068891 43.670876 
L 63.035943 44.954239 
L 63.011927 46.237602 
L 62.997464 47.520965 
L 62.993124 48.804328 
L 62.999435 50.087691 
L 63.016883 51.371053 
L 63.045919 52.654416 
L 63.086966 53.937779 
L 63.140424 55.221142 
L 63.206678 56.504505 
L 63.286103 57.787868 
L 63.379071 59.071231 
L 63.48596 60.354593 
L 63.607159 61.637956 
L 63.743072 62.921319 
L 63.89413 64.204682 
L 64.060792 65.488045 
L 64.243552 66.771408 
L 64.44294 68.054771 
L 64.659528 69.338133 
L 64.893931 70.621496 
L 65.146799 71.904859 
L 65.418823 73.188222 
L 65.710719 74.471585 
L 66.023224 75.754948 
L 66.357079 77.038311 
L 66.713014 78.321673 
L 67.091724 79.605036 
L 67.493845 80.888399 
L 67.919926 82.171762 
L 68.370392 83.455125 
L 68.845514 84.738488 
L 69.345368 86.021851 
L 69.869796 87.305213 
L 70.418365 88.588576 
L 70.990332 89.871939 
L 71.584604 91.155302 
L 72.199709 92.438665 
L 72.833762 93.722028 
L 73.484451 95.005391 
L 74.149019 96.288753 
L 74.82426 97.572116 
L 75.506526 98.855479 
L 76.191745 100.138842 
L 76.875447 101.422205 
L 77.552804 102.705568 
L 78.21868 103.988931 
L 78.867697 105.272293 
L 79.494303 106.555656 
L 80.092852 107.839019 
L 80.657693 109.122382 
L 81.183261 110.405745 
L 81.66417 111.689108 
L 82.095311 112.972471 
L 82.471941 114.255833 
L 82.789777 115.539196 
L 83.045072 116.822559 
L 83.234689 118.105922 
L 83.356167 119.389285 
L 83.407762 120.672648 
L 83.388492 121.956011 
L 83.298147 123.239373 
L 83.137303 124.522736 
L 82.907306 125.806099 
L 82.610249 127.089462 
L 82.248934 128.372825 
L 81.826816 129.656188 
L 81.347945 130.939551 
L 80.816889 132.222913 
L 80.238653 133.506276 
L 79.618596 134.789639 
L 78.962339 136.073002 
L 78.275677 137.356365 
L 77.564484 138.639728 
L 76.834631 139.923091 
L 76.091904 141.206453 
L 75.341922 142.489816 
z
" clip-path="url(#pfd51284411)" style="fill: #e69f00; fill-opacity: 0.4"/>
   </g>
   <g id="PolyCollection_2">
    <path d="M 137.787804 168.823002 
L 128.304765 168.823002 
L 128.065951 168.351345 
L 127.81734 167.879688 
L 127.557561 167.408031 
L 127.285171 166.936374 
L 126.998686 166.464717 
L 126.696632 165.99306 
L 126.377589 165.521403 
L 126.040244 165.049746 
L 125.683446 164.578089 
L 125.306253 164.106432 
L 124.907991 163.634775 
L 124.488295 163.163118 
L 124.047155 162.691461 
L 123.584951 162.219804 
L 123.102475 161.748147 
L 122.600956 161.27649 
L 122.082055 160.804833 
L 121.547865 160.333176 
L 121.000887 159.861519 
L 120.443997 159.389862 
L 119.880402 158.918205 
L 119.313583 158.446548 
L 118.747224 157.974891 
L 118.185139 157.503234 
L 117.631192 157.031577 
L 117.089203 156.55992 
L 116.56287 156.088263 
L 116.055679 155.616605 
L 115.570825 155.144948 
L 115.111146 154.673291 
L 114.679056 154.201634 
L 114.276503 153.729977 
L 113.90494 153.25832 
L 113.565307 152.786663 
L 113.258039 152.315006 
L 112.983087 151.843349 
L 112.739959 151.371692 
L 112.527773 150.900035 
L 112.345331 150.428378 
L 112.191192 149.956721 
L 112.063769 149.485064 
L 111.961412 149.013407 
L 111.882506 148.54175 
L 111.825557 148.070093 
L 111.789273 147.598436 
L 111.772632 147.126779 
L 111.774939 146.655122 
L 111.795865 146.183465 
L 111.835463 145.711808 
L 111.894173 145.240151 
L 111.972804 144.768494 
L 112.07249 144.296837 
L 112.194644 143.82518 
L 112.340882 143.353523 
L 112.512947 142.881866 
L 112.712612 142.410209 
L 112.941594 141.938552 
L 113.201449 141.466895 
L 113.493488 140.995238 
L 113.818681 140.523581 
L 114.177589 140.051923 
L 114.570295 139.580266 
L 114.996358 139.108609 
L 115.454782 138.636952 
L 115.944002 138.165295 
L 116.461891 137.693638 
L 117.005781 137.221981 
L 117.572508 136.750324 
L 118.158468 136.278667 
L 118.759682 135.80701 
L 119.371887 135.335353 
L 119.990616 134.863696 
L 120.611302 134.392039 
L 121.229368 133.920382 
L 121.840328 133.448725 
L 122.43988 132.977068 
L 123.023989 132.505411 
L 123.58897 132.033754 
L 124.131554 131.562097 
L 124.64894 131.09044 
L 125.138841 130.618783 
L 125.599512 130.147126 
L 126.02976 129.675469 
L 126.428948 129.203812 
L 126.796979 128.732155 
L 127.134268 128.260498 
L 127.441709 127.788841 
L 127.720623 127.317184 
L 127.972706 126.845527 
L 128.199965 126.37387 
L 128.404652 125.902213 
L 128.589201 125.430556 
L 128.756154 124.958899 
L 128.908095 124.487241 
L 129.047591 124.015584 
L 129.177128 123.543927 
L 129.299063 123.07227 
L 129.415574 122.600613 
L 129.528627 122.128956 
L 136.563942 122.128956 
L 136.563942 122.128956 
L 136.676995 122.600613 
L 136.793506 123.07227 
L 136.915441 123.543927 
L 137.044978 124.015584 
L 137.184474 124.487241 
L 137.336415 124.958899 
L 137.503368 125.430556 
L 137.687917 125.902213 
L 137.892604 126.37387 
L 138.119863 126.845527 
L 138.371946 127.317184 
L 138.65086 127.788841 
L 138.958301 128.260498 
L 139.29559 128.732155 
L 139.663621 129.203812 
L 140.062809 129.675469 
L 140.493057 130.147126 
L 140.953728 130.618783 
L 141.443629 131.09044 
L 141.961015 131.562097 
L 142.503598 132.033754 
L 143.06858 132.505411 
L 143.652689 132.977068 
L 144.252241 133.448725 
L 144.863201 133.920382 
L 145.481267 134.392039 
L 146.101953 134.863696 
L 146.720682 135.335353 
L 147.332887 135.80701 
L 147.934101 136.278667 
L 148.52006 136.750324 
L 149.086788 137.221981 
L 149.630678 137.693638 
L 150.148567 138.165295 
L 150.637787 138.636952 
L 151.096211 139.108609 
L 151.522274 139.580266 
L 151.91498 140.051923 
L 152.273888 140.523581 
L 152.599081 140.995238 
L 152.891119 141.466895 
L 153.150975 141.938552 
L 153.379957 142.410209 
L 153.579622 142.881866 
L 153.751687 143.353523 
L 153.897925 143.82518 
L 154.020079 144.296837 
L 154.119765 144.768494 
L 154.198396 145.240151 
L 154.257106 145.711808 
L 154.296704 146.183465 
L 154.317629 146.655122 
L 154.319937 147.126779 
L 154.303296 147.598436 
L 154.267011 148.070093 
L 154.210063 148.54175 
L 154.131157 149.013407 
L 154.0288 149.485064 
L 153.901376 149.956721 
L 153.747238 150.428378 
L 153.564796 150.900035 
L 153.35261 151.371692 
L 153.109482 151.843349 
L 152.83453 152.315006 
L 152.527262 152.786663 
L 152.187629 153.25832 
L 151.816066 153.729977 
L 151.413513 154.201634 
L 150.981423 154.673291 
L 150.521744 155.144948 
L 150.03689 155.616605 
L 149.529699 156.088263 
L 149.003366 156.55992 
L 148.461377 157.031577 
L 147.907429 157.503234 
L 147.345345 157.974891 
L 146.778986 158.446548 
L 146.212167 158.918205 
L 145.648572 159.389862 
L 145.091682 159.861519 
L 144.544704 160.333176 
L 144.010514 160.804833 
L 143.491613 161.27649 
L 142.990094 161.748147 
L 142.507618 162.219804 
L 142.045414 162.691461 
L 141.604274 163.163118 
L 141.184578 163.634775 
L 140.786316 164.106432 
L 140.409123 164.578089 
L 140.052324 165.049746 
L 139.71498 165.521403 
L 139.395937 165.99306 
L 139.093882 166.464717 
L 138.807398 166.936374 
L 138.535007 167.408031 
L 138.275229 167.879688 
L 138.026618 168.351345 
L 137.787804 168.823002 
z
" clip-path="url(#pfd51284411)" style="fill: #56b4e9; fill-opacity: 0.4"/>
   </g>
   <g id="PolyCollection_3">
    <path d="M 218.353323 180.17476 
L 189.563595 180.17476 
L 189.294928 179.922937 
L 189.032802 179.671114 
L 188.777384 179.419291 
L 188.528807 179.167468 
L 188.287163 178.915645 
L 188.052512 178.663822 
L 187.824874 178.411999 
L 187.604238 178.160176 
L 187.39056 177.908352 
L 187.183764 177.656529 
L 186.983747 177.404706 
L 186.79038 177.152883 
L 186.603511 176.90106 
L 186.422967 176.649237 
L 186.248557 176.397414 
L 186.080077 176.145591 
L 185.917311 175.893768 
L 185.760037 175.641945 
L 185.608025 175.390122 
L 185.461047 175.138299 
L 185.318873 174.886476 
L 185.181281 174.634652 
L 185.048055 174.382829 
L 184.918989 174.131006 
L 184.793889 173.879183 
L 184.672577 173.62736 
L 184.554891 173.375537 
L 184.440687 173.123714 
L 184.32984 172.871891 
L 184.222249 172.620068 
L 184.117832 172.368245 
L 184.016528 172.116422 
L 183.918302 171.864599 
L 183.823137 171.612776 
L 183.731042 171.360952 
L 183.642043 171.109129 
L 183.55619 170.857306 
L 183.473549 170.605483 
L 183.394205 170.35366 
L 183.31826 170.101837 
L 183.24583 169.850014 
L 183.177044 169.598191 
L 183.112043 169.346368 
L 183.050976 169.094545 
L 182.994001 168.842722 
L 182.941282 168.590899 
L 182.892984 168.339076 
L 182.849277 168.087252 
L 182.810332 167.835429 
L 182.776316 167.583606 
L 182.747398 167.331783 
L 182.72374 167.07996 
L 182.705501 166.828137 
L 182.692835 166.576314 
L 182.68589 166.324491 
L 182.684807 166.072668 
L 182.689719 165.820845 
L 182.700754 165.569022 
L 182.718031 165.317199 
L 182.741665 165.065375 
L 182.771761 164.813552 
L 182.808419 164.561729 
L 182.851732 164.309906 
L 182.901789 164.058083 
L 182.958674 163.80626 
L 183.022465 163.554437 
L 183.093238 163.302614 
L 183.171063 163.050791 
L 183.256009 162.798968 
L 183.348142 162.547145 
L 183.447527 162.295322 
L 183.554223 162.043499 
L 183.668292 161.791675 
L 183.78979 161.539852 
L 183.918772 161.288029 
L 184.055291 161.036206 
L 184.199395 160.784383 
L 184.351129 160.53256 
L 184.510534 160.280737 
L 184.677645 160.028914 
L 184.852489 159.777091 
L 185.035086 159.525268 
L 185.225448 159.273445 
L 185.423574 159.021622 
L 185.629452 158.769799 
L 185.843058 158.517975 
L 186.064351 158.266152 
L 186.293275 158.014329 
L 186.529757 157.762506 
L 186.773702 157.510683 
L 187.024997 157.25886 
L 187.283509 157.007037 
L 187.549078 156.755214 
L 187.821526 156.503391 
L 188.100647 156.251568 
L 188.386212 155.999745 
L 188.677968 155.747922 
L 188.975637 155.496099 
L 189.278914 155.244275 
L 218.638004 155.244275 
L 218.638004 155.244275 
L 218.941281 155.496099 
L 219.238949 155.747922 
L 219.530705 155.999745 
L 219.816271 156.251568 
L 220.095392 156.503391 
L 220.367839 156.755214 
L 220.633409 157.007037 
L 220.891921 157.25886 
L 221.143216 157.510683 
L 221.387161 157.762506 
L 221.623642 158.014329 
L 221.852567 158.266152 
L 222.07386 158.517975 
L 222.287466 158.769799 
L 222.493344 159.021622 
L 222.69147 159.273445 
L 222.881832 159.525268 
L 223.064429 159.777091 
L 223.239273 160.028914 
L 223.406384 160.280737 
L 223.565789 160.53256 
L 223.717523 160.784383 
L 223.861627 161.036206 
L 223.998146 161.288029 
L 224.127128 161.539852 
L 224.248626 161.791675 
L 224.362694 162.043499 
L 224.469391 162.295322 
L 224.568775 162.547145 
L 224.660909 162.798968 
L 224.745855 163.050791 
L 224.82368 163.302614 
L 224.894452 163.554437 
L 224.958243 163.80626 
L 225.015128 164.058083 
L 225.065186 164.309906 
L 225.108499 164.561729 
L 225.145157 164.813552 
L 225.175253 165.065375 
L 225.198886 165.317199 
L 225.216164 165.569022 
L 225.227199 165.820845 
L 225.232111 166.072668 
L 225.231028 166.324491 
L 225.224082 166.576314 
L 225.211417 166.828137 
L 225.193178 167.07996 
L 225.16952 167.331783 
L 225.140602 167.583606 
L 225.106586 167.835429 
L 225.067641 168.087252 
L 225.023934 168.339076 
L 224.975636 168.590899 
L 224.922916 168.842722 
L 224.865942 169.094545 
L 224.804875 169.346368 
L 224.739874 169.598191 
L 224.671088 169.850014 
L 224.598658 170.101837 
L 224.522713 170.35366 
L 224.443369 170.605483 
L 224.360728 170.857306 
L 224.274874 171.109129 
L 224.185876 171.360952 
L 224.09378 171.612776 
L 223.998616 171.864599 
L 223.90039 172.116422 
L 223.799086 172.368245 
L 223.694669 172.620068 
L 223.587077 172.871891 
L 223.476231 173.123714 
L 223.362027 173.375537 
L 223.24434 173.62736 
L 223.123028 173.879183 
L 222.997929 174.131006 
L 222.868862 174.382829 
L 222.735636 174.634652 
L 222.598045 174.886476 
L 222.455871 175.138299 
L 222.308893 175.390122 
L 222.156881 175.641945 
L 221.999606 175.893768 
L 221.836841 176.145591 
L 221.668361 176.397414 
L 221.493951 176.649237 
L 221.313407 176.90106 
L 221.126538 177.152883 
L 220.933171 177.404706 
L 220.733154 177.656529 
L 220.526358 177.908352 
L 220.31268 178.160176 
L 220.092044 178.411999 
L 219.864406 178.663822 
L 219.629754 178.915645 
L 219.388111 179.167468 
L 219.139534 179.419291 
L 218.884116 179.671114 
L 218.62199 179.922937 
L 218.353323 180.17476 
z
" clip-path="url(#pfd51284411)" style="fill: #009e73; fill-opacity: 0.4"/>
   </g>
   <g id="matplotlib.axis_1">
    <g id="xtick_1">
     <g id="line2d_1">
      <defs>
       <path id="mc255f5708e" d="M 0 0 
L 0 3.5 
" style="stroke: #000000; stroke-width: 0.8"/>
      </defs>
      <g>
       <use xlink:href="#mc255f5708e" x="62.13411" y="188.411654" style="stroke: #000000; stroke-width: 0.8"/>
      </g>
     </g>
     <g id="text_1">
      <!-- 25 ng/mL -->
      <g transform="translate(47.953016 199.970716) scale(0.06 -0.06)">
       <defs>
        <path id="DejaVuSans-32" d="M 1228 531 
L 3431 531 
L 3431 0 
L 469 0 
L 469 531 
Q 828 903 1448 1529 
Q 2069 2156 2228 2338 
Q 2531 2678 2651 2914 
Q 2772 3150 2772 3378 
Q 2772 3750 2511 3984 
Q 2250 4219 1831 4219 
Q 1534 4219 1204 4116 
Q 875 4013 500 3803 
L 500 4441 
Q 881 4594 1212 4672 
Q 1544 4750 1819 4750 
Q 2544 4750 2975 4387 
Q 3406 4025 3406 3419 
Q 3406 3131 3298 2873 
Q 3191 2616 2906 2266 
Q 2828 2175 2409 1742 
Q 1991 1309 1228 531 
z
" transform="scale(0.015625)"/>
        <path id="DejaVuSans-35" d="M 691 4666 
L 3169 4666 
L 3169 4134 
L 1269 4134 
L 1269 2991 
Q 1406 3038 1543 3061 
Q 1681 3084 1819 3084 
Q 2600 3084 3056 2656 
Q 3513 2228 3513 1497 
Q 3513 744 3044 326 
Q 2575 -91 1722 -91 
Q 1428 -91 1123 -41 
Q 819 9 494 109 
L 494 744 
Q 775 591 1075 516 
Q 1375 441 1709 441 
Q 2250 441 2565 725 
Q 2881 1009 2881 1497 
Q 2881 1984 2565 2268 
Q 2250 2553 1709 2553 
Q 1456 2553 1204 2497 
Q 953 2441 691 2322 
L 691 4666 
z
" transform="scale(0.015625)"/>
        <path id="DejaVuSans-20" transform="scale(0.015625)"/>
        <path id="DejaVuSans-6e" d="M 3513 2113 
L 3513 0 
L 2938 0 
L 2938 2094 
Q 2938 2591 2744 2837 
Q 2550 3084 2163 3084 
Q 1697 3084 1428 2787 
Q 1159 2491 1159 1978 
L 1159 0 
L 581 0 
L 581 3500 
L 1159 3500 
L 1159 2956 
Q 1366 3272 1645 3428 
Q 1925 3584 2291 3584 
Q 2894 3584 3203 3211 
Q 3513 2838 3513 2113 
z
" transform="scale(0.015625)"/>
        <path id="DejaVuSans-67" d="M 2906 1791 
Q 2906 2416 2648 2759 
Q 2391 3103 1925 3103 
Q 1463 3103 1205 2759 
Q 947 2416 947 1791 
Q 947 1169 1205 825 
Q 1463 481 1925 481 
Q 2391 481 2648 825 
Q 2906 1169 2906 1791 
z
M 3481 434 
Q 3481 -459 3084 -895 
Q 2688 -1331 1869 -1331 
Q 1566 -1331 1297 -1286 
Q 1028 -1241 775 -1147 
L 775 -588 
Q 1028 -725 1275 -790 
Q 1522 -856 1778 -856 
Q 2344 -856 2625 -561 
Q 2906 -266 2906 331 
L 2906 616 
Q 2728 306 2450 153 
Q 2172 0 1784 0 
Q 1141 0 747 490 
Q 353 981 353 1791 
Q 353 2603 747 3093 
Q 1141 3584 1784 3584 
Q 2172 3584 2450 3431 
Q 2728 3278 2906 2969 
L 2906 3500 
L 3481 3500 
L 3481 434 
z
" transform="scale(0.015625)"/>
        <path id="DejaVuSans-2f" d="M 1625 4666 
L 2156 4666 
L 531 -594 
L 0 -594 
L 1625 4666 
z
" transform="scale(0.015625)"/>
        <path id="DejaVuSans-6d" d="M 3328 2828 
Q 3544 3216 3844 3400 
Q 4144 3584 4550 3584 
Q 5097 3584 5394 3201 
Q 5691 2819 5691 2113 
L 5691 0 
L 5113 0 
L 5113 2094 
Q 5113 2597 4934 2840 
Q 4756 3084 4391 3084 
Q 3944 3084 3684 2787 
Q 3425 2491 3425 1978 
L 3425 0 
L 2847 0 
L 2847 2094 
Q 2847 2600 2669 2842 
Q 2491 3084 2119 3084 
Q 1678 3084 1418 2786 
Q 1159 2488 1159 1978 
L 1159 0 
L 581 0 
L 581 3500 
L 1159 3500 
L 1159 2956 
Q 1356 3278 1631 3431 
Q 1906 3584 2284 3584 
Q 2666 3584 2933 3390 
Q 3200 3197 3328 2828 
z
" transform="scale(0.015625)"/>
        <path id="DejaVuSans-4c" d="M 628 4666 
L 1259 4666 
L 1259 531 
L 3531 531 
L 3531 0 
L 628 0 
L 628 4666 
z
" transform="scale(0.015625)"/>
       </defs>
       <use xlink:href="#DejaVuSans-32"/>
       <use xlink:href="#DejaVuSans-35" x="63.623047"/>
       <use xlink:href="#DejaVuSans-20" x="127.246094"/>
       <use xlink:href="#DejaVuSans-6e" x="159.033203"/>
       <use xlink:href="#DejaVuSans-67" x="222.412109"/>
       <use xlink:href="#DejaVuSans-2f" x="285.888672"/>
       <use xlink:href="#DejaVuSans-6d" x="319.580078"/>
       <use xlink:href="#DejaVuSans-4c" x="416.992188"/>
      </g>
     </g>
    </g>
    <g id="xtick_2">
     <g id="line2d_2">
      <g>
       <use xlink:href="#mc255f5708e" x="133.046284" y="188.411654" style="stroke: #000000; stroke-width: 0.8"/>
      </g>
     </g>
     <g id="text_2">
      <!-- 50 ng/mL -->
      <g transform="translate(118.865191 199.970716) scale(0.06 -0.06)">
       <defs>
        <path id="DejaVuSans-30" d="M 2034 4250 
Q 1547 4250 1301 3770 
Q 1056 3291 1056 2328 
Q 1056 1369 1301 889 
Q 1547 409 2034 409 
Q 2525 409 2770 889 
Q 3016 1369 3016 2328 
Q 3016 3291 2770 3770 
Q 2525 4250 2034 4250 
z
M 2034 4750 
Q 2819 4750 3233 4129 
Q 3647 3509 3647 2328 
Q 3647 1150 3233 529 
Q 2819 -91 2034 -91 
Q 1250 -91 836 529 
Q 422 1150 422 2328 
Q 422 3509 836 4129 
Q 1250 4750 2034 4750 
z
" transform="scale(0.015625)"/>
       </defs>
       <use xlink:href="#DejaVuSans-35"/>
       <use xlink:href="#DejaVuSans-30" x="63.623047"/>
       <use xlink:href="#DejaVuSans-20" x="127.246094"/>
       <use xlink:href="#DejaVuSans-6e" x="159.033203"/>
       <use xlink:href="#DejaVuSans-67" x="222.412109"/>
       <use xlink:href="#DejaVuSans-2f" x="285.888672"/>
       <use xlink:href="#DejaVuSans-6d" x="319.580078"/>
       <use xlink:href="#DejaVuSans-4c" x="416.992188"/>
      </g>
     </g>
    </g>
    <g id="xtick_3">
     <g id="line2d_3">
      <g>
       <use xlink:href="#mc255f5708e" x="203.958459" y="188.411654" style="stroke: #000000; stroke-width: 0.8"/>
      </g>
     </g>
     <g id="text_3">
      <!-- 100 ng/mL -->
      <g transform="translate(187.868615 199.970716) scale(0.06 -0.06)">
       <defs>
        <path id="DejaVuSans-31" d="M 794 531 
L 1825 531 
L 1825 4091 
L 703 3866 
L 703 4441 
L 1819 4666 
L 2450 4666 
L 2450 531 
L 3481 531 
L 3481 0 
L 794 0 
L 794 531 
z
" transform="scale(0.015625)"/>
       </defs>
       <use xlink:href="#DejaVuSans-31"/>
       <use xlink:href="#DejaVuSans-30" x="63.623047"/>
       <use xlink:href="#DejaVuSans-30" x="127.246094"/>
       <use xlink:href="#DejaVuSans-20" x="190.869141"/>
       <use xlink:href="#DejaVuSans-6e" x="222.65625"/>
       <use xlink:href="#DejaVuSans-67" x="286.035156"/>
       <use xlink:href="#DejaVuSans-2f" x="349.511719"/>
       <use xlink:href="#DejaVuSans-6d" x="383.203125"/>
       <use xlink:href="#DejaVuSans-4c" x="480.615234"/>
      </g>
     </g>
    </g>
    <g id="text_4">
     <!-- AOC concentration -->
     <g transform="translate(104.859409 209.777591) scale(0.06 -0.06)">
      <defs>
       <path id="DejaVuSans-41" d="M 2188 4044 
L 1331 1722 
L 3047 1722 
L 2188 4044 
z
M 1831 4666 
L 2547 4666 
L 4325 0 
L 3669 0 
L 3244 1197 
L 1141 1197 
L 716 0 
L 50 0 
L 1831 4666 
z
" transform="scale(0.015625)"/>
       <path id="DejaVuSans-4f" d="M 2522 4238 
Q 1834 4238 1429 3725 
Q 1025 3213 1025 2328 
Q 1025 1447 1429 934 
Q 1834 422 2522 422 
Q 3209 422 3611 934 
Q 4013 1447 4013 2328 
Q 4013 3213 3611 3725 
Q 3209 4238 2522 4238 
z
M 2522 4750 
Q 3503 4750 4090 4092 
Q 4678 3434 4678 2328 
Q 4678 1225 4090 567 
Q 3503 -91 2522 -91 
Q 1538 -91 948 565 
Q 359 1222 359 2328 
Q 359 3434 948 4092 
Q 1538 4750 2522 4750 
z
" transform="scale(0.015625)"/>
       <path id="DejaVuSans-43" d="M 4122 4306 
L 4122 3641 
Q 3803 3938 3442 4084 
Q 3081 4231 2675 4231 
Q 1875 4231 1450 3742 
Q 1025 3253 1025 2328 
Q 1025 1406 1450 917 
Q 1875 428 2675 428 
Q 3081 428 3442 575 
Q 3803 722 4122 1019 
L 4122 359 
Q 3791 134 3420 21 
Q 3050 -91 2638 -91 
Q 1578 -91 968 557 
Q 359 1206 359 2328 
Q 359 3453 968 4101 
Q 1578 4750 2638 4750 
Q 3056 4750 3426 4639 
Q 3797 4528 4122 4306 
z
" transform="scale(0.015625)"/>
       <path id="DejaVuSans-63" d="M 3122 3366 
L 3122 2828 
Q 2878 2963 2633 3030 
Q 2388 3097 2138 3097 
Q 1578 3097 1268 2742 
Q 959 2388 959 1747 
Q 959 1106 1268 751 
Q 1578 397 2138 397 
Q 2388 397 2633 464 
Q 2878 531 3122 666 
L 3122 134 
Q 2881 22 2623 -34 
Q 2366 -91 2075 -91 
Q 1284 -91 818 406 
Q 353 903 353 1747 
Q 353 2603 823 3093 
Q 1294 3584 2113 3584 
Q 2378 3584 2631 3529 
Q 2884 3475 3122 3366 
z
" transform="scale(0.015625)"/>
       <path id="DejaVuSans-6f" d="M 1959 3097 
Q 1497 3097 1228 2736 
Q 959 2375 959 1747 
Q 959 1119 1226 758 
Q 1494 397 1959 397 
Q 2419 397 2687 759 
Q 2956 1122 2956 1747 
Q 2956 2369 2687 2733 
Q 2419 3097 1959 3097 
z
M 1959 3584 
Q 2709 3584 3137 3096 
Q 3566 2609 3566 1747 
Q 3566 888 3137 398 
Q 2709 -91 1959 -91 
Q 1206 -91 779 398 
Q 353 888 353 1747 
Q 353 2609 779 3096 
Q 1206 3584 1959 3584 
z
" transform="scale(0.015625)"/>
       <path id="DejaVuSans-65" d="M 3597 1894 
L 3597 1613 
L 953 1613 
Q 991 1019 1311 708 
Q 1631 397 2203 397 
Q 2534 397 2845 478 
Q 3156 559 3463 722 
L 3463 178 
Q 3153 47 2828 -22 
Q 2503 -91 2169 -91 
Q 1331 -91 842 396 
Q 353 884 353 1716 
Q 353 2575 817 3079 
Q 1281 3584 2069 3584 
Q 2775 3584 3186 3129 
Q 3597 2675 3597 1894 
z
M 3022 2063 
Q 3016 2534 2758 2815 
Q 2500 3097 2075 3097 
Q 1594 3097 1305 2825 
Q 1016 2553 972 2059 
L 3022 2063 
z
" transform="scale(0.015625)"/>
       <path id="DejaVuSans-74" d="M 1172 4494 
L 1172 3500 
L 2356 3500 
L 2356 3053 
L 1172 3053 
L 1172 1153 
Q 1172 725 1289 603 
Q 1406 481 1766 481 
L 2356 481 
L 2356 0 
L 1766 0 
Q 1100 0 847 248 
Q 594 497 594 1153 
L 594 3053 
L 172 3053 
L 172 3500 
L 594 3500 
L 594 4494 
L 1172 4494 
z
" transform="scale(0.015625)"/>
       <path id="DejaVuSans-72" d="M 2631 2963 
Q 2534 3019 2420 3045 
Q 2306 3072 2169 3072 
Q 1681 3072 1420 2755 
Q 1159 2438 1159 1844 
L 1159 0 
L 581 0 
L 581 3500 
L 1159 3500 
L 1159 2956 
Q 1341 3275 1631 3429 
Q 1922 3584 2338 3584 
Q 2397 3584 2469 3576 
Q 2541 3569 2628 3553 
L 2631 2963 
z
" transform="scale(0.015625)"/>
       <path id="DejaVuSans-61" d="M 2194 1759 
Q 1497 1759 1228 1600 
Q 959 1441 959 1056 
Q 959 750 1161 570 
Q 1363 391 1709 391 
Q 2188 391 2477 730 
Q 2766 1069 2766 1631 
L 2766 1759 
L 2194 1759 
z
M 3341 1997 
L 3341 0 
L 2766 0 
L 2766 531 
Q 2569 213 2275 61 
Q 1981 -91 1556 -91 
Q 1019 -91 701 211 
Q 384 513 384 1019 
Q 384 1609 779 1909 
Q 1175 2209 1959 2209 
L 2766 2209 
L 2766 2266 
Q 2766 2663 2505 2880 
Q 2244 3097 1772 3097 
Q 1472 3097 1187 3025 
Q 903 2953 641 2809 
L 641 3341 
Q 956 3463 1253 3523 
Q 1550 3584 1831 3584 
Q 2591 3584 2966 3190 
Q 3341 2797 3341 1997 
z
" transform="scale(0.015625)"/>
       <path id="DejaVuSans-69" d="M 603 3500 
L 1178 3500 
L 1178 0 
L 603 0 
L 603 3500 
z
M 603 4863 
L 1178 4863 
L 1178 4134 
L 603 4134 
L 603 4863 
z
" transform="scale(0.015625)"/>
      </defs>
      <use xlink:href="#DejaVuSans-41"/>
      <use xlink:href="#DejaVuSans-4f" x="66.658203"/>
      <use xlink:href="#DejaVuSans-43" x="145.369141"/>
      <use xlink:href="#DejaVuSans-20" x="215.193359"/>
      <use xlink:href="#DejaVuSans-63" x="246.980469"/>
      <use xlink:href="#DejaVuSans-6f" x="301.960938"/>
      <use xlink:href="#DejaVuSans-6e" x="363.142578"/>
      <use xlink:href="#DejaVuSans-63" x="426.521484"/>
      <use xlink:href="#DejaVuSans-65" x="481.501953"/>
      <use xlink:href="#DejaVuSans-6e" x="543.025391"/>
      <use xlink:href="#DejaVuSans-74" x="606.404297"/>
      <use xlink:href="#DejaVuSans-72" x="645.613281"/>
      <use xlink:href="#DejaVuSans-61" x="686.726562"/>
      <use xlink:href="#DejaVuSans-74" x="748.005859"/>
      <use xlink:href="#DejaVuSans-69" x="787.214844"/>
      <use xlink:href="#DejaVuSans-6f" x="814.998047"/>
      <use xlink:href="#DejaVuSans-6e" x="876.179688"/>
     </g>
    </g>
   </g>
   <g id="matplotlib.axis_2">
    <g id="ytick_1">
     <g id="line2d_4">
      <defs>
       <path id="m30504b875b" d="M 0 0 
L -3.5 0 
" style="stroke: #000000; stroke-width: 0.8"/>
      </defs>
      <g>
       <use xlink:href="#m30504b875b" x="31.641875" y="164.412447" style="stroke: #000000; stroke-width: 0.8"/>
      </g>
     </g>
     <g id="text_5">
      <!-- 32 -->
      <g transform="translate(17.006875 166.691978) scale(0.06 -0.06)">
       <defs>
        <path id="DejaVuSans-33" d="M 2597 2516 
Q 3050 2419 3304 2112 
Q 3559 1806 3559 1356 
Q 3559 666 3084 287 
Q 2609 -91 1734 -91 
Q 1441 -91 1130 -33 
Q 819 25 488 141 
L 488 750 
Q 750 597 1062 519 
Q 1375 441 1716 441 
Q 2309 441 2620 675 
Q 2931 909 2931 1356 
Q 2931 1769 2642 2001 
Q 2353 2234 1838 2234 
L 1294 2234 
L 1294 2753 
L 1863 2753 
Q 2328 2753 2575 2939 
Q 2822 3125 2822 3475 
Q 2822 3834 2567 4026 
Q 2313 4219 1838 4219 
Q 1578 4219 1281 4162 
Q 984 4106 628 3988 
L 628 4550 
Q 988 4650 1302 4700 
Q 1616 4750 1894 4750 
Q 2613 4750 3031 4423 
Q 3450 4097 3450 3541 
Q 3450 3153 3228 2886 
Q 3006 2619 2597 2516 
z
" transform="scale(0.015625)"/>
       </defs>
       <use xlink:href="#DejaVuSans-33"/>
       <use xlink:href="#DejaVuSans-32" x="63.623047"/>
      </g>
     </g>
    </g>
    <g id="ytick_2">
     <g id="line2d_5">
      <g>
       <use xlink:href="#m30504b875b" x="31.641875" y="135.490771" style="stroke: #000000; stroke-width: 0.8"/>
      </g>
     </g>
     <g id="text_6">
      <!-- 34 -->
      <g transform="translate(17.006875 137.770302) scale(0.06 -0.06)">
       <defs>
        <path id="DejaVuSans-34" d="M 2419 4116 
L 825 1625 
L 2419 1625 
L 2419 4116 
z
M 2253 4666 
L 3047 4666 
L 3047 1625 
L 3713 1625 
L 3713 1100 
L 3047 1100 
L 3047 0 
L 2419 0 
L 2419 1100 
L 313 1100 
L 313 1709 
L 2253 4666 
z
" transform="scale(0.015625)"/>
       </defs>
       <use xlink:href="#DejaVuSans-33"/>
       <use xlink:href="#DejaVuSans-34" x="63.623047"/>
      </g>
     </g>
    </g>
    <g id="ytick_3">
     <g id="line2d_6">
      <g>
       <use xlink:href="#m30504b875b" x="31.641875" y="106.569095" style="stroke: #000000; stroke-width: 0.8"/>
      </g>
     </g>
     <g id="text_7">
      <!-- 36 -->
      <g transform="translate(17.006875 108.848626) scale(0.06 -0.06)">
       <defs>
        <path id="DejaVuSans-36" d="M 2113 2584 
Q 1688 2584 1439 2293 
Q 1191 2003 1191 1497 
Q 1191 994 1439 701 
Q 1688 409 2113 409 
Q 2538 409 2786 701 
Q 3034 994 3034 1497 
Q 3034 2003 2786 2293 
Q 2538 2584 2113 2584 
z
M 3366 4563 
L 3366 3988 
Q 3128 4100 2886 4159 
Q 2644 4219 2406 4219 
Q 1781 4219 1451 3797 
Q 1122 3375 1075 2522 
Q 1259 2794 1537 2939 
Q 1816 3084 2150 3084 
Q 2853 3084 3261 2657 
Q 3669 2231 3669 1497 
Q 3669 778 3244 343 
Q 2819 -91 2113 -91 
Q 1303 -91 875 529 
Q 447 1150 447 2328 
Q 447 3434 972 4092 
Q 1497 4750 2381 4750 
Q 2619 4750 2861 4703 
Q 3103 4656 3366 4563 
z
" transform="scale(0.015625)"/>
       </defs>
       <use xlink:href="#DejaVuSans-33"/>
       <use xlink:href="#DejaVuSans-36" x="63.623047"/>
      </g>
     </g>
    </g>
    <g id="ytick_4">
     <g id="line2d_7">
      <g>
       <use xlink:href="#m30504b875b" x="31.641875" y="77.647419" style="stroke: #000000; stroke-width: 0.8"/>
      </g>
     </g>
     <g id="text_8">
      <!-- 38 -->
      <g transform="translate(17.006875 79.92695) scale(0.06 -0.06)">
       <defs>
        <path id="DejaVuSans-38" d="M 2034 2216 
Q 1584 2216 1326 1975 
Q 1069 1734 1069 1313 
Q 1069 891 1326 650 
Q 1584 409 2034 409 
Q 2484 409 2743 651 
Q 3003 894 3003 1313 
Q 3003 1734 2745 1975 
Q 2488 2216 2034 2216 
z
M 1403 2484 
Q 997 2584 770 2862 
Q 544 3141 544 3541 
Q 544 4100 942 4425 
Q 1341 4750 2034 4750 
Q 2731 4750 3128 4425 
Q 3525 4100 3525 3541 
Q 3525 3141 3298 2862 
Q 3072 2584 2669 2484 
Q 3125 2378 3379 2068 
Q 3634 1759 3634 1313 
Q 3634 634 3220 271 
Q 2806 -91 2034 -91 
Q 1263 -91 848 271 
Q 434 634 434 1313 
Q 434 1759 690 2068 
Q 947 2378 1403 2484 
z
M 1172 3481 
Q 1172 3119 1398 2916 
Q 1625 2713 2034 2713 
Q 2441 2713 2670 2916 
Q 2900 3119 2900 3481 
Q 2900 3844 2670 4047 
Q 2441 4250 2034 4250 
Q 1625 4250 1398 4047 
Q 1172 3844 1172 3481 
z
" transform="scale(0.015625)"/>
       </defs>
       <use xlink:href="#DejaVuSans-33"/>
       <use xlink:href="#DejaVuSans-38" x="63.623047"/>
      </g>
     </g>
    </g>
    <g id="ytick_5">
     <g id="line2d_8">
      <g>
       <use xlink:href="#m30504b875b" x="31.641875" y="48.725742" style="stroke: #000000; stroke-width: 0.8"/>
      </g>
     </g>
     <g id="text_9">
      <!-- 40 -->
      <g transform="translate(17.006875 51.005274) scale(0.06 -0.06)">
       <use xlink:href="#DejaVuSans-34"/>
       <use xlink:href="#DejaVuSans-30" x="63.623047"/>
      </g>
     </g>
    </g>
    <g id="ytick_6">
     <g id="line2d_9">
      <g>
       <use xlink:href="#m30504b875b" x="31.641875" y="19.804066" style="stroke: #000000; stroke-width: 0.8"/>
      </g>
     </g>
     <g id="text_10">
      <!-- 42 -->
      <g transform="translate(17.006875 22.083598) scale(0.06 -0.06)">
       <use xlink:href="#DejaVuSans-34"/>
       <use xlink:href="#DejaVuSans-32" x="63.623047"/>
      </g>
     </g>
    </g>
    <g id="text_11">
     <!-- Ct -->
     <g transform="translate(11.759063 101.076764) rotate(-90) scale(0.06 -0.06)">
      <use xlink:href="#DejaVuSans-43"/>
      <use xlink:href="#DejaVuSans-74" x="69.824219"/>
     </g>
    </g>
   </g>
   <g id="LineCollection_1">
    <path d="M 51.497284 118.296834 
L 72.770936 118.296834 
" clip-path="url(#pfd51284411)" style="fill: none; stroke: #000000; stroke-width: 0.8"/>
   </g>
   <g id="LineCollection_2">
    <path d="M 122.409458 147.507727 
L 143.683111 147.507727 
" clip-path="url(#pfd51284411)" style="fill: none; stroke: #000000; stroke-width: 0.8"/>
   </g>
   <g id="LineCollection_3">
    <path d="M 193.321633 167.311845 
L 214.595285 167.311845 
" clip-path="url(#pfd51284411)" style="fill: none; stroke: #000000; stroke-width: 0.8"/>
   </g>
   <g id="patch_3">
    <path d="M 31.641875 188.411654 
L 31.641875 7.2 
" style="fill: none; stroke: #000000; stroke-width: 0.6; stroke-linejoin: miter; stroke-linecap: square"/>
   </g>
   <g id="patch_4">
    <path d="M 31.641875 188.411654 
L 234.450694 188.411654 
" style="fill: none; stroke: #000000; stroke-width: 0.6; stroke-linejoin: miter; stroke-linecap: square"/>
   </g>
   <g id="PathCollection_1">
    <defs>
     <path id="md73f8b0128" d="M 0 1.414214 
C 0.375054 1.414214 0.734797 1.265203 1 1 
C 1.265203 0.734797 1.414214 0.375054 1.414214 0 
C 1.414214 -0.375054 1.265203 -0.734797 1 -1 
C 0.734797 -1.265203 0.375054 -1.414214 0 -1.414214 
C -0.375054 -1.414214 -0.734797 -1.265203 -1 -1 
C -1.265203 -0.734797 -1.414214 -0.375054 -1.414214 0 
C -1.414214 0.375054 -1.265203 0.734797 -1 1 
C -0.734797 1.265203 -0.375054 1.414214 0 1.414214 
z
"/>
    </defs>
    <g clip-path="url(#pfd51284411)">
     <use xlink:href="#md73f8b0128" x="60.460376" y="128.419421" style="fill: #e69f00; fill-opacity: 0.8"/>
     <use xlink:href="#md73f8b0128" x="67.526163" y="115.549275" style="fill: #e69f00; fill-opacity: 0.8"/>
     <use xlink:href="#md73f8b0128" x="54.842132" y="85.485193" style="fill: #e69f00; fill-opacity: 0.8"/>
     <use xlink:href="#md73f8b0128" x="55.89532" y="122.851998" style="fill: #e69f00; fill-opacity: 0.8"/>
     <use xlink:href="#md73f8b0128" x="69.398348" y="103.228641" style="fill: #e69f00; fill-opacity: 0.8"/>
     <use xlink:href="#md73f8b0128" x="62.437298" y="116.604916" style="fill: #e69f00; fill-opacity: 0.8"/>
     <use xlink:href="#md73f8b0128" x="53.987503" y="118.296834" style="fill: #e69f00; fill-opacity: 0.8"/>
     <use xlink:href="#md73f8b0128" x="55.643927" y="15.436893" style="fill: #e69f00; fill-opacity: 0.8"/>
     <use xlink:href="#md73f8b0128" x="61.74858" y="118.933111" style="fill: #e69f00; fill-opacity: 0.8"/>
     <use xlink:href="#md73f8b0128" x="57.183791" y="125.888774" style="fill: #e69f00; fill-opacity: 0.8"/>
     <use xlink:href="#md73f8b0128" x="59.748025" y="133.40841" style="fill: #e69f00; fill-opacity: 0.8"/>
     <use xlink:href="#md73f8b0128" x="65.595669" y="142.489816" style="fill: #e69f00; fill-opacity: 0.8"/>
     <use xlink:href="#md73f8b0128" x="55.878561" y="117.87747" style="fill: #e69f00; fill-opacity: 0.8"/>
    </g>
   </g>
   <g id="PathCollection_2">
    <defs>
     <path id="m3eb0f73ffd" d="M 0 1.414214 
C 0.375054 1.414214 0.734797 1.265203 1 1 
C 1.265203 0.734797 1.414214 0.375054 1.414214 0 
C 1.414214 -0.375054 1.265203 -0.734797 1 -1 
C 0.734797 -1.265203 0.375054 -1.414214 0 -1.414214 
C -0.375054 -1.414214 -0.734797 -1.265203 -1 -1 
C -1.265203 -0.734797 -1.414214 -0.375054 -1.414214 0 
C -1.414214 0.375054 -1.265203 0.734797 -1 1 
C -0.734797 1.265203 -0.375054 1.414214 0 1.414214 
z
"/>
    </defs>
    <g clip-path="url(#pfd51284411)">
     <use xlink:href="#m3eb0f73ffd" x="132.198344" y="142.54766" style="fill: #56b4e9; fill-opacity: 0.8"/>
     <use xlink:href="#m3eb0f73ffd" x="130.579277" y="168.823002" style="fill: #56b4e9; fill-opacity: 0.8"/>
     <use xlink:href="#m3eb0f73ffd" x="139.726838" y="140.985889" style="fill: #56b4e9; fill-opacity: 0.8"/>
     <use xlink:href="#m3eb0f73ffd" x="139.982197" y="122.128956" style="fill: #56b4e9; fill-opacity: 0.8"/>
     <use xlink:href="#m3eb0f73ffd" x="135.331497" y="153.292062" style="fill: #56b4e9; fill-opacity: 0.8"/>
     <use xlink:href="#m3eb0f73ffd" x="125.05894" y="137.978035" style="fill: #56b4e9; fill-opacity: 0.8"/>
     <use xlink:href="#m3eb0f73ffd" x="127.52296" y="159.756057" style="fill: #56b4e9; fill-opacity: 0.8"/>
     <use xlink:href="#m3eb0f73ffd" x="140.706762" y="152.294264" style="fill: #56b4e9; fill-opacity: 0.8"/>
     <use xlink:href="#m3eb0f73ffd" x="137.441866" y="151.932744" style="fill: #56b4e9; fill-opacity: 0.8"/>
     <use xlink:href="#m3eb0f73ffd" x="131.634696" y="143.343006" style="fill: #56b4e9; fill-opacity: 0.8"/>
     <use xlink:href="#m3eb0f73ffd" x="139.693524" y="140.277308" style="fill: #56b4e9; fill-opacity: 0.8"/>
     <use xlink:href="#m3eb0f73ffd" x="136.598227" y="152.482255" style="fill: #56b4e9; fill-opacity: 0.8"/>
     <use xlink:href="#m3eb0f73ffd" x="134.785937" y="136.387343" style="fill: #56b4e9; fill-opacity: 0.8"/>
     <use xlink:href="#m3eb0f73ffd" x="136.43359" y="151.672448" style="fill: #56b4e9; fill-opacity: 0.8"/>
    </g>
   </g>
   <g id="PathCollection_3">
    <defs>
     <path id="ma7123cd3e2" d="M 0 1.414214 
C 0.375054 1.414214 0.734797 1.265203 1 1 
C 1.265203 0.734797 1.414214 0.375054 1.414214 0 
C 1.414214 -0.375054 1.265203 -0.734797 1 -1 
C 0.734797 -1.265203 0.375054 -1.414214 0 -1.414214 
C -0.375054 -1.414214 -0.734797 -1.265203 -1 -1 
C -1.265203 -0.734797 -1.414214 -0.375054 -1.414214 0 
C -1.414214 0.375054 -1.265203 0.734797 -1 1 
C -0.734797 1.265203 -0.375054 1.414214 0 1.414214 
z
"/>
    </defs>
    <g clip-path="url(#pfd51284411)">
     <use xlink:href="#ma7123cd3e2" x="209.257497" y="167.535988" style="fill: #009e73; fill-opacity: 0.8"/>
     <use xlink:href="#ma7123cd3e2" x="206.264441" y="167.087702" style="fill: #009e73; fill-opacity: 0.8"/>
     <use xlink:href="#ma7123cd3e2" x="195.604081" y="176.574012" style="fill: #009e73; fill-opacity: 0.8"/>
     <use xlink:href="#ma7123cd3e2" x="204.45132" y="180.17476" style="fill: #009e73; fill-opacity: 0.8"/>
     <use xlink:href="#ma7123cd3e2" x="196.488139" y="159.307771" style="fill: #009e73; fill-opacity: 0.8"/>
     <use xlink:href="#ma7123cd3e2" x="208.75737" y="155.244275" style="fill: #009e73; fill-opacity: 0.8"/>
    </g>
   </g>
  </g>
 </g>
 <defs>
  <clipPath id="pfd51284411">
   <rect x="31.641875" y="7.2" width="202.808819" height="181.211654"/>
  </clipPath>
 </defs>
</svg>
