<?xml version="1.0" encoding="utf-8" standalone="no"?>
<!DOCTYPE svg PUBLIC "-//W3C//DTD SVG 1.1//EN"
  "http://www.w3.org/Graphics/SVG/1.1/DTD/svg11.dtd">
<svg xmlns:xlink="http://www.w3.org/1999/xlink" width="250.052569pt" height="226.299154pt" viewBox="0 0 250.052569 226.299154" xmlns="http://www.w3.org/2000/svg" version="1.1">
 <metadata>
  <rdf:RDF xmlns:dc="http://purl.org/dc/elements/1.1/" xmlns:cc="http://creativecommons.org/ns#" xmlns:rdf="http://www.w3.org/1999/02/22-rdf-syntax-ns#">
   <cc:Work>
    <dc:type rdf:resource="http://purl.org/dc/dcmitype/StillImage"/>
    <dc:date>2026-05-19T17:01:44.918160</dc:date>
    <dc:format>image/svg+xml</dc:format>
    <dc:creator>
     <cc:Agent>
      <dc:title>Matplotlib v3.9.2, https://matplotlib.org/</dc:title>
     </cc:Agent>
    </dc:creator>
   </cc:Work>
  </rdf:RDF>
 </metadata>
 <defs>
  <style type="text/css">*{stroke-linejoin: round; stroke-linecap: butt}</style>
 </defs>
 <g id="figure_1">
  <g id="patch_1">
   <path d="M 0 226.299154 
L 250.052569 226.299154 
L 250.052569 0 
L 0 0 
z
" style="fill: #ffffff"/>
  </g>
  <g id="axes_1">
   <g id="patch_2">
    <path d="M 30.50375 197.051654 
L 242.852569 197.051654 
L 242.852569 7.2 
L 30.50375 7.2 
z
" style="fill: #ffffff"/>
   </g>
   <g id="matplotlib.axis_1">
    <g id="xtick_1">
     <g id="line2d_1">
      <path d="M 234.763663 197.051654 
L 234.763663 7.2 
" clip-path="url(#pb079bf628c)" style="fill: none; stroke-dasharray: 1.85,0.8; stroke-dashoffset: 0; stroke: #b0b0b0; stroke-opacity: 0.3; stroke-width: 0.5"/>
     </g>
     <g id="line2d_2">
      <defs>
       <path id="m8de2e06879" d="M 0 0 
L 0 3.5 
" style="stroke: #000000; stroke-width: 0.8"/>
      </defs>
      <g>
       <use xlink:href="#m8de2e06879" x="234.763663" y="197.051654" style="stroke: #000000; stroke-width: 0.8"/>
      </g>
     </g>
     <g id="text_1">
      <!-- 5 -->
      <g transform="translate(233.095382 208.346341) scale(0.06 -0.06)">
       <defs>
        <path id="ArialMT-35" d="M 266 1200 
L 856 1250 
Q 922 819 1161 601 
Q 1400 384 1738 384 
Q 2144 384 2425 690 
Q 2706 997 2706 1503 
Q 2706 1984 2436 2262 
Q 2166 2541 1728 2541 
Q 1456 2541 1237 2417 
Q 1019 2294 894 2097 
L 366 2166 
L 809 4519 
L 3088 4519 
L 3088 3981 
L 1259 3981 
L 1013 2750 
Q 1425 3038 1878 3038 
Q 2478 3038 2890 2622 
Q 3303 2206 3303 1553 
Q 3303 931 2941 478 
Q 2500 -78 1738 -78 
Q 1113 -78 717 272 
Q 322 622 266 1200 
z
" transform="scale(0.015625)"/>
       </defs>
       <use xlink:href="#ArialMT-35"/>
      </g>
     </g>
    </g>
    <g id="xtick_2">
     <g id="line2d_3">
      <path d="M 184.51079 197.051654 
L 184.51079 7.2 
" clip-path="url(#pb079bf628c)" style="fill: none; stroke-dasharray: 1.85,0.8; stroke-dashoffset: 0; stroke: #b0b0b0; stroke-opacity: 0.3; stroke-width: 0.5"/>
     </g>
     <g id="line2d_4">
      <g>
       <use xlink:href="#m8de2e06879" x="184.51079" y="197.051654" style="stroke: #000000; stroke-width: 0.8"/>
      </g>
     </g>
     <g id="text_2">
      <!-- 20 -->
      <g transform="translate(181.174228 208.346341) scale(0.06 -0.06)">
       <defs>
        <path id="ArialMT-32" d="M 3222 541 
L 3222 0 
L 194 0 
Q 188 203 259 391 
Q 375 700 629 1000 
Q 884 1300 1366 1694 
Q 2113 2306 2375 2664 
Q 2638 3022 2638 3341 
Q 2638 3675 2398 3904 
Q 2159 4134 1775 4134 
Q 1369 4134 1125 3890 
Q 881 3647 878 3216 
L 300 3275 
Q 359 3922 746 4261 
Q 1134 4600 1788 4600 
Q 2447 4600 2831 4234 
Q 3216 3869 3216 3328 
Q 3216 3053 3103 2787 
Q 2991 2522 2730 2228 
Q 2469 1934 1863 1422 
Q 1356 997 1212 845 
Q 1069 694 975 541 
L 3222 541 
z
" transform="scale(0.015625)"/>
        <path id="ArialMT-30" d="M 266 2259 
Q 266 3072 433 3567 
Q 600 4063 929 4331 
Q 1259 4600 1759 4600 
Q 2128 4600 2406 4451 
Q 2684 4303 2865 4023 
Q 3047 3744 3150 3342 
Q 3253 2941 3253 2259 
Q 3253 1453 3087 958 
Q 2922 463 2592 192 
Q 2263 -78 1759 -78 
Q 1097 -78 719 397 
Q 266 969 266 2259 
z
M 844 2259 
Q 844 1131 1108 757 
Q 1372 384 1759 384 
Q 2147 384 2411 759 
Q 2675 1134 2675 2259 
Q 2675 3391 2411 3762 
Q 2147 4134 1753 4134 
Q 1366 4134 1134 3806 
Q 844 3388 844 2259 
z
" transform="scale(0.015625)"/>
       </defs>
       <use xlink:href="#ArialMT-32"/>
       <use xlink:href="#ArialMT-30" x="55.615234"/>
      </g>
     </g>
    </g>
    <g id="xtick_3">
     <g id="line2d_5">
      <path d="M 134.257917 197.051654 
L 134.257917 7.2 
" clip-path="url(#pb079bf628c)" style="fill: none; stroke-dasharray: 1.85,0.8; stroke-dashoffset: 0; stroke: #b0b0b0; stroke-opacity: 0.3; stroke-width: 0.5"/>
     </g>
     <g id="line2d_6">
      <g>
       <use xlink:href="#m8de2e06879" x="134.257917" y="197.051654" style="stroke: #000000; stroke-width: 0.8"/>
      </g>
     </g>
     <g id="text_3">
      <!-- 80 -->
      <g transform="translate(130.921355 208.346341) scale(0.06 -0.06)">
       <defs>
        <path id="ArialMT-38" d="M 1131 2484 
Q 781 2613 612 2850 
Q 444 3088 444 3419 
Q 444 3919 803 4259 
Q 1163 4600 1759 4600 
Q 2359 4600 2725 4251 
Q 3091 3903 3091 3403 
Q 3091 3084 2923 2848 
Q 2756 2613 2416 2484 
Q 2838 2347 3058 2040 
Q 3278 1734 3278 1309 
Q 3278 722 2862 322 
Q 2447 -78 1769 -78 
Q 1091 -78 675 323 
Q 259 725 259 1325 
Q 259 1772 486 2073 
Q 713 2375 1131 2484 
z
M 1019 3438 
Q 1019 3113 1228 2906 
Q 1438 2700 1772 2700 
Q 2097 2700 2305 2904 
Q 2513 3109 2513 3406 
Q 2513 3716 2298 3927 
Q 2084 4138 1766 4138 
Q 1444 4138 1231 3931 
Q 1019 3725 1019 3438 
z
M 838 1322 
Q 838 1081 952 856 
Q 1066 631 1291 507 
Q 1516 384 1775 384 
Q 2178 384 2440 643 
Q 2703 903 2703 1303 
Q 2703 1709 2433 1975 
Q 2163 2241 1756 2241 
Q 1359 2241 1098 1978 
Q 838 1716 838 1322 
z
" transform="scale(0.015625)"/>
       </defs>
       <use xlink:href="#ArialMT-38"/>
       <use xlink:href="#ArialMT-30" x="55.615234"/>
      </g>
     </g>
    </g>
    <g id="xtick_4">
     <g id="line2d_7">
      <path d="M 84.005044 197.051654 
L 84.005044 7.2 
" clip-path="url(#pb079bf628c)" style="fill: none; stroke-dasharray: 1.85,0.8; stroke-dashoffset: 0; stroke: #b0b0b0; stroke-opacity: 0.3; stroke-width: 0.5"/>
     </g>
     <g id="line2d_8">
      <g>
       <use xlink:href="#m8de2e06879" x="84.005044" y="197.051654" style="stroke: #000000; stroke-width: 0.8"/>
      </g>
     </g>
     <g id="text_4">
      <!-- 320 -->
      <g transform="translate(79.000201 208.346341) scale(0.06 -0.06)">
       <defs>
        <path id="ArialMT-33" d="M 269 1209 
L 831 1284 
Q 928 806 1161 595 
Q 1394 384 1728 384 
Q 2125 384 2398 659 
Q 2672 934 2672 1341 
Q 2672 1728 2419 1979 
Q 2166 2231 1775 2231 
Q 1616 2231 1378 2169 
L 1441 2663 
Q 1497 2656 1531 2656 
Q 1891 2656 2178 2843 
Q 2466 3031 2466 3422 
Q 2466 3731 2256 3934 
Q 2047 4138 1716 4138 
Q 1388 4138 1169 3931 
Q 950 3725 888 3313 
L 325 3413 
Q 428 3978 793 4289 
Q 1159 4600 1703 4600 
Q 2078 4600 2393 4439 
Q 2709 4278 2876 4000 
Q 3044 3722 3044 3409 
Q 3044 3113 2884 2869 
Q 2725 2625 2413 2481 
Q 2819 2388 3044 2092 
Q 3269 1797 3269 1353 
Q 3269 753 2831 336 
Q 2394 -81 1725 -81 
Q 1122 -81 723 278 
Q 325 638 269 1209 
z
" transform="scale(0.015625)"/>
       </defs>
       <use xlink:href="#ArialMT-33"/>
       <use xlink:href="#ArialMT-32" x="55.615234"/>
       <use xlink:href="#ArialMT-30" x="111.230469"/>
      </g>
     </g>
    </g>
    <g id="xtick_5">
     <g id="line2d_9">
      <path d="M 33.752172 197.051654 
L 33.752172 7.2 
" clip-path="url(#pb079bf628c)" style="fill: none; stroke-dasharray: 1.85,0.8; stroke-dashoffset: 0; stroke: #b0b0b0; stroke-opacity: 0.3; stroke-width: 0.5"/>
     </g>
     <g id="line2d_10">
      <g>
       <use xlink:href="#m8de2e06879" x="33.752172" y="197.051654" style="stroke: #000000; stroke-width: 0.8"/>
      </g>
     </g>
     <g id="text_5">
      <!-- 1280 -->
      <g transform="translate(27.079047 208.346341) scale(0.06 -0.06)">
       <defs>
        <path id="ArialMT-31" d="M 2384 0 
L 1822 0 
L 1822 3584 
Q 1619 3391 1289 3197 
Q 959 3003 697 2906 
L 697 3450 
Q 1169 3672 1522 3987 
Q 1875 4303 2022 4600 
L 2384 4600 
L 2384 0 
z
" transform="scale(0.015625)"/>
       </defs>
       <use xlink:href="#ArialMT-31"/>
       <use xlink:href="#ArialMT-32" x="55.615234"/>
       <use xlink:href="#ArialMT-38" x="111.230469"/>
       <use xlink:href="#ArialMT-30" x="166.845703"/>
      </g>
     </g>
    </g>
    <g id="xtick_6">
     <g id="line2d_11">
      <path d="M 242.852569 197.051654 
L 242.852569 7.2 
" clip-path="url(#pb079bf628c)" style="fill: none; stroke-dasharray: 1.85,0.8; stroke-dashoffset: 0; stroke: #b0b0b0; stroke-opacity: 0.3; stroke-width: 0.5"/>
     </g>
     <g id="line2d_12">
      <defs>
       <path id="mff9a14976b" d="M 0 0 
L 0 2 
" style="stroke: #000000; stroke-width: 0.6"/>
      </defs>
      <g>
       <use xlink:href="#mff9a14976b" x="242.852569" y="197.051654" style="stroke: #000000; stroke-width: 0.6"/>
      </g>
     </g>
    </g>
    <g id="xtick_7">
     <g id="line2d_13">
      <path d="M 228.154546 197.051654 
L 228.154546 7.2 
" clip-path="url(#pb079bf628c)" style="fill: none; stroke-dasharray: 1.85,0.8; stroke-dashoffset: 0; stroke: #b0b0b0; stroke-opacity: 0.3; stroke-width: 0.5"/>
     </g>
     <g id="line2d_14">
      <g>
       <use xlink:href="#mff9a14976b" x="228.154546" y="197.051654" style="stroke: #000000; stroke-width: 0.6"/>
      </g>
     </g>
    </g>
    <g id="xtick_8">
     <g id="line2d_15">
      <path d="M 222.566617 197.051654 
L 222.566617 7.2 
" clip-path="url(#pb079bf628c)" style="fill: none; stroke-dasharray: 1.85,0.8; stroke-dashoffset: 0; stroke: #b0b0b0; stroke-opacity: 0.3; stroke-width: 0.5"/>
     </g>
     <g id="line2d_16">
      <g>
       <use xlink:href="#mff9a14976b" x="222.566617" y="197.051654" style="stroke: #000000; stroke-width: 0.6"/>
      </g>
     </g>
    </g>
    <g id="xtick_9">
     <g id="line2d_17">
      <path d="M 217.726132 197.051654 
L 217.726132 7.2 
" clip-path="url(#pb079bf628c)" style="fill: none; stroke-dasharray: 1.85,0.8; stroke-dashoffset: 0; stroke: #b0b0b0; stroke-opacity: 0.3; stroke-width: 0.5"/>
     </g>
     <g id="line2d_18">
      <g>
       <use xlink:href="#mff9a14976b" x="217.726132" y="197.051654" style="stroke: #000000; stroke-width: 0.6"/>
      </g>
     </g>
    </g>
    <g id="xtick_10">
     <g id="line2d_19">
      <path d="M 213.456523 197.051654 
L 213.456523 7.2 
" clip-path="url(#pb079bf628c)" style="fill: none; stroke-dasharray: 1.85,0.8; stroke-dashoffset: 0; stroke: #b0b0b0; stroke-opacity: 0.3; stroke-width: 0.5"/>
     </g>
     <g id="line2d_20">
      <g>
       <use xlink:href="#mff9a14976b" x="213.456523" y="197.051654" style="stroke: #000000; stroke-width: 0.6"/>
      </g>
     </g>
    </g>
    <g id="xtick_11">
     <g id="line2d_21">
      <path d="M 169.812767 197.051654 
L 169.812767 7.2 
" clip-path="url(#pb079bf628c)" style="fill: none; stroke-dasharray: 1.85,0.8; stroke-dashoffset: 0; stroke: #b0b0b0; stroke-opacity: 0.3; stroke-width: 0.5"/>
     </g>
     <g id="line2d_22">
      <g>
       <use xlink:href="#mff9a14976b" x="169.812767" y="197.051654" style="stroke: #000000; stroke-width: 0.6"/>
      </g>
     </g>
    </g>
    <g id="xtick_12">
     <g id="line2d_23">
      <path d="M 159.384354 197.051654 
L 159.384354 7.2 
" clip-path="url(#pb079bf628c)" style="fill: none; stroke-dasharray: 1.85,0.8; stroke-dashoffset: 0; stroke: #b0b0b0; stroke-opacity: 0.3; stroke-width: 0.5"/>
     </g>
     <g id="line2d_24">
      <g>
       <use xlink:href="#mff9a14976b" x="159.384354" y="197.051654" style="stroke: #000000; stroke-width: 0.6"/>
      </g>
     </g>
    </g>
    <g id="xtick_13">
     <g id="line2d_25">
      <path d="M 151.295448 197.051654 
L 151.295448 7.2 
" clip-path="url(#pb079bf628c)" style="fill: none; stroke-dasharray: 1.85,0.8; stroke-dashoffset: 0; stroke: #b0b0b0; stroke-opacity: 0.3; stroke-width: 0.5"/>
     </g>
     <g id="line2d_26">
      <g>
       <use xlink:href="#mff9a14976b" x="151.295448" y="197.051654" style="stroke: #000000; stroke-width: 0.6"/>
      </g>
     </g>
    </g>
    <g id="xtick_14">
     <g id="line2d_27">
      <path d="M 144.686331 197.051654 
L 144.686331 7.2 
" clip-path="url(#pb079bf628c)" style="fill: none; stroke-dasharray: 1.85,0.8; stroke-dashoffset: 0; stroke: #b0b0b0; stroke-opacity: 0.3; stroke-width: 0.5"/>
     </g>
     <g id="line2d_28">
      <g>
       <use xlink:href="#mff9a14976b" x="144.686331" y="197.051654" style="stroke: #000000; stroke-width: 0.6"/>
      </g>
     </g>
    </g>
    <g id="xtick_15">
     <g id="line2d_29">
      <path d="M 139.098402 197.051654 
L 139.098402 7.2 
" clip-path="url(#pb079bf628c)" style="fill: none; stroke-dasharray: 1.85,0.8; stroke-dashoffset: 0; stroke: #b0b0b0; stroke-opacity: 0.3; stroke-width: 0.5"/>
     </g>
     <g id="line2d_30">
      <g>
       <use xlink:href="#mff9a14976b" x="139.098402" y="197.051654" style="stroke: #000000; stroke-width: 0.6"/>
      </g>
     </g>
    </g>
    <g id="xtick_16">
     <g id="line2d_31">
      <path d="M 129.988308 197.051654 
L 129.988308 7.2 
" clip-path="url(#pb079bf628c)" style="fill: none; stroke-dasharray: 1.85,0.8; stroke-dashoffset: 0; stroke: #b0b0b0; stroke-opacity: 0.3; stroke-width: 0.5"/>
     </g>
     <g id="line2d_32">
      <g>
       <use xlink:href="#mff9a14976b" x="129.988308" y="197.051654" style="stroke: #000000; stroke-width: 0.6"/>
      </g>
     </g>
    </g>
    <g id="xtick_17">
     <g id="line2d_33">
      <path d="M 101.042575 197.051654 
L 101.042575 7.2 
" clip-path="url(#pb079bf628c)" style="fill: none; stroke-dasharray: 1.85,0.8; stroke-dashoffset: 0; stroke: #b0b0b0; stroke-opacity: 0.3; stroke-width: 0.5"/>
     </g>
     <g id="line2d_34">
      <g>
       <use xlink:href="#mff9a14976b" x="101.042575" y="197.051654" style="stroke: #000000; stroke-width: 0.6"/>
      </g>
     </g>
    </g>
    <g id="xtick_18">
     <g id="line2d_35">
      <path d="M 86.344552 197.051654 
L 86.344552 7.2 
" clip-path="url(#pb079bf628c)" style="fill: none; stroke-dasharray: 1.85,0.8; stroke-dashoffset: 0; stroke: #b0b0b0; stroke-opacity: 0.3; stroke-width: 0.5"/>
     </g>
     <g id="line2d_36">
      <g>
       <use xlink:href="#mff9a14976b" x="86.344552" y="197.051654" style="stroke: #000000; stroke-width: 0.6"/>
      </g>
     </g>
    </g>
    <g id="xtick_19">
     <g id="line2d_37">
      <path d="M 75.916139 197.051654 
L 75.916139 7.2 
" clip-path="url(#pb079bf628c)" style="fill: none; stroke-dasharray: 1.85,0.8; stroke-dashoffset: 0; stroke: #b0b0b0; stroke-opacity: 0.3; stroke-width: 0.5"/>
     </g>
     <g id="line2d_38">
      <g>
       <use xlink:href="#mff9a14976b" x="75.916139" y="197.051654" style="stroke: #000000; stroke-width: 0.6"/>
      </g>
     </g>
    </g>
    <g id="xtick_20">
     <g id="line2d_39">
      <path d="M 67.827233 197.051654 
L 67.827233 7.2 
" clip-path="url(#pb079bf628c)" style="fill: none; stroke-dasharray: 1.85,0.8; stroke-dashoffset: 0; stroke: #b0b0b0; stroke-opacity: 0.3; stroke-width: 0.5"/>
     </g>
     <g id="line2d_40">
      <g>
       <use xlink:href="#mff9a14976b" x="67.827233" y="197.051654" style="stroke: #000000; stroke-width: 0.6"/>
      </g>
     </g>
    </g>
    <g id="xtick_21">
     <g id="line2d_41">
      <path d="M 61.218115 197.051654 
L 61.218115 7.2 
" clip-path="url(#pb079bf628c)" style="fill: none; stroke-dasharray: 1.85,0.8; stroke-dashoffset: 0; stroke: #b0b0b0; stroke-opacity: 0.3; stroke-width: 0.5"/>
     </g>
     <g id="line2d_42">
      <g>
       <use xlink:href="#mff9a14976b" x="61.218115" y="197.051654" style="stroke: #000000; stroke-width: 0.6"/>
      </g>
     </g>
    </g>
    <g id="xtick_22">
     <g id="line2d_43">
      <path d="M 55.630186 197.051654 
L 55.630186 7.2 
" clip-path="url(#pb079bf628c)" style="fill: none; stroke-dasharray: 1.85,0.8; stroke-dashoffset: 0; stroke: #b0b0b0; stroke-opacity: 0.3; stroke-width: 0.5"/>
     </g>
     <g id="line2d_44">
      <g>
       <use xlink:href="#mff9a14976b" x="55.630186" y="197.051654" style="stroke: #000000; stroke-width: 0.6"/>
      </g>
     </g>
    </g>
    <g id="xtick_23">
     <g id="line2d_45">
      <path d="M 50.789702 197.051654 
L 50.789702 7.2 
" clip-path="url(#pb079bf628c)" style="fill: none; stroke-dasharray: 1.85,0.8; stroke-dashoffset: 0; stroke: #b0b0b0; stroke-opacity: 0.3; stroke-width: 0.5"/>
     </g>
     <g id="line2d_46">
      <g>
       <use xlink:href="#mff9a14976b" x="50.789702" y="197.051654" style="stroke: #000000; stroke-width: 0.6"/>
      </g>
     </g>
    </g>
    <g id="xtick_24">
     <g id="line2d_47">
      <path d="M 46.520092 197.051654 
L 46.520092 7.2 
" clip-path="url(#pb079bf628c)" style="fill: none; stroke-dasharray: 1.85,0.8; stroke-dashoffset: 0; stroke: #b0b0b0; stroke-opacity: 0.3; stroke-width: 0.5"/>
     </g>
     <g id="line2d_48">
      <g>
       <use xlink:href="#mff9a14976b" x="46.520092" y="197.051654" style="stroke: #000000; stroke-width: 0.6"/>
      </g>
     </g>
    </g>
    <g id="text_6">
     <!-- Sample dilution -->
     <g transform="translate(116.167066 217.906654) scale(0.06 -0.06)">
      <defs>
       <path id="ArialMT-53" d="M 288 1472 
L 859 1522 
Q 900 1178 1048 958 
Q 1197 738 1509 602 
Q 1822 466 2213 466 
Q 2559 466 2825 569 
Q 3091 672 3220 851 
Q 3350 1031 3350 1244 
Q 3350 1459 3225 1620 
Q 3100 1781 2813 1891 
Q 2628 1963 1997 2114 
Q 1366 2266 1113 2400 
Q 784 2572 623 2826 
Q 463 3081 463 3397 
Q 463 3744 659 4045 
Q 856 4347 1234 4503 
Q 1613 4659 2075 4659 
Q 2584 4659 2973 4495 
Q 3363 4331 3572 4012 
Q 3781 3694 3797 3291 
L 3216 3247 
Q 3169 3681 2898 3903 
Q 2628 4125 2100 4125 
Q 1550 4125 1298 3923 
Q 1047 3722 1047 3438 
Q 1047 3191 1225 3031 
Q 1400 2872 2139 2705 
Q 2878 2538 3153 2413 
Q 3553 2228 3743 1945 
Q 3934 1663 3934 1294 
Q 3934 928 3725 604 
Q 3516 281 3123 101 
Q 2731 -78 2241 -78 
Q 1619 -78 1198 103 
Q 778 284 539 648 
Q 300 1013 288 1472 
z
" transform="scale(0.015625)"/>
       <path id="ArialMT-61" d="M 2588 409 
Q 2275 144 1986 34 
Q 1697 -75 1366 -75 
Q 819 -75 525 192 
Q 231 459 231 875 
Q 231 1119 342 1320 
Q 453 1522 633 1644 
Q 813 1766 1038 1828 
Q 1203 1872 1538 1913 
Q 2219 1994 2541 2106 
Q 2544 2222 2544 2253 
Q 2544 2597 2384 2738 
Q 2169 2928 1744 2928 
Q 1347 2928 1158 2789 
Q 969 2650 878 2297 
L 328 2372 
Q 403 2725 575 2942 
Q 747 3159 1072 3276 
Q 1397 3394 1825 3394 
Q 2250 3394 2515 3294 
Q 2781 3194 2906 3042 
Q 3031 2891 3081 2659 
Q 3109 2516 3109 2141 
L 3109 1391 
Q 3109 606 3145 398 
Q 3181 191 3288 0 
L 2700 0 
Q 2613 175 2588 409 
z
M 2541 1666 
Q 2234 1541 1622 1453 
Q 1275 1403 1131 1340 
Q 988 1278 909 1158 
Q 831 1038 831 891 
Q 831 666 1001 516 
Q 1172 366 1500 366 
Q 1825 366 2078 508 
Q 2331 650 2450 897 
Q 2541 1088 2541 1459 
L 2541 1666 
z
" transform="scale(0.015625)"/>
       <path id="ArialMT-6d" d="M 422 0 
L 422 3319 
L 925 3319 
L 925 2853 
Q 1081 3097 1340 3245 
Q 1600 3394 1931 3394 
Q 2300 3394 2536 3241 
Q 2772 3088 2869 2813 
Q 3263 3394 3894 3394 
Q 4388 3394 4653 3120 
Q 4919 2847 4919 2278 
L 4919 0 
L 4359 0 
L 4359 2091 
Q 4359 2428 4304 2576 
Q 4250 2725 4106 2815 
Q 3963 2906 3769 2906 
Q 3419 2906 3187 2673 
Q 2956 2441 2956 1928 
L 2956 0 
L 2394 0 
L 2394 2156 
Q 2394 2531 2256 2718 
Q 2119 2906 1806 2906 
Q 1569 2906 1367 2781 
Q 1166 2656 1075 2415 
Q 984 2175 984 1722 
L 984 0 
L 422 0 
z
" transform="scale(0.015625)"/>
       <path id="ArialMT-70" d="M 422 -1272 
L 422 3319 
L 934 3319 
L 934 2888 
Q 1116 3141 1344 3267 
Q 1572 3394 1897 3394 
Q 2322 3394 2647 3175 
Q 2972 2956 3137 2557 
Q 3303 2159 3303 1684 
Q 3303 1175 3120 767 
Q 2938 359 2589 142 
Q 2241 -75 1856 -75 
Q 1575 -75 1351 44 
Q 1128 163 984 344 
L 984 -1272 
L 422 -1272 
z
M 931 1641 
Q 931 1000 1190 694 
Q 1450 388 1819 388 
Q 2194 388 2461 705 
Q 2728 1022 2728 1688 
Q 2728 2322 2467 2637 
Q 2206 2953 1844 2953 
Q 1484 2953 1207 2617 
Q 931 2281 931 1641 
z
" transform="scale(0.015625)"/>
       <path id="ArialMT-6c" d="M 409 0 
L 409 4581 
L 972 4581 
L 972 0 
L 409 0 
z
" transform="scale(0.015625)"/>
       <path id="ArialMT-65" d="M 2694 1069 
L 3275 997 
Q 3138 488 2766 206 
Q 2394 -75 1816 -75 
Q 1088 -75 661 373 
Q 234 822 234 1631 
Q 234 2469 665 2931 
Q 1097 3394 1784 3394 
Q 2450 3394 2872 2941 
Q 3294 2488 3294 1666 
Q 3294 1616 3291 1516 
L 816 1516 
Q 847 969 1125 678 
Q 1403 388 1819 388 
Q 2128 388 2347 550 
Q 2566 713 2694 1069 
z
M 847 1978 
L 2700 1978 
Q 2663 2397 2488 2606 
Q 2219 2931 1791 2931 
Q 1403 2931 1139 2672 
Q 875 2413 847 1978 
z
" transform="scale(0.015625)"/>
       <path id="ArialMT-20" transform="scale(0.015625)"/>
       <path id="ArialMT-64" d="M 2575 0 
L 2575 419 
Q 2259 -75 1647 -75 
Q 1250 -75 917 144 
Q 584 363 401 755 
Q 219 1147 219 1656 
Q 219 2153 384 2558 
Q 550 2963 881 3178 
Q 1213 3394 1622 3394 
Q 1922 3394 2156 3267 
Q 2391 3141 2538 2938 
L 2538 4581 
L 3097 4581 
L 3097 0 
L 2575 0 
z
M 797 1656 
Q 797 1019 1065 703 
Q 1334 388 1700 388 
Q 2069 388 2326 689 
Q 2584 991 2584 1609 
Q 2584 2291 2321 2609 
Q 2059 2928 1675 2928 
Q 1300 2928 1048 2622 
Q 797 2316 797 1656 
z
" transform="scale(0.015625)"/>
       <path id="ArialMT-69" d="M 425 3934 
L 425 4581 
L 988 4581 
L 988 3934 
L 425 3934 
z
M 425 0 
L 425 3319 
L 988 3319 
L 988 0 
L 425 0 
z
" transform="scale(0.015625)"/>
       <path id="ArialMT-75" d="M 2597 0 
L 2597 488 
Q 2209 -75 1544 -75 
Q 1250 -75 995 37 
Q 741 150 617 320 
Q 494 491 444 738 
Q 409 903 409 1263 
L 409 3319 
L 972 3319 
L 972 1478 
Q 972 1038 1006 884 
Q 1059 663 1231 536 
Q 1403 409 1656 409 
Q 1909 409 2131 539 
Q 2353 669 2445 892 
Q 2538 1116 2538 1541 
L 2538 3319 
L 3100 3319 
L 3100 0 
L 2597 0 
z
" transform="scale(0.015625)"/>
       <path id="ArialMT-74" d="M 1650 503 
L 1731 6 
Q 1494 -44 1306 -44 
Q 1000 -44 831 53 
Q 663 150 594 308 
Q 525 466 525 972 
L 525 2881 
L 113 2881 
L 113 3319 
L 525 3319 
L 525 4141 
L 1084 4478 
L 1084 3319 
L 1650 3319 
L 1650 2881 
L 1084 2881 
L 1084 941 
Q 1084 700 1114 631 
Q 1144 563 1211 522 
Q 1278 481 1403 481 
Q 1497 481 1650 503 
z
" transform="scale(0.015625)"/>
       <path id="ArialMT-6f" d="M 213 1659 
Q 213 2581 725 3025 
Q 1153 3394 1769 3394 
Q 2453 3394 2887 2945 
Q 3322 2497 3322 1706 
Q 3322 1066 3130 698 
Q 2938 331 2570 128 
Q 2203 -75 1769 -75 
Q 1072 -75 642 372 
Q 213 819 213 1659 
z
M 791 1659 
Q 791 1022 1069 705 
Q 1347 388 1769 388 
Q 2188 388 2466 706 
Q 2744 1025 2744 1678 
Q 2744 2294 2464 2611 
Q 2184 2928 1769 2928 
Q 1347 2928 1069 2612 
Q 791 2297 791 1659 
z
" transform="scale(0.015625)"/>
       <path id="ArialMT-6e" d="M 422 0 
L 422 3319 
L 928 3319 
L 928 2847 
Q 1294 3394 1984 3394 
Q 2284 3394 2536 3286 
Q 2788 3178 2913 3003 
Q 3038 2828 3088 2588 
Q 3119 2431 3119 2041 
L 3119 0 
L 2556 0 
L 2556 2019 
Q 2556 2363 2490 2533 
Q 2425 2703 2258 2804 
Q 2091 2906 1866 2906 
Q 1506 2906 1245 2678 
Q 984 2450 984 1813 
L 984 0 
L 422 0 
z
" transform="scale(0.015625)"/>
      </defs>
      <use xlink:href="#ArialMT-53"/>
      <use xlink:href="#ArialMT-61" x="66.699219"/>
      <use xlink:href="#ArialMT-6d" x="122.314453"/>
      <use xlink:href="#ArialMT-70" x="205.615234"/>
      <use xlink:href="#ArialMT-6c" x="261.230469"/>
      <use xlink:href="#ArialMT-65" x="283.447266"/>
      <use xlink:href="#ArialMT-20" x="339.0625"/>
      <use xlink:href="#ArialMT-64" x="366.845703"/>
      <use xlink:href="#ArialMT-69" x="422.460938"/>
      <use xlink:href="#ArialMT-6c" x="444.677734"/>
      <use xlink:href="#ArialMT-75" x="466.894531"/>
      <use xlink:href="#ArialMT-74" x="522.509766"/>
      <use xlink:href="#ArialMT-69" x="550.292969"/>
      <use xlink:href="#ArialMT-6f" x="572.509766"/>
      <use xlink:href="#ArialMT-6e" x="628.125"/>
     </g>
    </g>
   </g>
   <g id="matplotlib.axis_2">
    <g id="ytick_1">
     <g id="line2d_49">
      <path d="M 30.50375 194.261166 
L 242.852569 194.261166 
" clip-path="url(#pb079bf628c)" style="fill: none; stroke-dasharray: 1.85,0.8; stroke-dashoffset: 0; stroke: #b0b0b0; stroke-opacity: 0.3; stroke-width: 0.5"/>
     </g>
     <g id="line2d_50">
      <defs>
       <path id="m3ab1027f04" d="M 0 0 
L -3.5 0 
" style="stroke: #000000; stroke-width: 0.8"/>
      </defs>
      <g>
       <use xlink:href="#m3ab1027f04" x="30.50375" y="194.261166" style="stroke: #000000; stroke-width: 0.8"/>
      </g>
     </g>
     <g id="text_7">
      <!-- 10 -->
      <g transform="translate(16.830625 196.40851) scale(0.06 -0.06)">
       <use xlink:href="#ArialMT-31"/>
       <use xlink:href="#ArialMT-30" x="55.615234"/>
      </g>
     </g>
    </g>
    <g id="ytick_2">
     <g id="line2d_51">
      <path d="M 30.50375 179.663333 
L 242.852569 179.663333 
" clip-path="url(#pb079bf628c)" style="fill: none; stroke-dasharray: 1.85,0.8; stroke-dashoffset: 0; stroke: #b0b0b0; stroke-opacity: 0.3; stroke-width: 0.5"/>
     </g>
     <g id="line2d_52">
      <g>
       <use xlink:href="#m3ab1027f04" x="30.50375" y="179.663333" style="stroke: #000000; stroke-width: 0.8"/>
      </g>
     </g>
     <g id="text_8">
      <!-- 12 -->
      <g transform="translate(16.830625 181.810677) scale(0.06 -0.06)">
       <use xlink:href="#ArialMT-31"/>
       <use xlink:href="#ArialMT-32" x="55.615234"/>
      </g>
     </g>
    </g>
    <g id="ytick_3">
     <g id="line2d_53">
      <path d="M 30.50375 165.0655 
L 242.852569 165.0655 
" clip-path="url(#pb079bf628c)" style="fill: none; stroke-dasharray: 1.85,0.8; stroke-dashoffset: 0; stroke: #b0b0b0; stroke-opacity: 0.3; stroke-width: 0.5"/>
     </g>
     <g id="line2d_54">
      <g>
       <use xlink:href="#m3ab1027f04" x="30.50375" y="165.0655" style="stroke: #000000; stroke-width: 0.8"/>
      </g>
     </g>
     <g id="text_9">
      <!-- 14 -->
      <g transform="translate(16.830625 167.212844) scale(0.06 -0.06)">
       <defs>
        <path id="ArialMT-34" d="M 2069 0 
L 2069 1097 
L 81 1097 
L 81 1613 
L 2172 4581 
L 2631 4581 
L 2631 1613 
L 3250 1613 
L 3250 1097 
L 2631 1097 
L 2631 0 
L 2069 0 
z
M 2069 1613 
L 2069 3678 
L 634 1613 
L 2069 1613 
z
" transform="scale(0.015625)"/>
       </defs>
       <use xlink:href="#ArialMT-31"/>
       <use xlink:href="#ArialMT-34" x="55.615234"/>
      </g>
     </g>
    </g>
    <g id="ytick_4">
     <g id="line2d_55">
      <path d="M 30.50375 150.467667 
L 242.852569 150.467667 
" clip-path="url(#pb079bf628c)" style="fill: none; stroke-dasharray: 1.85,0.8; stroke-dashoffset: 0; stroke: #b0b0b0; stroke-opacity: 0.3; stroke-width: 0.5"/>
     </g>
     <g id="line2d_56">
      <g>
       <use xlink:href="#m3ab1027f04" x="30.50375" y="150.467667" style="stroke: #000000; stroke-width: 0.8"/>
      </g>
     </g>
     <g id="text_10">
      <!-- 16 -->
      <g transform="translate(16.830625 152.615011) scale(0.06 -0.06)">
       <defs>
        <path id="ArialMT-36" d="M 3184 3459 
L 2625 3416 
Q 2550 3747 2413 3897 
Q 2184 4138 1850 4138 
Q 1581 4138 1378 3988 
Q 1113 3794 959 3422 
Q 806 3050 800 2363 
Q 1003 2672 1297 2822 
Q 1591 2972 1913 2972 
Q 2475 2972 2870 2558 
Q 3266 2144 3266 1488 
Q 3266 1056 3080 686 
Q 2894 316 2569 119 
Q 2244 -78 1831 -78 
Q 1128 -78 684 439 
Q 241 956 241 2144 
Q 241 3472 731 4075 
Q 1159 4600 1884 4600 
Q 2425 4600 2770 4297 
Q 3116 3994 3184 3459 
z
M 888 1484 
Q 888 1194 1011 928 
Q 1134 663 1356 523 
Q 1578 384 1822 384 
Q 2178 384 2434 671 
Q 2691 959 2691 1453 
Q 2691 1928 2437 2201 
Q 2184 2475 1800 2475 
Q 1419 2475 1153 2201 
Q 888 1928 888 1484 
z
" transform="scale(0.015625)"/>
       </defs>
       <use xlink:href="#ArialMT-31"/>
       <use xlink:href="#ArialMT-36" x="55.615234"/>
      </g>
     </g>
    </g>
    <g id="ytick_5">
     <g id="line2d_57">
      <path d="M 30.50375 135.869834 
L 242.852569 135.869834 
" clip-path="url(#pb079bf628c)" style="fill: none; stroke-dasharray: 1.85,0.8; stroke-dashoffset: 0; stroke: #b0b0b0; stroke-opacity: 0.3; stroke-width: 0.5"/>
     </g>
     <g id="line2d_58">
      <g>
       <use xlink:href="#m3ab1027f04" x="30.50375" y="135.869834" style="stroke: #000000; stroke-width: 0.8"/>
      </g>
     </g>
     <g id="text_11">
      <!-- 18 -->
      <g transform="translate(16.830625 138.017178) scale(0.06 -0.06)">
       <use xlink:href="#ArialMT-31"/>
       <use xlink:href="#ArialMT-38" x="55.615234"/>
      </g>
     </g>
    </g>
    <g id="ytick_6">
     <g id="line2d_59">
      <path d="M 30.50375 121.272001 
L 242.852569 121.272001 
" clip-path="url(#pb079bf628c)" style="fill: none; stroke-dasharray: 1.85,0.8; stroke-dashoffset: 0; stroke: #b0b0b0; stroke-opacity: 0.3; stroke-width: 0.5"/>
     </g>
     <g id="line2d_60">
      <g>
       <use xlink:href="#m3ab1027f04" x="30.50375" y="121.272001" style="stroke: #000000; stroke-width: 0.8"/>
      </g>
     </g>
     <g id="text_12">
      <!-- 20 -->
      <g transform="translate(16.830625 123.419345) scale(0.06 -0.06)">
       <use xlink:href="#ArialMT-32"/>
       <use xlink:href="#ArialMT-30" x="55.615234"/>
      </g>
     </g>
    </g>
    <g id="ytick_7">
     <g id="line2d_61">
      <path d="M 30.50375 106.674168 
L 242.852569 106.674168 
" clip-path="url(#pb079bf628c)" style="fill: none; stroke-dasharray: 1.85,0.8; stroke-dashoffset: 0; stroke: #b0b0b0; stroke-opacity: 0.3; stroke-width: 0.5"/>
     </g>
     <g id="line2d_62">
      <g>
       <use xlink:href="#m3ab1027f04" x="30.50375" y="106.674168" style="stroke: #000000; stroke-width: 0.8"/>
      </g>
     </g>
     <g id="text_13">
      <!-- 22 -->
      <g transform="translate(16.830625 108.821512) scale(0.06 -0.06)">
       <use xlink:href="#ArialMT-32"/>
       <use xlink:href="#ArialMT-32" x="55.615234"/>
      </g>
     </g>
    </g>
    <g id="ytick_8">
     <g id="line2d_63">
      <path d="M 30.50375 92.076335 
L 242.852569 92.076335 
" clip-path="url(#pb079bf628c)" style="fill: none; stroke-dasharray: 1.85,0.8; stroke-dashoffset: 0; stroke: #b0b0b0; stroke-opacity: 0.3; stroke-width: 0.5"/>
     </g>
     <g id="line2d_64">
      <g>
       <use xlink:href="#m3ab1027f04" x="30.50375" y="92.076335" style="stroke: #000000; stroke-width: 0.8"/>
      </g>
     </g>
     <g id="text_14">
      <!-- 24 -->
      <g transform="translate(16.830625 94.223679) scale(0.06 -0.06)">
       <use xlink:href="#ArialMT-32"/>
       <use xlink:href="#ArialMT-34" x="55.615234"/>
      </g>
     </g>
    </g>
    <g id="ytick_9">
     <g id="line2d_65">
      <path d="M 30.50375 77.478502 
L 242.852569 77.478502 
" clip-path="url(#pb079bf628c)" style="fill: none; stroke-dasharray: 1.85,0.8; stroke-dashoffset: 0; stroke: #b0b0b0; stroke-opacity: 0.3; stroke-width: 0.5"/>
     </g>
     <g id="line2d_66">
      <g>
       <use xlink:href="#m3ab1027f04" x="30.50375" y="77.478502" style="stroke: #000000; stroke-width: 0.8"/>
      </g>
     </g>
     <g id="text_15">
      <!-- 26 -->
      <g transform="translate(16.830625 79.625846) scale(0.06 -0.06)">
       <use xlink:href="#ArialMT-32"/>
       <use xlink:href="#ArialMT-36" x="55.615234"/>
      </g>
     </g>
    </g>
    <g id="ytick_10">
     <g id="line2d_67">
      <path d="M 30.50375 62.880669 
L 242.852569 62.880669 
" clip-path="url(#pb079bf628c)" style="fill: none; stroke-dasharray: 1.85,0.8; stroke-dashoffset: 0; stroke: #b0b0b0; stroke-opacity: 0.3; stroke-width: 0.5"/>
     </g>
     <g id="line2d_68">
      <g>
       <use xlink:href="#m3ab1027f04" x="30.50375" y="62.880669" style="stroke: #000000; stroke-width: 0.8"/>
      </g>
     </g>
     <g id="text_16">
      <!-- 28 -->
      <g transform="translate(16.830625 65.028013) scale(0.06 -0.06)">
       <use xlink:href="#ArialMT-32"/>
       <use xlink:href="#ArialMT-38" x="55.615234"/>
      </g>
     </g>
    </g>
    <g id="ytick_11">
     <g id="line2d_69">
      <path d="M 30.50375 48.282836 
L 242.852569 48.282836 
" clip-path="url(#pb079bf628c)" style="fill: none; stroke-dasharray: 1.85,0.8; stroke-dashoffset: 0; stroke: #b0b0b0; stroke-opacity: 0.3; stroke-width: 0.5"/>
     </g>
     <g id="line2d_70">
      <g>
       <use xlink:href="#m3ab1027f04" x="30.50375" y="48.282836" style="stroke: #000000; stroke-width: 0.8"/>
      </g>
     </g>
     <g id="text_17">
      <!-- 30 -->
      <g transform="translate(16.830625 50.43018) scale(0.06 -0.06)">
       <use xlink:href="#ArialMT-33"/>
       <use xlink:href="#ArialMT-30" x="55.615234"/>
      </g>
     </g>
    </g>
    <g id="ytick_12">
     <g id="line2d_71">
      <path d="M 30.50375 33.685003 
L 242.852569 33.685003 
" clip-path="url(#pb079bf628c)" style="fill: none; stroke-dasharray: 1.85,0.8; stroke-dashoffset: 0; stroke: #b0b0b0; stroke-opacity: 0.3; stroke-width: 0.5"/>
     </g>
     <g id="line2d_72">
      <g>
       <use xlink:href="#m3ab1027f04" x="30.50375" y="33.685003" style="stroke: #000000; stroke-width: 0.8"/>
      </g>
     </g>
     <g id="text_18">
      <!-- 32 -->
      <g transform="translate(16.830625 35.832347) scale(0.06 -0.06)">
       <use xlink:href="#ArialMT-33"/>
       <use xlink:href="#ArialMT-32" x="55.615234"/>
      </g>
     </g>
    </g>
    <g id="ytick_13">
     <g id="line2d_73">
      <path d="M 30.50375 19.08717 
L 242.852569 19.08717 
" clip-path="url(#pb079bf628c)" style="fill: none; stroke-dasharray: 1.85,0.8; stroke-dashoffset: 0; stroke: #b0b0b0; stroke-opacity: 0.3; stroke-width: 0.5"/>
     </g>
     <g id="line2d_74">
      <g>
       <use xlink:href="#m3ab1027f04" x="30.50375" y="19.08717" style="stroke: #000000; stroke-width: 0.8"/>
      </g>
     </g>
     <g id="text_19">
      <!-- 34 -->
      <g transform="translate(16.830625 21.234514) scale(0.06 -0.06)">
       <use xlink:href="#ArialMT-33"/>
       <use xlink:href="#ArialMT-34" x="55.615234"/>
      </g>
     </g>
    </g>
    <g id="text_20">
     <!-- Cq (mean) -->
     <g transform="translate(11.567813 116.295671) rotate(-90) scale(0.06 -0.06)">
      <defs>
       <path id="ArialMT-43" d="M 3763 1606 
L 4369 1453 
Q 4178 706 3683 314 
Q 3188 -78 2472 -78 
Q 1731 -78 1267 223 
Q 803 525 561 1097 
Q 319 1669 319 2325 
Q 319 3041 592 3573 
Q 866 4106 1370 4382 
Q 1875 4659 2481 4659 
Q 3169 4659 3637 4309 
Q 4106 3959 4291 3325 
L 3694 3184 
Q 3534 3684 3231 3912 
Q 2928 4141 2469 4141 
Q 1941 4141 1586 3887 
Q 1231 3634 1087 3207 
Q 944 2781 944 2328 
Q 944 1744 1114 1308 
Q 1284 872 1643 656 
Q 2003 441 2422 441 
Q 2931 441 3284 734 
Q 3638 1028 3763 1606 
z
" transform="scale(0.015625)"/>
       <path id="ArialMT-71" d="M 2538 -1272 
L 2538 353 
Q 2406 169 2170 47 
Q 1934 -75 1669 -75 
Q 1078 -75 651 397 
Q 225 869 225 1691 
Q 225 2191 398 2587 
Q 572 2984 901 3189 
Q 1231 3394 1625 3394 
Q 2241 3394 2594 2875 
L 2594 3319 
L 3100 3319 
L 3100 -1272 
L 2538 -1272 
z
M 803 1669 
Q 803 1028 1072 708 
Q 1341 388 1716 388 
Q 2075 388 2334 692 
Q 2594 997 2594 1619 
Q 2594 2281 2320 2615 
Q 2047 2950 1678 2950 
Q 1313 2950 1058 2639 
Q 803 2328 803 1669 
z
" transform="scale(0.015625)"/>
       <path id="ArialMT-28" d="M 1497 -1347 
Q 1031 -759 709 28 
Q 388 816 388 1659 
Q 388 2403 628 3084 
Q 909 3875 1497 4659 
L 1900 4659 
Q 1522 4009 1400 3731 
Q 1209 3300 1100 2831 
Q 966 2247 966 1656 
Q 966 153 1900 -1347 
L 1497 -1347 
z
" transform="scale(0.015625)"/>
       <path id="ArialMT-29" d="M 791 -1347 
L 388 -1347 
Q 1322 153 1322 1656 
Q 1322 2244 1188 2822 
Q 1081 3291 891 3722 
Q 769 4003 388 4659 
L 791 4659 
Q 1378 3875 1659 3084 
Q 1900 2403 1900 1659 
Q 1900 816 1576 28 
Q 1253 -759 791 -1347 
z
" transform="scale(0.015625)"/>
      </defs>
      <use xlink:href="#ArialMT-43"/>
      <use xlink:href="#ArialMT-71" x="72.216797"/>
      <use xlink:href="#ArialMT-20" x="127.832031"/>
      <use xlink:href="#ArialMT-28" x="155.615234"/>
      <use xlink:href="#ArialMT-6d" x="188.916016"/>
      <use xlink:href="#ArialMT-65" x="272.216797"/>
      <use xlink:href="#ArialMT-61" x="327.832031"/>
      <use xlink:href="#ArialMT-6e" x="383.447266"/>
      <use xlink:href="#ArialMT-29" x="439.0625"/>
     </g>
    </g>
   </g>
   <g id="PolyCollection_1">
    <defs>
     <path id="m0ff620b02e" d="M 242.852569 -148.820651 
L 242.852569 -37.877121 
L 242.142372 -38.083304 
L 241.432175 -38.289488 
L 240.721979 -38.495671 
L 240.011782 -38.701855 
L 239.301585 -38.908038 
L 238.591389 -39.114222 
L 237.881192 -39.320405 
L 237.170995 -39.526589 
L 236.460798 -39.732773 
L 235.750602 -39.938956 
L 235.040405 -40.14514 
L 234.330208 -40.351323 
L 233.620012 -40.557507 
L 232.909815 -40.76369 
L 232.199618 -40.969874 
L 231.489421 -41.176057 
L 230.779225 -41.382241 
L 230.069028 -41.588425 
L 229.358831 -41.794608 
L 228.648635 -42.000792 
L 227.938438 -42.206975 
L 227.228241 -42.413159 
L 226.518044 -42.619342 
L 225.807848 -42.825526 
L 225.097651 -43.031709 
L 224.387454 -43.237893 
L 223.677257 -43.444076 
L 222.967061 -43.65026 
L 222.256864 -43.856444 
L 221.546667 -44.062627 
L 220.836471 -44.268811 
L 220.126274 -44.474994 
L 219.416077 -44.681178 
L 218.70588 -44.887361 
L 217.995684 -45.093545 
L 217.285487 -45.299728 
L 216.57529 -45.505912 
L 215.865094 -45.712096 
L 215.154897 -45.918279 
L 214.4447 -46.124463 
L 213.734503 -46.330646 
L 213.024307 -46.53683 
L 212.31411 -46.743013 
L 211.603913 -46.949197 
L 210.893717 -47.15538 
L 210.18352 -47.361564 
L 209.473323 -47.567747 
L 208.763126 -47.773931 
L 208.05293 -47.980115 
L 207.342733 -48.186298 
L 206.632536 -48.392482 
L 205.92234 -48.598665 
L 205.212143 -48.804849 
L 204.501946 -49.011032 
L 203.791749 -49.217216 
L 203.081553 -49.423399 
L 202.371356 -49.629583 
L 201.661159 -49.835767 
L 200.950962 -50.04195 
L 200.240766 -50.248134 
L 199.530569 -50.454317 
L 198.820372 -50.660501 
L 198.110176 -50.866684 
L 197.399979 -51.072868 
L 196.689782 -51.279051 
L 195.979585 -51.485235 
L 195.269389 -51.691418 
L 194.559192 -51.897602 
L 193.848995 -52.103786 
L 193.138799 -52.309969 
L 192.428602 -52.516153 
L 191.718405 -52.722336 
L 191.008208 -52.92852 
L 190.298012 -53.134703 
L 189.587815 -53.340887 
L 188.877618 -53.54707 
L 188.167422 -53.753254 
L 187.457225 -53.959438 
L 186.747028 -54.165621 
L 186.036831 -54.371805 
L 185.326635 -54.577988 
L 184.616438 -54.784172 
L 183.906241 -54.990355 
L 183.196045 -55.196539 
L 182.485848 -55.402722 
L 181.775651 -55.608906 
L 181.065454 -55.815089 
L 180.355258 -56.021273 
L 179.645061 -56.227457 
L 178.934864 -56.43364 
L 178.224667 -56.639824 
L 177.514471 -56.846007 
L 176.804274 -57.052191 
L 176.094077 -57.258374 
L 175.383881 -57.464558 
L 174.673684 -57.670741 
L 173.963487 -57.876925 
L 173.25329 -58.083109 
L 172.543094 -58.289292 
L 171.832897 -58.495476 
L 171.1227 -58.701659 
L 170.412504 -58.907843 
L 169.702307 -59.114026 
L 168.99211 -59.32021 
L 168.281913 -59.526393 
L 167.571717 -59.732577 
L 166.86152 -59.93876 
L 166.151323 -60.144944 
L 165.441127 -60.351128 
L 164.73093 -60.557311 
L 164.020733 -60.763495 
L 163.310536 -60.969678 
L 162.60034 -61.175862 
L 161.890143 -61.382045 
L 161.179946 -61.588229 
L 160.46975 -61.794412 
L 159.759553 -62.000596 
L 159.049356 -62.20678 
L 158.339159 -62.412963 
L 157.628963 -62.619147 
L 156.918766 -62.82533 
L 156.208569 -63.031514 
L 155.498372 -63.237697 
L 154.788176 -63.443881 
L 154.077979 -63.650064 
L 153.367782 -63.856248 
L 152.657586 -64.062432 
L 151.947389 -64.268615 
L 151.237192 -64.474799 
L 150.526995 -64.680982 
L 149.816799 -64.887166 
L 149.106602 -65.093349 
L 148.396405 -65.299533 
L 147.686209 -65.505716 
L 146.976012 -65.7119 
L 146.265815 -65.918083 
L 145.555618 -66.124267 
L 144.845422 -66.330451 
L 144.135225 -66.536634 
L 143.425028 -66.742818 
L 142.714832 -66.949001 
L 142.004635 -67.155185 
L 141.294438 -67.361368 
L 140.584241 -67.567552 
L 139.874045 -67.773735 
L 139.163848 -67.979919 
L 138.453651 -68.186103 
L 137.743455 -68.392286 
L 137.033258 -68.59847 
L 136.323061 -68.804653 
L 135.612864 -69.010837 
L 134.902668 -69.21702 
L 134.192471 -69.423204 
L 133.482274 -69.629387 
L 132.772077 -69.835571 
L 132.061881 -70.041754 
L 131.351684 -70.247938 
L 130.641487 -70.454122 
L 129.931291 -70.660305 
L 129.221094 -70.866489 
L 128.510897 -71.072672 
L 127.8007 -71.278856 
L 127.090504 -71.485039 
L 126.380307 -71.691223 
L 125.67011 -71.897406 
L 124.959914 -72.10359 
L 124.249717 -72.309774 
L 123.53952 -72.515957 
L 122.829323 -72.722141 
L 122.119127 -72.928324 
L 121.40893 -73.134508 
L 120.698733 -73.340691 
L 119.988537 -73.546875 
L 119.27834 -73.753058 
L 118.568143 -73.959242 
L 117.857946 -74.165425 
L 117.14775 -74.371609 
L 116.437553 -74.577793 
L 115.727356 -74.783976 
L 115.01716 -74.99016 
L 114.306963 -75.196343 
L 113.596766 -75.402527 
L 112.886569 -75.60871 
L 112.176373 -75.814894 
L 111.466176 -76.021077 
L 110.755979 -76.227261 
L 110.045782 -76.433445 
L 109.335586 -76.639628 
L 108.625389 -76.845812 
L 107.915192 -77.051995 
L 107.204996 -77.258179 
L 106.494799 -77.464362 
L 105.784602 -77.670546 
L 105.074405 -77.876729 
L 104.364209 -78.082913 
L 103.654012 -78.289096 
L 102.943815 -78.49528 
L 102.233619 -78.701464 
L 101.523422 -78.907647 
L 100.813225 -79.113831 
L 100.103028 -79.320014 
L 99.392832 -79.526198 
L 98.682635 -79.732381 
L 97.972438 -79.938565 
L 97.262242 -80.144748 
L 96.552045 -80.350932 
L 95.841848 -80.557116 
L 95.131651 -80.763299 
L 94.421455 -80.969483 
L 93.711258 -81.175666 
L 93.001061 -81.38185 
L 92.290865 -81.588033 
L 91.580668 -81.794217 
L 90.870471 -82.0004 
L 90.160274 -82.206584 
L 89.450078 -82.412767 
L 88.739881 -82.618951 
L 88.029684 -82.825135 
L 87.319487 -83.031318 
L 86.609291 -83.237502 
L 85.899094 -83.443685 
L 85.188897 -83.649869 
L 84.478701 -83.856052 
L 83.768504 -84.062236 
L 83.058307 -84.268419 
L 82.34811 -84.474603 
L 81.637914 -84.680787 
L 80.927717 -84.88697 
L 80.21752 -85.093154 
L 79.507324 -85.299337 
L 78.797127 -85.505521 
L 78.08693 -85.711704 
L 77.376733 -85.917888 
L 76.666537 -86.124071 
L 75.95634 -86.330255 
L 75.246143 -86.536438 
L 74.535947 -86.742622 
L 73.82575 -86.948806 
L 73.115553 -87.154989 
L 72.405356 -87.361173 
L 71.69516 -87.567356 
L 70.984963 -87.77354 
L 70.274766 -87.979723 
L 69.56457 -88.185907 
L 68.854373 -88.39209 
L 68.144176 -88.598274 
L 67.433979 -88.804458 
L 66.723783 -89.010641 
L 66.013586 -89.216825 
L 65.303389 -89.423008 
L 64.593192 -89.629192 
L 63.882996 -89.835375 
L 63.172799 -90.041559 
L 62.462602 -90.247742 
L 61.752406 -90.453926 
L 61.042209 -90.660109 
L 60.332012 -90.866293 
L 59.621815 -91.072477 
L 58.911619 -91.27866 
L 58.201422 -91.484844 
L 57.491225 -91.691027 
L 56.781029 -91.897211 
L 56.070832 -92.103394 
L 55.360635 -92.309578 
L 54.650438 -92.515761 
L 53.940242 -92.721945 
L 53.230045 -92.928129 
L 52.519848 -93.134312 
L 51.809652 -93.340496 
L 51.099455 -93.546679 
L 50.389258 -93.752863 
L 49.679061 -93.959046 
L 48.968865 -94.16523 
L 48.258668 -94.371413 
L 47.548471 -94.577597 
L 46.838275 -94.78378 
L 46.128078 -94.989964 
L 45.417881 -95.196148 
L 44.707684 -95.402331 
L 43.997488 -95.608515 
L 43.287291 -95.814698 
L 42.577094 -96.020882 
L 41.866897 -96.227065 
L 41.156701 -96.433249 
L 40.446504 -96.639432 
L 39.736307 -96.845616 
L 39.026111 -97.0518 
L 38.315914 -97.257983 
L 37.605717 -97.464167 
L 36.89552 -97.67035 
L 36.185324 -97.876534 
L 35.475127 -98.082717 
L 34.76493 -98.288901 
L 34.054734 -98.495084 
L 33.344537 -98.701268 
L 32.63434 -98.907452 
L 31.924143 -99.113635 
L 31.213947 -99.319819 
L 30.50375 -99.526002 
L 30.50375 -210.469533 
L 30.50375 -210.469533 
L 31.213947 -210.263349 
L 31.924143 -210.057166 
L 32.63434 -209.850982 
L 33.344537 -209.644799 
L 34.054734 -209.438615 
L 34.76493 -209.232432 
L 35.475127 -209.026248 
L 36.185324 -208.820065 
L 36.89552 -208.613881 
L 37.605717 -208.407697 
L 38.315914 -208.201514 
L 39.026111 -207.99533 
L 39.736307 -207.789147 
L 40.446504 -207.582963 
L 41.156701 -207.37678 
L 41.866897 -207.170596 
L 42.577094 -206.964413 
L 43.287291 -206.758229 
L 43.997488 -206.552045 
L 44.707684 -206.345862 
L 45.417881 -206.139678 
L 46.128078 -205.933495 
L 46.838275 -205.727311 
L 47.548471 -205.521128 
L 48.258668 -205.314944 
L 48.968865 -205.108761 
L 49.679061 -204.902577 
L 50.389258 -204.696394 
L 51.099455 -204.49021 
L 51.809652 -204.284026 
L 52.519848 -204.077843 
L 53.230045 -203.871659 
L 53.940242 -203.665476 
L 54.650438 -203.459292 
L 55.360635 -203.253109 
L 56.070832 -203.046925 
L 56.781029 -202.840742 
L 57.491225 -202.634558 
L 58.201422 -202.428374 
L 58.911619 -202.222191 
L 59.621815 -202.016007 
L 60.332012 -201.809824 
L 61.042209 -201.60364 
L 61.752406 -201.397457 
L 62.462602 -201.191273 
L 63.172799 -200.98509 
L 63.882996 -200.778906 
L 64.593192 -200.572723 
L 65.303389 -200.366539 
L 66.013586 -200.160355 
L 66.723783 -199.954172 
L 67.433979 -199.747988 
L 68.144176 -199.541805 
L 68.854373 -199.335621 
L 69.56457 -199.129438 
L 70.274766 -198.923254 
L 70.984963 -198.717071 
L 71.69516 -198.510887 
L 72.405356 -198.304703 
L 73.115553 -198.09852 
L 73.82575 -197.892336 
L 74.535947 -197.686153 
L 75.246143 -197.479969 
L 75.95634 -197.273786 
L 76.666537 -197.067602 
L 77.376733 -196.861419 
L 78.08693 -196.655235 
L 78.797127 -196.449052 
L 79.507324 -196.242868 
L 80.21752 -196.036684 
L 80.927717 -195.830501 
L 81.637914 -195.624317 
L 82.34811 -195.418134 
L 83.058307 -195.21195 
L 83.768504 -195.005767 
L 84.478701 -194.799583 
L 85.188897 -194.5934 
L 85.899094 -194.387216 
L 86.609291 -194.181032 
L 87.319487 -193.974849 
L 88.029684 -193.768665 
L 88.739881 -193.562482 
L 89.450078 -193.356298 
L 90.160274 -193.150115 
L 90.870471 -192.943931 
L 91.580668 -192.737748 
L 92.290865 -192.531564 
L 93.001061 -192.325381 
L 93.711258 -192.119197 
L 94.421455 -191.913013 
L 95.131651 -191.70683 
L 95.841848 -191.500646 
L 96.552045 -191.294463 
L 97.262242 -191.088279 
L 97.972438 -190.882096 
L 98.682635 -190.675912 
L 99.392832 -190.469729 
L 100.103028 -190.263545 
L 100.813225 -190.057361 
L 101.523422 -189.851178 
L 102.233619 -189.644994 
L 102.943815 -189.438811 
L 103.654012 -189.232627 
L 104.364209 -189.026444 
L 105.074405 -188.82026 
L 105.784602 -188.614077 
L 106.494799 -188.407893 
L 107.204996 -188.201709 
L 107.915192 -187.995526 
L 108.625389 -187.789342 
L 109.335586 -187.583159 
L 110.045782 -187.376975 
L 110.755979 -187.170792 
L 111.466176 -186.964608 
L 112.176373 -186.758425 
L 112.886569 -186.552241 
L 113.596766 -186.346058 
L 114.306963 -186.139874 
L 115.01716 -185.93369 
L 115.727356 -185.727507 
L 116.437553 -185.521323 
L 117.14775 -185.31514 
L 117.857946 -185.108956 
L 118.568143 -184.902773 
L 119.27834 -184.696589 
L 119.988537 -184.490406 
L 120.698733 -184.284222 
L 121.40893 -184.078038 
L 122.119127 -183.871855 
L 122.829323 -183.665671 
L 123.53952 -183.459488 
L 124.249717 -183.253304 
L 124.959914 -183.047121 
L 125.67011 -182.840937 
L 126.380307 -182.634754 
L 127.090504 -182.42857 
L 127.8007 -182.222387 
L 128.510897 -182.016203 
L 129.221094 -181.810019 
L 129.931291 -181.603836 
L 130.641487 -181.397652 
L 131.351684 -181.191469 
L 132.061881 -180.985285 
L 132.772077 -180.779102 
L 133.482274 -180.572918 
L 134.192471 -180.366735 
L 134.902668 -180.160551 
L 135.612864 -179.954367 
L 136.323061 -179.748184 
L 137.033258 -179.542 
L 137.743455 -179.335817 
L 138.453651 -179.129633 
L 139.163848 -178.92345 
L 139.874045 -178.717266 
L 140.584241 -178.511083 
L 141.294438 -178.304899 
L 142.004635 -178.098716 
L 142.714832 -177.892532 
L 143.425028 -177.686348 
L 144.135225 -177.480165 
L 144.845422 -177.273981 
L 145.555618 -177.067798 
L 146.265815 -176.861614 
L 146.976012 -176.655431 
L 147.686209 -176.449247 
L 148.396405 -176.243064 
L 149.106602 -176.03688 
L 149.816799 -175.830696 
L 150.526995 -175.624513 
L 151.237192 -175.418329 
L 151.947389 -175.212146 
L 152.657586 -175.005962 
L 153.367782 -174.799779 
L 154.077979 -174.593595 
L 154.788176 -174.387412 
L 155.498372 -174.181228 
L 156.208569 -173.975045 
L 156.918766 -173.768861 
L 157.628963 -173.562677 
L 158.339159 -173.356494 
L 159.049356 -173.15031 
L 159.759553 -172.944127 
L 160.46975 -172.737943 
L 161.179946 -172.53176 
L 161.890143 -172.325576 
L 162.60034 -172.119393 
L 163.310536 -171.913209 
L 164.020733 -171.707025 
L 164.73093 -171.500842 
L 165.441127 -171.294658 
L 166.151323 -171.088475 
L 166.86152 -170.882291 
L 167.571717 -170.676108 
L 168.281913 -170.469924 
L 168.99211 -170.263741 
L 169.702307 -170.057557 
L 170.412504 -169.851374 
L 171.1227 -169.64519 
L 171.832897 -169.439006 
L 172.543094 -169.232823 
L 173.25329 -169.026639 
L 173.963487 -168.820456 
L 174.673684 -168.614272 
L 175.383881 -168.408089 
L 176.094077 -168.201905 
L 176.804274 -167.995722 
L 177.514471 -167.789538 
L 178.224667 -167.583354 
L 178.934864 -167.377171 
L 179.645061 -167.170987 
L 180.355258 -166.964804 
L 181.065454 -166.75862 
L 181.775651 -166.552437 
L 182.485848 -166.346253 
L 183.196045 -166.14007 
L 183.906241 -165.933886 
L 184.616438 -165.727703 
L 185.326635 -165.521519 
L 186.036831 -165.315335 
L 186.747028 -165.109152 
L 187.457225 -164.902968 
L 188.167422 -164.696785 
L 188.877618 -164.490601 
L 189.587815 -164.284418 
L 190.298012 -164.078234 
L 191.008208 -163.872051 
L 191.718405 -163.665867 
L 192.428602 -163.459683 
L 193.138799 -163.2535 
L 193.848995 -163.047316 
L 194.559192 -162.841133 
L 195.269389 -162.634949 
L 195.979585 -162.428766 
L 196.689782 -162.222582 
L 197.399979 -162.016399 
L 198.110176 -161.810215 
L 198.820372 -161.604032 
L 199.530569 -161.397848 
L 200.240766 -161.191664 
L 200.950962 -160.985481 
L 201.661159 -160.779297 
L 202.371356 -160.573114 
L 203.081553 -160.36693 
L 203.791749 -160.160747 
L 204.501946 -159.954563 
L 205.212143 -159.74838 
L 205.92234 -159.542196 
L 206.632536 -159.336012 
L 207.342733 -159.129829 
L 208.05293 -158.923645 
L 208.763126 -158.717462 
L 209.473323 -158.511278 
L 210.18352 -158.305095 
L 210.893717 -158.098911 
L 211.603913 -157.892728 
L 212.31411 -157.686544 
L 213.024307 -157.480361 
L 213.734503 -157.274177 
L 214.4447 -157.067993 
L 215.154897 -156.86181 
L 215.865094 -156.655626 
L 216.57529 -156.449443 
L 217.285487 -156.243259 
L 217.995684 -156.037076 
L 218.70588 -155.830892 
L 219.416077 -155.624709 
L 220.126274 -155.418525 
L 220.836471 -155.212341 
L 221.546667 -155.006158 
L 222.256864 -154.799974 
L 222.967061 -154.593791 
L 223.677257 -154.387607 
L 224.387454 -154.181424 
L 225.097651 -153.97524 
L 225.807848 -153.769057 
L 226.518044 -153.562873 
L 227.228241 -153.356689 
L 227.938438 -153.150506 
L 228.648635 -152.944322 
L 229.358831 -152.738139 
L 230.069028 -152.531955 
L 230.779225 -152.325772 
L 231.489421 -152.119588 
L 232.199618 -151.913405 
L 232.909815 -151.707221 
L 233.620012 -151.501038 
L 234.330208 -151.294854 
L 235.040405 -151.08867 
L 235.750602 -150.882487 
L 236.460798 -150.676303 
L 237.170995 -150.47012 
L 237.881192 -150.263936 
L 238.591389 -150.057753 
L 239.301585 -149.851569 
L 240.011782 -149.645386 
L 240.721979 -149.439202 
L 241.432175 -149.233018 
L 242.142372 -149.026835 
L 242.852569 -148.820651 
z
" style="stroke: #d3d3d3; stroke-opacity: 0.35"/>
    </defs>
    <g clip-path="url(#pb079bf628c)">
     <use xlink:href="#m0ff620b02e" x="0" y="226.299154" style="fill: #d3d3d3; fill-opacity: 0.35; stroke: #d3d3d3; stroke-opacity: 0.35"/>
    </g>
   </g>
   <g id="patch_3">
    <path d="M 30.50375 197.051654 
L 30.50375 7.2 
" style="fill: none; stroke: #000000; stroke-width: 0.6; stroke-linejoin: miter; stroke-linecap: square"/>
   </g>
   <g id="patch_4">
    <path d="M 242.852569 197.051654 
L 242.852569 7.2 
" style="fill: none; stroke: #000000; stroke-width: 0.6; stroke-linejoin: miter; stroke-linecap: square"/>
   </g>
   <g id="patch_5">
    <path d="M 30.50375 197.051654 
L 242.852569 197.051654 
" style="fill: none; stroke: #000000; stroke-width: 0.6; stroke-linejoin: miter; stroke-linecap: square"/>
   </g>
   <g id="patch_6">
    <path d="M 30.50375 7.2 
L 242.852569 7.2 
" style="fill: none; stroke: #000000; stroke-width: 0.6; stroke-linejoin: miter; stroke-linecap: square"/>
   </g>
   <g id="legend_1">
    <g id="line2d_75">
     <path d="M 35.90375 171.241341 
L 41.90375 171.241341 
L 47.90375 171.241341 
" style="fill: none; stroke: #0072b2; stroke-width: 0.6; stroke-linecap: square"/>
    </g>
    <g id="text_21">
     <!-- Plasma -->
     <g transform="translate(52.70375 173.341341) scale(0.06 -0.06)">
      <defs>
       <path id="ArialMT-50" d="M 494 0 
L 494 4581 
L 2222 4581 
Q 2678 4581 2919 4538 
Q 3256 4481 3484 4323 
Q 3713 4166 3852 3881 
Q 3991 3597 3991 3256 
Q 3991 2672 3619 2267 
Q 3247 1863 2275 1863 
L 1100 1863 
L 1100 0 
L 494 0 
z
M 1100 2403 
L 2284 2403 
Q 2872 2403 3119 2622 
Q 3366 2841 3366 3238 
Q 3366 3525 3220 3729 
Q 3075 3934 2838 4000 
Q 2684 4041 2272 4041 
L 1100 4041 
L 1100 2403 
z
" transform="scale(0.015625)"/>
       <path id="ArialMT-73" d="M 197 991 
L 753 1078 
Q 800 744 1014 566 
Q 1228 388 1613 388 
Q 2000 388 2187 545 
Q 2375 703 2375 916 
Q 2375 1106 2209 1216 
Q 2094 1291 1634 1406 
Q 1016 1563 777 1677 
Q 538 1791 414 1992 
Q 291 2194 291 2438 
Q 291 2659 392 2848 
Q 494 3038 669 3163 
Q 800 3259 1026 3326 
Q 1253 3394 1513 3394 
Q 1903 3394 2198 3281 
Q 2494 3169 2634 2976 
Q 2775 2784 2828 2463 
L 2278 2388 
Q 2241 2644 2061 2787 
Q 1881 2931 1553 2931 
Q 1166 2931 1000 2803 
Q 834 2675 834 2503 
Q 834 2394 903 2306 
Q 972 2216 1119 2156 
Q 1203 2125 1616 2013 
Q 2213 1853 2448 1751 
Q 2684 1650 2818 1456 
Q 2953 1263 2953 975 
Q 2953 694 2789 445 
Q 2625 197 2315 61 
Q 2006 -75 1616 -75 
Q 969 -75 630 194 
Q 291 463 197 991 
z
" transform="scale(0.015625)"/>
      </defs>
      <use xlink:href="#ArialMT-50"/>
      <use xlink:href="#ArialMT-6c" x="66.699219"/>
      <use xlink:href="#ArialMT-61" x="88.916016"/>
      <use xlink:href="#ArialMT-73" x="144.53125"/>
      <use xlink:href="#ArialMT-6d" x="194.53125"/>
      <use xlink:href="#ArialMT-61" x="277.832031"/>
     </g>
    </g>
    <g id="line2d_76">
     <path d="M 35.90375 179.728529 
L 41.90375 179.728529 
L 47.90375 179.728529 
" style="fill: none; stroke: #d55e00; stroke-width: 0.6; stroke-linecap: square"/>
    </g>
    <g id="text_22">
     <!-- Standards -->
     <g transform="translate(52.70375 181.828529) scale(0.06 -0.06)">
      <defs>
       <path id="ArialMT-72" d="M 416 0 
L 416 3319 
L 922 3319 
L 922 2816 
Q 1116 3169 1280 3281 
Q 1444 3394 1641 3394 
Q 1925 3394 2219 3213 
L 2025 2691 
Q 1819 2813 1613 2813 
Q 1428 2813 1281 2702 
Q 1134 2591 1072 2394 
Q 978 2094 978 1738 
L 978 0 
L 416 0 
z
" transform="scale(0.015625)"/>
      </defs>
      <use xlink:href="#ArialMT-53"/>
      <use xlink:href="#ArialMT-74" x="66.699219"/>
      <use xlink:href="#ArialMT-61" x="94.482422"/>
      <use xlink:href="#ArialMT-6e" x="150.097656"/>
      <use xlink:href="#ArialMT-64" x="205.712891"/>
      <use xlink:href="#ArialMT-61" x="261.328125"/>
      <use xlink:href="#ArialMT-72" x="316.943359"/>
      <use xlink:href="#ArialMT-64" x="350.244141"/>
      <use xlink:href="#ArialMT-73" x="405.859375"/>
     </g>
    </g>
    <g id="patch_7">
     <path d="M 35.90375 190.388841 
L 47.90375 190.388841 
L 47.90375 186.188841 
L 35.90375 186.188841 
z
" style="fill: #d3d3d3; opacity: 0.5"/>
    </g>
    <g id="text_23">
     <!-- Theoretical reference (m = -3.32) -->
     <g transform="translate(52.70375 190.388841) scale(0.06 -0.06)">
      <defs>
       <path id="ArialMT-54" d="M 1659 0 
L 1659 4041 
L 150 4041 
L 150 4581 
L 3781 4581 
L 3781 4041 
L 2266 4041 
L 2266 0 
L 1659 0 
z
" transform="scale(0.015625)"/>
       <path id="ArialMT-68" d="M 422 0 
L 422 4581 
L 984 4581 
L 984 2938 
Q 1378 3394 1978 3394 
Q 2347 3394 2619 3248 
Q 2891 3103 3008 2847 
Q 3125 2591 3125 2103 
L 3125 0 
L 2563 0 
L 2563 2103 
Q 2563 2525 2380 2717 
Q 2197 2909 1863 2909 
Q 1613 2909 1392 2779 
Q 1172 2650 1078 2428 
Q 984 2206 984 1816 
L 984 0 
L 422 0 
z
" transform="scale(0.015625)"/>
       <path id="ArialMT-63" d="M 2588 1216 
L 3141 1144 
Q 3050 572 2676 248 
Q 2303 -75 1759 -75 
Q 1078 -75 664 370 
Q 250 816 250 1647 
Q 250 2184 428 2587 
Q 606 2991 970 3192 
Q 1334 3394 1763 3394 
Q 2303 3394 2647 3120 
Q 2991 2847 3088 2344 
L 2541 2259 
Q 2463 2594 2264 2762 
Q 2066 2931 1784 2931 
Q 1359 2931 1093 2626 
Q 828 2322 828 1663 
Q 828 994 1084 691 
Q 1341 388 1753 388 
Q 2084 388 2306 591 
Q 2528 794 2588 1216 
z
" transform="scale(0.015625)"/>
       <path id="ArialMT-66" d="M 556 0 
L 556 2881 
L 59 2881 
L 59 3319 
L 556 3319 
L 556 3672 
Q 556 4006 616 4169 
Q 697 4388 901 4523 
Q 1106 4659 1475 4659 
Q 1713 4659 2000 4603 
L 1916 4113 
Q 1741 4144 1584 4144 
Q 1328 4144 1222 4034 
Q 1116 3925 1116 3625 
L 1116 3319 
L 1763 3319 
L 1763 2881 
L 1116 2881 
L 1116 0 
L 556 0 
z
" transform="scale(0.015625)"/>
       <path id="ArialMT-3d" d="M 3381 2694 
L 356 2694 
L 356 3219 
L 3381 3219 
L 3381 2694 
z
M 3381 1303 
L 356 1303 
L 356 1828 
L 3381 1828 
L 3381 1303 
z
" transform="scale(0.015625)"/>
       <path id="ArialMT-2d" d="M 203 1375 
L 203 1941 
L 1931 1941 
L 1931 1375 
L 203 1375 
z
" transform="scale(0.015625)"/>
       <path id="ArialMT-2e" d="M 581 0 
L 581 641 
L 1222 641 
L 1222 0 
L 581 0 
z
" transform="scale(0.015625)"/>
      </defs>
      <use xlink:href="#ArialMT-54"/>
      <use xlink:href="#ArialMT-68" x="61.083984"/>
      <use xlink:href="#ArialMT-65" x="116.699219"/>
      <use xlink:href="#ArialMT-6f" x="172.314453"/>
      <use xlink:href="#ArialMT-72" x="227.929688"/>
      <use xlink:href="#ArialMT-65" x="261.230469"/>
      <use xlink:href="#ArialMT-74" x="316.845703"/>
      <use xlink:href="#ArialMT-69" x="344.628906"/>
      <use xlink:href="#ArialMT-63" x="366.845703"/>
      <use xlink:href="#ArialMT-61" x="416.845703"/>
      <use xlink:href="#ArialMT-6c" x="472.460938"/>
      <use xlink:href="#ArialMT-20" x="494.677734"/>
      <use xlink:href="#ArialMT-72" x="522.460938"/>
      <use xlink:href="#ArialMT-65" x="555.761719"/>
      <use xlink:href="#ArialMT-66" x="611.376953"/>
      <use xlink:href="#ArialMT-65" x="639.160156"/>
      <use xlink:href="#ArialMT-72" x="694.775391"/>
      <use xlink:href="#ArialMT-65" x="728.076172"/>
      <use xlink:href="#ArialMT-6e" x="783.691406"/>
      <use xlink:href="#ArialMT-63" x="839.306641"/>
      <use xlink:href="#ArialMT-65" x="889.306641"/>
      <use xlink:href="#ArialMT-20" x="944.921875"/>
      <use xlink:href="#ArialMT-28" x="972.705078"/>
      <use xlink:href="#ArialMT-6d" x="1006.005859"/>
      <use xlink:href="#ArialMT-20" x="1089.306641"/>
      <use xlink:href="#ArialMT-3d" x="1117.089844"/>
      <use xlink:href="#ArialMT-20" x="1175.488281"/>
      <use xlink:href="#ArialMT-2d" x="1203.271484"/>
      <use xlink:href="#ArialMT-33" x="1236.572266"/>
      <use xlink:href="#ArialMT-2e" x="1292.1875"/>
      <use xlink:href="#ArialMT-33" x="1319.970703"/>
      <use xlink:href="#ArialMT-32" x="1375.585938"/>
      <use xlink:href="#ArialMT-29" x="1431.201172"/>
     </g>
    </g>
   </g>
   <g id="line2d_77">
    <path d="M 234.763663 142.237242 
L 77.395927 96.032677 
L 77.395927 96.032677 
" clip-path="url(#pb079bf628c)" style="fill: none; stroke: #0072b2; stroke-opacity: 0.7; stroke-width: 0.6; stroke-linecap: square"/>
   </g>
   <g id="line2d_78">
    <path d="M 234.763663 137.762686 
L 1.396548 73.840166 
L 1.396548 73.840166 
" clip-path="url(#pb079bf628c)" style="fill: none; stroke: #0072b2; stroke-opacity: 0.7; stroke-width: 0.6; stroke-linecap: square"/>
   </g>
   <g id="line2d_79">
    <path d="M 234.763663 92.232403 
L 59.738327 33.352366 
L 59.738327 33.352366 
" clip-path="url(#pb079bf628c)" style="fill: none; stroke: #0072b2; stroke-opacity: 0.7; stroke-width: 0.6; stroke-linecap: square"/>
   </g>
   <g id="line2d_80">
    <path d="M 234.763663 111.013159 
L 59.738327 55.208005 
L 59.738327 55.208005 
" clip-path="url(#pb079bf628c)" style="fill: none; stroke: #0072b2; stroke-opacity: 0.7; stroke-width: 0.6; stroke-linecap: square"/>
   </g>
   <g id="line2d_81">
    <path d="M 234.763663 81.869015 
L 59.738327 31.825282 
L 59.738327 31.825282 
" clip-path="url(#pb079bf628c)" style="fill: none; stroke: #0072b2; stroke-opacity: 0.7; stroke-width: 0.6; stroke-linecap: square"/>
   </g>
   <g id="line2d_82">
    <path d="M 234.763663 118.101695 
L 59.738327 64.816921 
L 59.738327 64.816921 
" clip-path="url(#pb079bf628c)" style="fill: none; stroke: #0072b2; stroke-opacity: 0.7; stroke-width: 0.6; stroke-linecap: square"/>
   </g>
   <g id="line2d_83">
    <path d="M 234.763663 95.77431 
L 59.738327 44.542356 
L 59.738327 44.542356 
" clip-path="url(#pb079bf628c)" style="fill: none; stroke: #0072b2; stroke-opacity: 0.7; stroke-width: 0.6; stroke-linecap: square"/>
   </g>
   <g id="line2d_84">
    <path d="M 234.763663 114.963275 
L 59.738327 63.138557 
L 59.738327 63.138557 
" clip-path="url(#pb079bf628c)" style="fill: none; stroke: #0072b2; stroke-opacity: 0.7; stroke-width: 0.6; stroke-linecap: square"/>
   </g>
   <g id="line2d_85">
    <path d="M 209.637227 134.48085 
L 34.611891 79.924004 
L 34.611891 79.924004 
" clip-path="url(#pb079bf628c)" style="fill: none; stroke: #0072b2; stroke-opacity: 0.7; stroke-width: 0.6; stroke-linecap: square"/>
   </g>
   <g id="line2d_86">
    <path d="M 234.763663 122.027827 
L 59.738327 71.906166 
L 59.738327 71.906166 
" clip-path="url(#pb079bf628c)" style="fill: none; stroke: #0072b2; stroke-opacity: 0.7; stroke-width: 0.6; stroke-linecap: square"/>
   </g>
   <g id="line2d_87">
    <path d="M 209.637227 128.223124 
L 34.611891 72.968867 
L 34.611891 72.968867 
" clip-path="url(#pb079bf628c)" style="fill: none; stroke: #0072b2; stroke-opacity: 0.7; stroke-width: 0.6; stroke-linecap: square"/>
   </g>
   <g id="line2d_88">
    <path d="M 209.637227 107.091743 
L 34.611891 53.911165 
L 34.611891 53.911165 
" clip-path="url(#pb079bf628c)" style="fill: none; stroke: #0072b2; stroke-opacity: 0.7; stroke-width: 0.6; stroke-linecap: square"/>
   </g>
   <g id="line2d_89">
    <path d="M 209.637227 77.141138 
L 34.611891 29.136936 
L 34.611891 29.136936 
" clip-path="url(#pb079bf628c)" style="fill: none; stroke: #0072b2; stroke-opacity: 0.7; stroke-width: 0.6; stroke-linecap: square"/>
   </g>
   <g id="line2d_90">
    <path d="M 209.637227 89.186947 
L 34.611891 38.308586 
L 34.611891 38.308586 
" clip-path="url(#pb079bf628c)" style="fill: none; stroke: #0072b2; stroke-opacity: 0.7; stroke-width: 0.6; stroke-linecap: square"/>
   </g>
   <g id="line2d_91">
    <path d="M 234.763663 107.040939 
L 59.738327 54.954046 
L 59.738327 54.954046 
" clip-path="url(#pb079bf628c)" style="fill: none; stroke: #0072b2; stroke-opacity: 0.7; stroke-width: 0.6; stroke-linecap: square"/>
   </g>
   <g id="line2d_92">
    <path d="M 234.763663 93.527725 
L 59.738327 42.827991 
L 59.738327 42.827991 
" clip-path="url(#pb079bf628c)" style="fill: none; stroke: #0072b2; stroke-opacity: 0.7; stroke-width: 0.6; stroke-linecap: square"/>
   </g>
   <g id="line2d_93">
    <path d="M 209.637227 82.756714 
L 34.611891 34.515985 
L 34.611891 34.515985 
" clip-path="url(#pb079bf628c)" style="fill: none; stroke: #0072b2; stroke-opacity: 0.7; stroke-width: 0.6; stroke-linecap: square"/>
   </g>
   <g id="line2d_94">
    <path d="M 242.852569 88.552202 
L 88.076953 48.701786 
L 88.076953 48.701786 
" clip-path="url(#pb079bf628c)" style="fill: none; stroke: #0072b2; stroke-opacity: 0.7; stroke-width: 0.6; stroke-linecap: square"/>
   </g>
   <g id="line2d_95">
    <path d="M 209.637227 111.166286 
L 34.611891 58.53088 
L 34.611891 58.53088 
" clip-path="url(#pb079bf628c)" style="fill: none; stroke: #0072b2; stroke-opacity: 0.7; stroke-width: 0.6; stroke-linecap: square"/>
   </g>
   <g id="line2d_96">
    <path d="M 234.763663 100.758396 
L 84.005044 54.715006 
L 84.005044 54.715006 
" clip-path="url(#pb079bf628c)" style="fill: none; stroke: #0072b2; stroke-opacity: 0.7; stroke-width: 0.6; stroke-linecap: square"/>
   </g>
   <g id="line2d_97">
    <path d="M 234.763663 94.377684 
L 84.005044 49.895532 
L 84.005044 49.895532 
" clip-path="url(#pb079bf628c)" style="fill: none; stroke: #0072b2; stroke-opacity: 0.7; stroke-width: 0.6; stroke-linecap: square"/>
   </g>
   <g id="line2d_98">
    <path d="M 251.052569 179.569455 
L 3.560534 106.674168 
" clip-path="url(#pb079bf628c)" style="fill: none; stroke: #d55e00; stroke-width: 0.6; stroke-linecap: square"/>
   </g>
   <g id="line2d_99">
    <path d="M 251.052569 106.580284 
L 3.560553 33.685003 
" clip-path="url(#pb079bf628c)" style="fill: none; stroke: #d55e00; stroke-width: 0.6; stroke-linecap: square"/>
   </g>
   <g id="line2d_100">
    <path d="M 247.244367 179.663333 
L -1 107.938542 
" clip-path="url(#pb079bf628c)" style="fill: none; stroke: #d55e00; stroke-width: 0.6; stroke-linecap: square"/>
   </g>
   <g id="line2d_101">
    <path d="M 242.434703 106.674168 
L -1 36.339025 
" clip-path="url(#pb079bf628c)" style="fill: none; stroke: #d55e00; stroke-width: 0.6; stroke-linecap: square"/>
   </g>
   <g id="line2d_102">
    <path d="M 251.052569 175.468857 
L 17.932412 106.674168 
" clip-path="url(#pb079bf628c)" style="fill: none; stroke: #d55e00; stroke-width: 0.6; stroke-linecap: square"/>
   </g>
   <g id="line2d_103">
    <path d="M 251.052569 102.338905 
L 18.409488 33.685003 
" clip-path="url(#pb079bf628c)" style="fill: none; stroke: #d55e00; stroke-width: 0.6; stroke-linecap: square"/>
   </g>
   <g id="line2d_104">
    <path d="M 251.052569 177.883224 
L 9.250726 106.674168 
" clip-path="url(#pb079bf628c)" style="fill: none; stroke: #d55e00; stroke-width: 0.6; stroke-linecap: square"/>
   </g>
   <g id="line2d_105">
    <path d="M 251.052569 104.904574 
L 9.215022 33.685003 
" clip-path="url(#pb079bf628c)" style="fill: none; stroke: #d55e00; stroke-width: 0.6; stroke-linecap: square"/>
   </g>
   <g id="line2d_106">
    <path d="M 243.388593 179.663333 
L -1 107.919254 
" clip-path="url(#pb079bf628c)" style="fill: none; stroke: #d55e00; stroke-width: 0.6; stroke-linecap: square"/>
   </g>
   <g id="line2d_107">
    <path d="M 242.569535 106.674168 
L -1 35.170536 
" clip-path="url(#pb079bf628c)" style="fill: none; stroke: #d55e00; stroke-width: 0.6; stroke-linecap: square"/>
   </g>
   <g id="line2d_108">
    <path d="M 251.052569 174.566407 
L 16.537462 106.674168 
" clip-path="url(#pb079bf628c)" style="fill: none; stroke: #d55e00; stroke-width: 0.6; stroke-linecap: square"/>
   </g>
   <g id="line2d_109">
    <path d="M 251.052569 102.825062 
L 12.227209 33.685003 
" clip-path="url(#pb079bf628c)" style="fill: none; stroke: #d55e00; stroke-width: 0.6; stroke-linecap: square"/>
   </g>
   <g id="line2d_110">
    <path d="M 251.052569 176.319653 
L 12.463438 106.674168 
" clip-path="url(#pb079bf628c)" style="fill: none; stroke: #d55e00; stroke-width: 0.6; stroke-linecap: square"/>
   </g>
   <g id="line2d_111">
    <path d="M 251.052569 103.982316 
L 10.230428 33.685003 
" clip-path="url(#pb079bf628c)" style="fill: none; stroke: #d55e00; stroke-width: 0.6; stroke-linecap: square"/>
   </g>
   <g id="line2d_112">
    <path d="M 251.052569 171.09079 
L 34.89113 106.674168 
" clip-path="url(#pb079bf628c)" style="fill: none; stroke: #d55e00; stroke-width: 0.6; stroke-linecap: square"/>
   </g>
   <g id="line2d_113">
    <path d="M 251.052569 97.242587 
L 37.773785 33.685003 
" clip-path="url(#pb079bf628c)" style="fill: none; stroke: #d55e00; stroke-width: 0.6; stroke-linecap: square"/>
   </g>
   <g id="line2d_114">
    <path d="M 248.592953 179.663333 
L 6.705327 106.674168 
" clip-path="url(#pb079bf628c)" style="fill: none; stroke: #d55e00; stroke-width: 0.6; stroke-linecap: square"/>
   </g>
   <g id="line2d_115">
    <path d="M 251.052569 105.629049 
L 12.628489 33.685003 
" clip-path="url(#pb079bf628c)" style="fill: none; stroke: #d55e00; stroke-width: 0.6; stroke-linecap: square"/>
   </g>
   <g id="line2d_116">
    <path d="M 251.052569 176.070061 
L 11.073368 106.674168 
" clip-path="url(#pb079bf628c)" style="fill: none; stroke: #d55e00; stroke-width: 0.6; stroke-linecap: square"/>
   </g>
   <g id="line2d_117">
    <path d="M 251.052569 104.409472 
L 6.478996 33.685003 
" clip-path="url(#pb079bf628c)" style="fill: none; stroke: #d55e00; stroke-width: 0.6; stroke-linecap: square"/>
   </g>
   <g id="line2d_118">
    <path d="M 235.844593 179.663333 
L -1 108.443151 
" clip-path="url(#pb079bf628c)" style="fill: none; stroke: #d55e00; stroke-width: 0.6; stroke-linecap: square"/>
   </g>
   <g id="line2d_119">
    <path d="M 240.927987 106.674168 
L -1 33.925388 
" clip-path="url(#pb079bf628c)" style="fill: none; stroke: #d55e00; stroke-width: 0.6; stroke-linecap: square"/>
   </g>
  </g>
 </g>
 <defs>
  <clipPath id="pb079bf628c">
   <rect x="30.50375" y="7.2" width="212.348819" height="189.851654"/>
  </clipPath>
 </defs>
</svg>
